SplineFontDB: 3.0
FontName: AtariSTFont
FullName: AtariSTFont
FamilyName: Atari ST System Font
Weight: Medium
Version: 
ItalicAngle: 0
UnderlinePosition: -22
UnderlineWidth: 32
Ascent: 896
Descent: 128
InvalidEm: 0
sfntRevision: 0x00010000
LayerCount: 2
Layer: 0 1 "Back" 1
Layer: 1 1 "Zeichen" 0
XUID: [1021 833 807088370 14327]
StyleMap: 0x0000
FSType: 0
OS2Version: 1
OS2_WeightWidthSlopeOnly: 0
OS2_UseTypoMetrics: 0
CreationTime: 1538396348
ModificationTime: 1538473437
PfmFamily: 17
TTFWeight: 500
TTFWidth: 5
LineGap: 92
VLineGap: 0
Panose: 2 0 6 9 0 0 0 0 0 0
OS2TypoAscent: 896
OS2TypoAOffset: 0
OS2TypoDescent: -128
OS2TypoDOffset: 0
OS2TypoLinegap: 92
OS2WinAscent: 896
OS2WinAOffset: 0
OS2WinDescent: 128
OS2WinDOffset: 0
HheadAscent: 896
HheadAOffset: 0
HheadDescent: -128
HheadDOffset: 0
OS2SubXSize: 665
OS2SubYSize: 716
OS2SubXOff: 0
OS2SubYOff: 143
OS2SupXSize: 665
OS2SupYSize: 716
OS2SupXOff: 0
OS2SupYOff: 491
OS2StrikeYSize: 51
OS2StrikeYPos: 265
OS2Vendor: 'PfEd'
OS2CodePages: 00000001.00000000
OS2UnicodeRanges: 00000007.00000002.00000000.00000000
MarkAttachClasses: 1
DEI: 91125
ShortTable: cvt  2
  34
  648
EndShort
ShortTable: maxp 16
  1
  0
  255
  120
  6
  0
  0
  2
  0
  1
  1
  0
  64
  46
  0
  0
EndShort

StartChar: .notdef
Encoding: 65536 -1 0
Width: 512
Flags: W
LayerCount: 2
Fore
SplineSet
34 0 m 1,0,-1
 34 682 l 1,1,-1
 306 682 l 1,2,-1
 306 0 l 1,3,-1
 34 0 l 1,0,-1
68 34 m 1,4,-1
 272 34 l 1,5,-1
 272 648 l 1,6,-1
 68 648 l 1,7,-1
 68 34 l 1,4,-1
EndSplineSet
EndChar

StartChar: uni000D
Encoding: 13 13 2
Width: 512
Flags: W
LayerCount: 2
Fore
SplineSet
192 224 m 1,0,-1
 192 384 l 1,1,-1
 288 384 l 1,2,-1
 384 384 l 1,3,-1
 384 352 l 1,4,-1
 384 320 l 1,5,-1
 416 320 l 1,6,-1
 448 320 l 1,7,-1
 448 288 l 1,8,-1
 448 256 l 1,9,-1
 416 256 l 1,10,-1
 384 256 l 1,11,-1
 384 192 l 1,12,-1
 384 128 l 1,13,-1
 416 128 l 1,14,-1
 448 128 l 1,15,-1
 448 96 l 1,16,-1
 448 64 l 1,17,-1
 416 64 l 1,18,-1
 384 64 l 1,19,-1
 384 96 l 1,20,-1
 384 128 l 1,21,-1
 352 128 l 1,22,-1
 320 128 l 1,23,-1
 320 160 l 1,24,-1
 320 192 l 1,25,-1
 288 192 l 1,26,-1
 256 192 l 1,27,-1
 256 128 l 1,28,-1
 256 64 l 1,29,-1
 224 64 l 1,30,-1
 192 64 l 1,31,-1
 192 224 l 1,0,-1
384 288 m 1,32,-1
 384 320 l 1,33,-1
 320 320 l 1,34,-1
 256 320 l 1,35,-1
 256 288 l 1,36,-1
 256 256 l 1,37,-1
 320 256 l 1,38,-1
 384 256 l 1,39,-1
 384 288 l 1,32,-1
128 736 m 1,40,-1
 128 768 l 1,41,-1
 224 768 l 1,42,-1
 320 768 l 1,43,-1
 320 736 l 1,44,-1
 320 704 l 1,45,-1
 224 704 l 1,46,-1
 128 704 l 1,47,-1
 128 608 l 1,48,-1
 128 512 l 1,49,-1
 224 512 l 1,50,-1
 320 512 l 1,51,-1
 320 480 l 1,52,-1
 320 448 l 1,53,-1
 224 448 l 1,54,-1
 128 448 l 1,55,-1
 128 480 l 1,56,-1
 128 512 l 1,57,-1
 96 512 l 1,58,-1
 64 512 l 1,59,-1
 64 608 l 1,60,-1
 64 704 l 1,61,-1
 96 704 l 1,62,-1
 128 704 l 1,63,-1
 128 736 l 1,40,-1
EndSplineSet
EndChar

StartChar: uni0001
Encoding: 1 1 4
Width: 512
Flags: W
LayerCount: 2
Fore
SplineSet
192 672 m 1,0,-1
 192 704 l 1,1,-1
 256 704 l 1,2,-1
 320 704 l 1,3,-1
 320 672 l 1,4,-1
 320 640 l 1,5,-1
 352 640 l 1,6,-1
 384 640 l 1,7,-1
 384 608 l 1,8,-1
 384 576 l 1,9,-1
 416 576 l 1,10,-1
 448 576 l 1,11,-1
 448 544 l 1,12,-1
 448 512 l 1,13,-1
 480 512 l 1,14,-1
 512 512 l 1,15,-1
 512 416 l 1,16,-1
 512 320 l 1,17,-1
 448 320 l 1,18,-1
 384 320 l 1,19,-1
 384 192 l 1,20,-1
 384 64 l 1,21,-1
 256 64 l 1,22,-1
 128 64 l 1,23,-1
 128 192 l 1,24,-1
 128 320 l 1,25,-1
 64 320 l 1,26,-1
 0 320 l 1,27,-1
 0 416 l 1,28,-1
 0 512 l 1,29,-1
 32 512 l 1,30,-1
 64 512 l 1,31,-1
 64 544 l 1,32,-1
 64 576 l 1,33,-1
 96 576 l 1,34,-1
 128 576 l 1,35,-1
 128 608 l 1,36,-1
 128 640 l 1,37,-1
 160 640 l 1,38,-1
 192 640 l 1,39,-1
 192 672 l 1,0,-1
320 544 m 1,40,-1
 320 576 l 1,41,-1
 256 576 l 1,42,-1
 192 576 l 1,43,-1
 192 544 l 1,44,-1
 192 512 l 1,45,-1
 160 512 l 1,46,-1
 128 512 l 1,47,-1
 128 480 l 1,48,-1
 128 448 l 1,49,-1
 96 448 l 1,50,-1
 64 448 l 1,51,-1
 64 416 l 1,52,-1
 64 384 l 1,53,-1
 128 384 l 1,54,-1
 192 384 l 1,55,-1
 192 256 l 1,56,-1
 192 128 l 1,57,-1
 256 128 l 1,58,-1
 320 128 l 1,59,-1
 320 256 l 1,60,-1
 320 384 l 1,61,-1
 384 384 l 1,62,-1
 448 384 l 1,63,-1
 448 416 l 1,64,-1
 448 448 l 1,65,-1
 416 448 l 1,66,-1
 384 448 l 1,67,-1
 384 480 l 1,68,-1
 384 512 l 1,69,-1
 352 512 l 1,70,-1
 320 512 l 1,71,-1
 320 544 l 1,40,-1
EndSplineSet
EndChar

StartChar: uni0002
Encoding: 2 2 5
Width: 512
Flags: W
LayerCount: 2
Fore
SplineSet
128 576 m 1,0,-1
 128 704 l 1,1,-1
 256 704 l 1,2,-1
 384 704 l 1,3,-1
 384 576 l 1,4,-1
 384 448 l 1,5,-1
 448 448 l 1,6,-1
 512 448 l 1,7,-1
 512 352 l 1,8,-1
 512 256 l 1,9,-1
 480 256 l 1,10,-1
 448 256 l 1,11,-1
 448 224 l 1,12,-1
 448 192 l 1,13,-1
 416 192 l 1,14,-1
 384 192 l 1,15,-1
 384 160 l 1,16,-1
 384 128 l 1,17,-1
 352 128 l 1,18,-1
 320 128 l 1,19,-1
 320 96 l 1,20,-1
 320 64 l 1,21,-1
 256 64 l 1,22,-1
 192 64 l 1,23,-1
 192 96 l 1,24,-1
 192 128 l 1,25,-1
 160 128 l 1,26,-1
 128 128 l 1,27,-1
 128 160 l 1,28,-1
 128 192 l 1,29,-1
 96 192 l 1,30,-1
 64 192 l 1,31,-1
 64 224 l 1,32,-1
 64 256 l 1,33,-1
 32 256 l 1,34,-1
 0 256 l 1,35,-1
 0 352 l 1,36,-1
 0 448 l 1,37,-1
 64 448 l 1,38,-1
 128 448 l 1,39,-1
 128 576 l 1,0,-1
320 512 m 1,40,-1
 320 640 l 1,41,-1
 256 640 l 1,42,-1
 192 640 l 1,43,-1
 192 512 l 1,44,-1
 192 384 l 1,45,-1
 128 384 l 1,46,-1
 64 384 l 1,47,-1
 64 352 l 1,48,-1
 64 320 l 1,49,-1
 96 320 l 1,50,-1
 128 320 l 1,51,-1
 128 288 l 1,52,-1
 128 256 l 1,53,-1
 160 256 l 1,54,-1
 192 256 l 1,55,-1
 192 224 l 1,56,-1
 192 192 l 1,57,-1
 256 192 l 1,58,-1
 320 192 l 1,59,-1
 320 224 l 1,60,-1
 320 256 l 1,61,-1
 352 256 l 1,62,-1
 384 256 l 1,63,-1
 384 288 l 1,64,-1
 384 320 l 1,65,-1
 416 320 l 1,66,-1
 448 320 l 1,67,-1
 448 352 l 1,68,-1
 448 384 l 1,69,-1
 384 384 l 1,70,-1
 320 384 l 1,71,-1
 320 512 l 1,40,-1
EndSplineSet
EndChar

StartChar: uni0003
Encoding: 3 3 6
Width: 512
Flags: W
LayerCount: 2
Fore
SplineSet
128 672 m 1,0,-1
 128 768 l 1,1,-1
 192 768 l 1,2,-1
 256 768 l 1,3,-1
 256 736 l 1,4,-1
 256 704 l 1,5,-1
 288 704 l 1,6,-1
 320 704 l 1,7,-1
 320 672 l 1,8,-1
 320 640 l 1,9,-1
 352 640 l 1,10,-1
 384 640 l 1,11,-1
 384 608 l 1,12,-1
 384 576 l 1,13,-1
 416 576 l 1,14,-1
 448 576 l 1,15,-1
 448 544 l 1,16,-1
 448 512 l 1,17,-1
 480 512 l 1,18,-1
 512 512 l 1,19,-1
 512 448 l 1,20,-1
 512 384 l 1,21,-1
 480 384 l 1,22,-1
 448 384 l 1,23,-1
 448 352 l 1,24,-1
 448 320 l 1,25,-1
 416 320 l 1,26,-1
 384 320 l 1,27,-1
 384 288 l 1,28,-1
 384 256 l 1,29,-1
 352 256 l 1,30,-1
 320 256 l 1,31,-1
 320 224 l 1,32,-1
 320 192 l 1,33,-1
 288 192 l 1,34,-1
 256 192 l 1,35,-1
 256 160 l 1,36,-1
 256 128 l 1,37,-1
 192 128 l 1,38,-1
 128 128 l 1,39,-1
 128 224 l 1,40,-1
 128 320 l 1,41,-1
 64 320 l 1,42,-1
 0 320 l 1,43,-1
 0 448 l 1,44,-1
 0 576 l 1,45,-1
 64 576 l 1,46,-1
 128 576 l 1,47,-1
 128 672 l 1,0,-1
256 608 m 1,48,-1
 256 640 l 1,49,-1
 224 640 l 1,50,-1
 192 640 l 1,51,-1
 192 576 l 1,52,-1
 192 512 l 1,53,-1
 128 512 l 1,54,-1
 64 512 l 1,55,-1
 64 448 l 1,56,-1
 64 384 l 1,57,-1
 128 384 l 1,58,-1
 192 384 l 1,59,-1
 192 320 l 1,60,-1
 192 256 l 1,61,-1
 224 256 l 1,62,-1
 256 256 l 1,63,-1
 256 288 l 1,64,-1
 256 320 l 1,65,-1
 288 320 l 1,66,-1
 320 320 l 1,67,-1
 320 352 l 1,68,-1
 320 384 l 1,69,-1
 352 384 l 1,70,-1
 384 384 l 1,71,-1
 384 448 l 1,72,-1
 384 512 l 1,73,-1
 352 512 l 1,74,-1
 320 512 l 1,75,-1
 320 544 l 1,76,-1
 320 576 l 1,77,-1
 288 576 l 1,78,-1
 256 576 l 1,79,-1
 256 608 l 1,48,-1
EndSplineSet
EndChar

StartChar: uni0004
Encoding: 4 4 7
Width: 512
Flags: W
LayerCount: 2
Fore
SplineSet
256 736 m 1,0,-1
 256 768 l 1,1,-1
 320 768 l 1,2,-1
 384 768 l 1,3,-1
 384 672 l 1,4,-1
 384 576 l 1,5,-1
 448 576 l 1,6,-1
 512 576 l 1,7,-1
 512 448 l 1,8,-1
 512 320 l 1,9,-1
 448 320 l 1,10,-1
 384 320 l 1,11,-1
 384 224 l 1,12,-1
 384 128 l 1,13,-1
 320 128 l 1,14,-1
 256 128 l 1,15,-1
 256 160 l 1,16,-1
 256 192 l 1,17,-1
 224 192 l 1,18,-1
 192 192 l 1,19,-1
 192 224 l 1,20,-1
 192 256 l 1,21,-1
 160 256 l 1,22,-1
 128 256 l 1,23,-1
 128 288 l 1,24,-1
 128 320 l 1,25,-1
 96 320 l 1,26,-1
 64 320 l 1,27,-1
 64 352 l 1,28,-1
 64 384 l 1,29,-1
 32 384 l 1,30,-1
 0 384 l 1,31,-1
 0 448 l 1,32,-1
 0 512 l 1,33,-1
 32 512 l 1,34,-1
 64 512 l 1,35,-1
 64 544 l 1,36,-1
 64 576 l 1,37,-1
 96 576 l 1,38,-1
 128 576 l 1,39,-1
 128 608 l 1,40,-1
 128 640 l 1,41,-1
 160 640 l 1,42,-1
 192 640 l 1,43,-1
 192 672 l 1,44,-1
 192 704 l 1,45,-1
 224 704 l 1,46,-1
 256 704 l 1,47,-1
 256 736 l 1,0,-1
320 576 m 1,48,-1
 320 640 l 1,49,-1
 288 640 l 1,50,-1
 256 640 l 1,51,-1
 256 608 l 1,52,-1
 256 576 l 1,53,-1
 224 576 l 1,54,-1
 192 576 l 1,55,-1
 192 544 l 1,56,-1
 192 512 l 1,57,-1
 160 512 l 1,58,-1
 128 512 l 1,59,-1
 128 448 l 1,60,-1
 128 384 l 1,61,-1
 160 384 l 1,62,-1
 192 384 l 1,63,-1
 192 352 l 1,64,-1
 192 320 l 1,65,-1
 224 320 l 1,66,-1
 256 320 l 1,67,-1
 256 288 l 1,68,-1
 256 256 l 1,69,-1
 288 256 l 1,70,-1
 320 256 l 1,71,-1
 320 320 l 1,72,-1
 320 384 l 1,73,-1
 384 384 l 1,74,-1
 448 384 l 1,75,-1
 448 448 l 1,76,-1
 448 512 l 1,77,-1
 384 512 l 1,78,-1
 320 512 l 1,79,-1
 320 576 l 1,48,-1
EndSplineSet
EndChar

StartChar: uni0005
Encoding: 5 5 8
Width: 512
Flags: W
LayerCount: 2
Fore
SplineSet
192 320 m 1,0,-1
 192 384 l 1,1,-1
 224 384 l 1,2,-1
 256 384 l 1,3,-1
 256 320 l 1,4,-1
 256 256 l 1,5,-1
 288 256 l 1,6,-1
 320 256 l 1,7,-1
 320 192 l 1,8,-1
 320 128 l 1,9,-1
 352 128 l 1,10,-1
 384 128 l 1,11,-1
 384 96 l 1,12,-1
 384 64 l 1,13,-1
 224 64 l 1,14,-1
 64 64 l 1,15,-1
 64 96 l 1,16,-1
 64 128 l 1,17,-1
 96 128 l 1,18,-1
 128 128 l 1,19,-1
 128 192 l 1,20,-1
 128 256 l 1,21,-1
 160 256 l 1,22,-1
 192 256 l 1,23,-1
 192 320 l 1,0,-1
384 576 m 1,24,-1
 384 640 l 1,25,-1
 416 640 l 1,26,-1
 448 640 l 1,27,-1
 448 416 l 1,28,-1
 448 192 l 1,29,-1
 416 192 l 1,30,-1
 384 192 l 1,31,-1
 384 256 l 1,32,-1
 384 320 l 1,33,-1
 352 320 l 1,34,-1
 320 320 l 1,35,-1
 320 416 l 1,36,-1
 320 512 l 1,37,-1
 352 512 l 1,38,-1
 384 512 l 1,39,-1
 384 576 l 1,24,-1
0 416 m 1,40,-1
 0 640 l 1,41,-1
 32 640 l 1,42,-1
 64 640 l 1,43,-1
 64 576 l 1,44,-1
 64 512 l 1,45,-1
 96 512 l 1,46,-1
 128 512 l 1,47,-1
 128 416 l 1,48,-1
 128 320 l 1,49,-1
 96 320 l 1,50,-1
 64 320 l 1,51,-1
 64 256 l 1,52,-1
 64 192 l 1,53,-1
 32 192 l 1,54,-1
 0 192 l 1,55,-1
 0 416 l 1,40,-1
64 736 m 1,56,-1
 64 768 l 1,57,-1
 224 768 l 1,58,-1
 384 768 l 1,59,-1
 384 736 l 1,60,-1
 384 704 l 1,61,-1
 352 704 l 1,62,-1
 320 704 l 1,63,-1
 320 640 l 1,64,-1
 320 576 l 1,65,-1
 288 576 l 1,66,-1
 256 576 l 1,67,-1
 256 512 l 1,68,-1
 256 448 l 1,69,-1
 224 448 l 1,70,-1
 192 448 l 1,71,-1
 192 512 l 1,72,-1
 192 576 l 1,73,-1
 160 576 l 1,74,-1
 128 576 l 1,75,-1
 128 640 l 1,76,-1
 128 704 l 1,77,-1
 96 704 l 1,78,-1
 64 704 l 1,79,-1
 64 736 l 1,56,-1
EndSplineSet
EndChar

StartChar: uni0006
Encoding: 6 6 9
Width: 512
Flags: W
LayerCount: 2
Fore
SplineSet
384 320 m 1,0,-1
 384 384 l 1,1,-1
 416 384 l 1,2,-1
 448 384 l 1,3,-1
 448 224 l 1,4,-1
 448 64 l 1,5,-1
 352 64 l 1,6,-1
 256 64 l 1,7,-1
 256 96 l 1,8,-1
 256 128 l 1,9,-1
 288 128 l 1,10,-1
 320 128 l 1,11,-1
 320 192 l 1,12,-1
 320 256 l 1,13,-1
 352 256 l 1,14,-1
 384 256 l 1,15,-1
 384 320 l 1,0,-1
0 416 m 1,16,-1
 0 768 l 1,17,-1
 224 768 l 1,18,-1
 448 768 l 1,19,-1
 448 672 l 1,20,-1
 448 576 l 1,21,-1
 416 576 l 1,22,-1
 384 576 l 1,23,-1
 384 512 l 1,24,-1
 384 448 l 1,25,-1
 352 448 l 1,26,-1
 320 448 l 1,27,-1
 320 384 l 1,28,-1
 320 320 l 1,29,-1
 288 320 l 1,30,-1
 256 320 l 1,31,-1
 256 256 l 1,32,-1
 256 192 l 1,33,-1
 224 192 l 1,34,-1
 192 192 l 1,35,-1
 192 128 l 1,36,-1
 192 64 l 1,37,-1
 96 64 l 1,38,-1
 0 64 l 1,39,-1
 0 416 l 1,16,-1
EndSplineSet
EndChar

StartChar: uni0007
Encoding: 7 7 10
Width: 512
Flags: W
LayerCount: 2
Fore
SplineSet
384 320 m 1,0,-1
 384 384 l 1,1,-1
 416 384 l 1,2,-1
 448 384 l 1,3,-1
 448 224 l 1,4,-1
 448 64 l 1,5,-1
 352 64 l 1,6,-1
 256 64 l 1,7,-1
 256 96 l 1,8,-1
 256 128 l 1,9,-1
 288 128 l 1,10,-1
 320 128 l 1,11,-1
 320 192 l 1,12,-1
 320 256 l 1,13,-1
 352 256 l 1,14,-1
 384 256 l 1,15,-1
 384 320 l 1,0,-1
0 224 m 1,16,-1
 0 384 l 1,17,-1
 32 384 l 1,18,-1
 64 384 l 1,19,-1
 64 320 l 1,20,-1
 64 256 l 1,21,-1
 96 256 l 1,22,-1
 128 256 l 1,23,-1
 128 192 l 1,24,-1
 128 128 l 1,25,-1
 160 128 l 1,26,-1
 192 128 l 1,27,-1
 192 96 l 1,28,-1
 192 64 l 1,29,-1
 96 64 l 1,30,-1
 0 64 l 1,31,-1
 0 224 l 1,16,-1
192 576 m 1,32,-1
 192 640 l 1,33,-1
 224 640 l 1,34,-1
 256 640 l 1,35,-1
 256 576 l 1,36,-1
 256 512 l 1,37,-1
 288 512 l 1,38,-1
 320 512 l 1,39,-1
 320 416 l 1,40,-1
 320 320 l 1,41,-1
 288 320 l 1,42,-1
 256 320 l 1,43,-1
 256 256 l 1,44,-1
 256 192 l 1,45,-1
 224 192 l 1,46,-1
 192 192 l 1,47,-1
 192 256 l 1,48,-1
 192 320 l 1,49,-1
 160 320 l 1,50,-1
 128 320 l 1,51,-1
 128 416 l 1,52,-1
 128 512 l 1,53,-1
 160 512 l 1,54,-1
 192 512 l 1,55,-1
 192 576 l 1,32,-1
256 736 m 1,56,-1
 256 768 l 1,57,-1
 352 768 l 1,58,-1
 448 768 l 1,59,-1
 448 608 l 1,60,-1
 448 448 l 1,61,-1
 416 448 l 1,62,-1
 384 448 l 1,63,-1
 384 512 l 1,64,-1
 384 576 l 1,65,-1
 352 576 l 1,66,-1
 320 576 l 1,67,-1
 320 640 l 1,68,-1
 320 704 l 1,69,-1
 288 704 l 1,70,-1
 256 704 l 1,71,-1
 256 736 l 1,56,-1
0 608 m 1,72,-1
 0 768 l 1,73,-1
 96 768 l 1,74,-1
 192 768 l 1,75,-1
 192 736 l 1,76,-1
 192 704 l 1,77,-1
 160 704 l 1,78,-1
 128 704 l 1,79,-1
 128 640 l 1,80,-1
 128 576 l 1,81,-1
 96 576 l 1,82,-1
 64 576 l 1,83,-1
 64 512 l 1,84,-1
 64 448 l 1,85,-1
 32 448 l 1,86,-1
 0 448 l 1,87,-1
 0 608 l 1,72,-1
EndSplineSet
EndChar

StartChar: uni0008
Encoding: 8 8 11
Width: 512
Flags: W
LayerCount: 2
Fore
SplineSet
448 704 m 1,0,-1
 448 768 l 1,1,-1
 480 768 l 1,2,-1
 512 768 l 1,3,-1
 512 640 l 1,4,-1
 512 512 l 1,5,-1
 480 512 l 1,6,-1
 448 512 l 1,7,-1
 448 448 l 1,8,-1
 448 384 l 1,9,-1
 416 384 l 1,10,-1
 384 384 l 1,11,-1
 384 320 l 1,12,-1
 384 256 l 1,13,-1
 352 256 l 1,14,-1
 320 256 l 1,15,-1
 320 192 l 1,16,-1
 320 128 l 1,17,-1
 288 128 l 1,18,-1
 256 128 l 1,19,-1
 256 64 l 1,20,-1
 256 0 l 1,21,-1
 224 0 l 1,22,-1
 192 0 l 1,23,-1
 192 -32 l 1,24,-1
 192 -64 l 1,25,-1
 160 -64 l 1,26,-1
 128 -64 l 1,27,-1
 128 0 l 1,28,-1
 128 64 l 1,29,-1
 96 64 l 1,30,-1
 64 64 l 1,31,-1
 64 128 l 1,32,-1
 64 192 l 1,33,-1
 32 192 l 1,34,-1
 0 192 l 1,35,-1
 0 288 l 1,36,-1
 0 384 l 1,37,-1
 32 384 l 1,38,-1
 64 384 l 1,39,-1
 64 320 l 1,40,-1
 64 256 l 1,41,-1
 96 256 l 1,42,-1
 128 256 l 1,43,-1
 128 192 l 1,44,-1
 128 128 l 1,45,-1
 160 128 l 1,46,-1
 192 128 l 1,47,-1
 192 192 l 1,48,-1
 192 256 l 1,49,-1
 224 256 l 1,50,-1
 256 256 l 1,51,-1
 256 320 l 1,52,-1
 256 384 l 1,53,-1
 288 384 l 1,54,-1
 320 384 l 1,55,-1
 320 448 l 1,56,-1
 320 512 l 1,57,-1
 352 512 l 1,58,-1
 384 512 l 1,59,-1
 384 576 l 1,60,-1
 384 640 l 1,61,-1
 416 640 l 1,62,-1
 448 640 l 1,63,-1
 448 704 l 1,0,-1
EndSplineSet
EndChar

StartChar: uni0009
Encoding: 9 9 12
Width: 512
Flags: W
LayerCount: 2
Fore
SplineSet
192 416 m 1,0,-1
 192 512 l 1,1,-1
 224 512 l 1,2,-1
 256 512 l 1,3,-1
 256 448 l 1,4,-1
 256 384 l 1,5,-1
 320 384 l 1,6,-1
 384 384 l 1,7,-1
 384 352 l 1,8,-1
 384 320 l 1,9,-1
 288 320 l 1,10,-1
 192 320 l 1,11,-1
 192 416 l 1,0,-1
128 672 m 1,12,-1
 128 704 l 1,13,-1
 256 704 l 1,14,-1
 384 704 l 1,15,-1
 384 672 l 1,16,-1
 384 640 l 1,17,-1
 416 640 l 1,18,-1
 448 640 l 1,19,-1
 448 608 l 1,20,-1
 448 576 l 1,21,-1
 480 576 l 1,22,-1
 512 576 l 1,23,-1
 512 384 l 1,24,-1
 512 192 l 1,25,-1
 480 192 l 1,26,-1
 448 192 l 1,27,-1
 448 160 l 1,28,-1
 448 128 l 1,29,-1
 416 128 l 1,30,-1
 384 128 l 1,31,-1
 384 96 l 1,32,-1
 384 64 l 1,33,-1
 256 64 l 1,34,-1
 128 64 l 1,35,-1
 128 96 l 1,36,-1
 128 128 l 1,37,-1
 96 128 l 1,38,-1
 64 128 l 1,39,-1
 64 160 l 1,40,-1
 64 192 l 1,41,-1
 32 192 l 1,42,-1
 0 192 l 1,43,-1
 0 384 l 1,44,-1
 0 576 l 1,45,-1
 32 576 l 1,46,-1
 64 576 l 1,47,-1
 64 608 l 1,48,-1
 64 640 l 1,49,-1
 96 640 l 1,50,-1
 128 640 l 1,51,-1
 128 672 l 1,12,-1
320 608 m 1,52,-1
 320 640 l 1,53,-1
 256 640 l 1,54,-1
 192 640 l 1,55,-1
 192 608 l 1,56,-1
 192 576 l 1,57,-1
 160 576 l 1,58,-1
 128 576 l 1,59,-1
 128 544 l 1,60,-1
 128 512 l 1,61,-1
 96 512 l 1,62,-1
 64 512 l 1,63,-1
 64 384 l 1,64,-1
 64 256 l 1,65,-1
 96 256 l 1,66,-1
 128 256 l 1,67,-1
 128 224 l 1,68,-1
 128 192 l 1,69,-1
 160 192 l 1,70,-1
 192 192 l 1,71,-1
 192 160 l 1,72,-1
 192 128 l 1,73,-1
 256 128 l 1,74,-1
 320 128 l 1,75,-1
 320 160 l 1,76,-1
 320 192 l 1,77,-1
 352 192 l 1,78,-1
 384 192 l 1,79,-1
 384 224 l 1,80,-1
 384 256 l 1,81,-1
 416 256 l 1,82,-1
 448 256 l 1,83,-1
 448 384 l 1,84,-1
 448 512 l 1,85,-1
 416 512 l 1,86,-1
 384 512 l 1,87,-1
 384 544 l 1,88,-1
 384 576 l 1,89,-1
 352 576 l 1,90,-1
 320 576 l 1,91,-1
 320 608 l 1,52,-1
EndSplineSet
EndChar

StartChar: uni000A
Encoding: 10 10 13
Width: 512
Flags: W
LayerCount: 2
Fore
SplineSet
192 608 m 1,0,-1
 192 640 l 1,1,-1
 256 640 l 1,2,-1
 320 640 l 1,3,-1
 320 608 l 1,4,-1
 320 576 l 1,5,-1
 352 576 l 1,6,-1
 384 576 l 1,7,-1
 384 416 l 1,8,-1
 384 256 l 1,9,-1
 416 256 l 1,10,-1
 448 256 l 1,11,-1
 448 224 l 1,12,-1
 448 192 l 1,13,-1
 480 192 l 1,14,-1
 512 192 l 1,15,-1
 512 160 l 1,16,-1
 512 128 l 1,17,-1
 384 128 l 1,18,-1
 256 128 l 1,19,-1
 256 96 l 1,20,-1
 256 64 l 1,21,-1
 288 64 l 1,22,-1
 320 64 l 1,23,-1
 320 32 l 1,24,-1
 320 0 l 1,25,-1
 288 0 l 1,26,-1
 256 0 l 1,27,-1
 256 -32 l 1,28,-1
 256 -64 l 1,29,-1
 224 -64 l 1,30,-1
 192 -64 l 1,31,-1
 192 -32 l 1,32,-1
 192 0 l 1,33,-1
 160 0 l 1,34,-1
 128 0 l 1,35,-1
 128 32 l 1,36,-1
 128 64 l 1,37,-1
 160 64 l 1,38,-1
 192 64 l 1,39,-1
 192 96 l 1,40,-1
 192 128 l 1,41,-1
 96 128 l 1,42,-1
 0 128 l 1,43,-1
 0 160 l 1,44,-1
 0 192 l 1,45,-1
 32 192 l 1,46,-1
 64 192 l 1,47,-1
 64 224 l 1,48,-1
 64 256 l 1,49,-1
 96 256 l 1,50,-1
 128 256 l 1,51,-1
 128 416 l 1,52,-1
 128 576 l 1,53,-1
 160 576 l 1,54,-1
 192 576 l 1,55,-1
 192 608 l 1,0,-1
EndSplineSet
EndChar

StartChar: uni000B
Encoding: 11 11 14
Width: 512
Flags: W
LayerCount: 2
Fore
SplineSet
256 576 m 1,0,-1
 256 768 l 1,1,-1
 288 768 l 1,2,-1
 320 768 l 1,3,-1
 320 736 l 1,4,-1
 320 704 l 1,5,-1
 384 704 l 1,6,-1
 448 704 l 1,7,-1
 448 672 l 1,8,-1
 448 640 l 1,9,-1
 480 640 l 1,10,-1
 512 640 l 1,11,-1
 512 576 l 1,12,-1
 512 512 l 1,13,-1
 480 512 l 1,14,-1
 448 512 l 1,15,-1
 448 544 l 1,16,-1
 448 576 l 1,17,-1
 384 576 l 1,18,-1
 320 576 l 1,19,-1
 320 416 l 1,20,-1
 320 256 l 1,21,-1
 288 256 l 1,22,-1
 256 256 l 1,23,-1
 256 224 l 1,24,-1
 256 192 l 1,25,-1
 160 192 l 1,26,-1
 64 192 l 1,27,-1
 64 224 l 1,28,-1
 64 256 l 1,29,-1
 32 256 l 1,30,-1
 0 256 l 1,31,-1
 0 288 l 1,32,-1
 0 320 l 1,33,-1
 32 320 l 1,34,-1
 64 320 l 1,35,-1
 64 352 l 1,36,-1
 64 384 l 1,37,-1
 160 384 l 1,38,-1
 256 384 l 1,39,-1
 256 576 l 1,0,-1
EndSplineSet
EndChar

StartChar: uni000C
Encoding: 12 12 15
Width: 512
Flags: W
LayerCount: 2
Fore
SplineSet
192 224 m 1,0,-1
 192 384 l 1,1,-1
 320 384 l 1,2,-1
 448 384 l 1,3,-1
 448 352 l 1,4,-1
 448 320 l 1,5,-1
 352 320 l 1,6,-1
 256 320 l 1,7,-1
 256 288 l 1,8,-1
 256 256 l 1,9,-1
 320 256 l 1,10,-1
 384 256 l 1,11,-1
 384 224 l 1,12,-1
 384 192 l 1,13,-1
 320 192 l 1,14,-1
 256 192 l 1,15,-1
 256 128 l 1,16,-1
 256 64 l 1,17,-1
 224 64 l 1,18,-1
 192 64 l 1,19,-1
 192 224 l 1,0,-1
64 608 m 1,20,-1
 64 768 l 1,21,-1
 192 768 l 1,22,-1
 320 768 l 1,23,-1
 320 736 l 1,24,-1
 320 704 l 1,25,-1
 224 704 l 1,26,-1
 128 704 l 1,27,-1
 128 672 l 1,28,-1
 128 640 l 1,29,-1
 192 640 l 1,30,-1
 256 640 l 1,31,-1
 256 608 l 1,32,-1
 256 576 l 1,33,-1
 192 576 l 1,34,-1
 128 576 l 1,35,-1
 128 512 l 1,36,-1
 128 448 l 1,37,-1
 96 448 l 1,38,-1
 64 448 l 1,39,-1
 64 608 l 1,20,-1
EndSplineSet
EndChar

StartChar: uni000E
Encoding: 14 14 16
Width: 512
Flags: W
LayerCount: 2
Fore
SplineSet
320 789 m 2,0,-1
 320 832 l 1,1,-1
 384 832 l 1,2,-1
 384 384 l 1,3,-1
 320 384 l 1,4,-1
 320 256 l 1,5,-1
 256 256 l 1,6,7
 256 222 256 222 256 128 c 1,8,-1
 192 128 l 1,9,-1
 192 64 l 1,10,-1
 128 64 l 1,11,-1
 128 0 l 1,12,-1
 64 0 l 1,13,14
 64 159 64 159 63 320 c 1,15,16
 91 320 91 320 128 320 c 1,17,-1
 128 352 l 2,18,-1
 128 384 l 1,19,20
 159 384 159 384 192 384 c 1,21,22
 192 448 l 1,23,-1
 227 448 l 2,24,25
 256 448 l 1,26,27
 256 512 256 512 256 576 c 1,28,-1
 284 576 l 2,29,30
 302 576 302 576 320 576 c 1,31,32
 320 746 320 746 320 789 c 2,0,-1
448 0 m 1,33,-1
 448 832 l 1,34,-1
 512 832 l 1,35,-1
 512 0 l 1,36,-1
 448 0 l 1,33,-1
EndSplineSet
EndChar

StartChar: uni000F
Encoding: 15 15 17
Width: 512
Flags: W
LayerCount: 2
Fore
SplineSet
191 789 m 6,0,-1
 191 832 l 5,1,-1
 127 832 l 5,2,-1
 127 384 l 5,3,-1
 191 384 l 5,4,-1
 191 256 l 5,5,-1
 255 256 l 5,6,7
 255 222 255 222 255 128 c 5,8,-1
 319 128 l 5,9,-1
 319 64 l 5,10,-1
 383 64 l 5,11,-1
 383 0 l 5,12,-1
 447 0 l 5,13,14
 447 159 447 159 448 320 c 5,15,16
 420 320 420 320 383 320 c 5,17,-1
 383 352 l 6,18,-1
 383 384 l 5,19,20
 352 384 352 384 319 384 c 5,21,22
 319 448 l 5,23,-1
 284 448 l 6,24,25
 255 448 l 5,26,27
 255 512 255 512 255 576 c 5,28,-1
 227 576 l 6,29,30
 209 576 209 576 191 576 c 5,31,32
 191 746 191 746 191 789 c 6,0,-1
63 0 m 5,33,-1
 63 832 l 5,34,-1
 -1 832 l 5,35,-1
 -1 0 l 5,36,-1
 63 0 l 5,33,-1
EndSplineSet
EndChar

StartChar: uni0010
Encoding: 16 16 18
Width: 512
Flags: W
LayerCount: 2
Fore
SplineSet
0 224 m 1,0,-1
 0 384 l 1,1,-1
 32 384 l 1,2,-1
 64 384 l 1,3,-1
 64 352 l 1,4,-1
 64 320 l 1,5,-1
 96 320 l 1,6,-1
 128 320 l 1,7,-1
 128 224 l 1,8,-1
 128 128 l 1,9,-1
 224 128 l 1,10,-1
 320 128 l 1,11,-1
 320 224 l 1,12,-1
 320 320 l 1,13,-1
 352 320 l 1,14,-1
 384 320 l 1,15,-1
 384 352 l 1,16,-1
 384 384 l 1,17,-1
 416 384 l 1,18,-1
 448 384 l 1,19,-1
 448 224 l 1,20,-1
 448 64 l 1,21,-1
 416 64 l 1,22,-1
 384 64 l 1,23,-1
 384 32 l 1,24,-1
 384 0 l 1,25,-1
 224 0 l 1,26,-1
 64 0 l 1,27,-1
 64 32 l 1,28,-1
 64 64 l 1,29,-1
 32 64 l 1,30,-1
 0 64 l 1,31,-1
 0 224 l 1,0,-1
128 96 m 1,32,-1
 128 128 l 1,33,-1
 96 128 l 1,34,-1
 64 128 l 1,35,-1
 64 96 l 1,36,-1
 64 64 l 1,37,-1
 96 64 l 1,38,-1
 128 64 l 1,39,-1
 128 96 l 1,32,-1
384 96 m 1,40,-1
 384 128 l 1,41,-1
 352 128 l 1,42,-1
 320 128 l 1,43,-1
 320 96 l 1,44,-1
 320 64 l 1,45,-1
 352 64 l 1,46,-1
 384 64 l 1,47,-1
 384 96 l 1,40,-1
64 800 m 1,48,-1
 64 832 l 1,49,-1
 224 832 l 1,50,-1
 384 832 l 1,51,-1
 384 800 l 1,52,-1
 384 768 l 1,53,-1
 416 768 l 1,54,-1
 448 768 l 1,55,-1
 448 608 l 1,56,-1
 448 448 l 1,57,-1
 416 448 l 1,58,-1
 384 448 l 1,59,-1
 384 480 l 1,60,-1
 384 512 l 1,61,-1
 352 512 l 1,62,-1
 320 512 l 1,63,-1
 320 608 l 1,64,-1
 320 704 l 1,65,-1
 224 704 l 1,66,-1
 128 704 l 1,67,-1
 128 608 l 1,68,-1
 128 512 l 1,69,-1
 96 512 l 1,70,-1
 64 512 l 1,71,-1
 64 480 l 1,72,-1
 64 448 l 1,73,-1
 32 448 l 1,74,-1
 0 448 l 1,75,-1
 0 608 l 1,76,-1
 0 768 l 1,77,-1
 32 768 l 1,78,-1
 64 768 l 1,79,-1
 64 800 l 1,48,-1
128 736 m 1,80,-1
 128 768 l 1,81,-1
 96 768 l 1,82,-1
 64 768 l 1,83,-1
 64 736 l 1,84,-1
 64 704 l 1,85,-1
 96 704 l 1,86,-1
 128 704 l 1,87,-1
 128 736 l 1,80,-1
384 736 m 1,88,-1
 384 768 l 1,89,-1
 352 768 l 1,90,-1
 320 768 l 1,91,-1
 320 736 l 1,92,-1
 320 704 l 1,93,-1
 352 704 l 1,94,-1
 384 704 l 1,95,-1
 384 736 l 1,88,-1
EndSplineSet
EndChar

StartChar: uni0011
Encoding: 17 17 19
Width: 512
Flags: W
LayerCount: 2
Fore
SplineSet
384 352 m 1,0,-1
 384 384 l 1,1,-1
 416 384 l 1,2,-1
 448 384 l 1,3,-1
 448 224 l 1,4,-1
 448 64 l 1,5,-1
 416 64 l 1,6,-1
 384 64 l 1,7,-1
 384 96 l 1,8,-1
 384 128 l 1,9,-1
 352 128 l 1,10,-1
 320 128 l 1,11,-1
 320 224 l 1,12,-1
 320 320 l 1,13,-1
 352 320 l 1,14,-1
 384 320 l 1,15,-1
 384 352 l 1,0,-1
384 736 m 1,16,-1
 384 768 l 1,17,-1
 416 768 l 1,18,-1
 448 768 l 1,19,-1
 448 608 l 1,20,-1
 448 448 l 1,21,-1
 416 448 l 1,22,-1
 384 448 l 1,23,-1
 384 480 l 1,24,-1
 384 512 l 1,25,-1
 352 512 l 1,26,-1
 320 512 l 1,27,-1
 320 608 l 1,28,-1
 320 704 l 1,29,-1
 352 704 l 1,30,-1
 384 704 l 1,31,-1
 384 736 l 1,16,-1
EndSplineSet
EndChar

StartChar: uni0012
Encoding: 18 18 20
Width: 512
Flags: W
LayerCount: 2
Fore
SplineSet
64 800 m 1,0,-1
 64 832 l 1,1,-1
 224 832 l 1,2,-1
 384 832 l 1,3,-1
 384 800 l 1,4,-1
 384 768 l 1,5,-1
 416 768 l 1,6,-1
 448 768 l 1,7,-1
 448 608 l 1,8,-1
 448 448 l 1,9,-1
 416 448 l 1,10,-1
 384 448 l 1,11,-1
 384 416 l 1,12,-1
 384 384 l 1,13,-1
 352 384 l 1,14,-1
 320 384 l 1,15,-1
 320 352 l 1,16,-1
 320 320 l 1,17,-1
 224 320 l 1,18,-1
 128 320 l 1,19,-1
 128 224 l 1,20,-1
 128 128 l 1,21,-1
 224 128 l 1,22,-1
 320 128 l 1,23,-1
 320 96 l 1,24,-1
 320 64 l 1,25,-1
 352 64 l 1,26,-1
 384 64 l 1,27,-1
 384 32 l 1,28,-1
 384 0 l 1,29,-1
 224 0 l 1,30,-1
 64 0 l 1,31,-1
 64 32 l 1,32,-1
 64 64 l 1,33,-1
 32 64 l 1,34,-1
 0 64 l 1,35,-1
 0 224 l 1,36,-1
 0 384 l 1,37,-1
 32 384 l 1,38,-1
 64 384 l 1,39,-1
 64 416 l 1,40,-1
 64 448 l 1,41,-1
 96 448 l 1,42,-1
 128 448 l 1,43,-1
 128 480 l 1,44,-1
 128 512 l 1,45,-1
 224 512 l 1,46,-1
 320 512 l 1,47,-1
 320 608 l 1,48,-1
 320 704 l 1,49,-1
 224 704 l 1,50,-1
 128 704 l 1,51,-1
 128 736 l 1,52,-1
 128 768 l 1,53,-1
 96 768 l 1,54,-1
 64 768 l 1,55,-1
 64 800 l 1,0,-1
384 736 m 1,56,-1
 384 768 l 1,57,-1
 352 768 l 1,58,-1
 320 768 l 1,59,-1
 320 736 l 1,60,-1
 320 704 l 1,61,-1
 352 704 l 1,62,-1
 384 704 l 1,63,-1
 384 736 l 1,56,-1
384 480 m 1,64,-1
 384 512 l 1,65,-1
 352 512 l 1,66,-1
 320 512 l 1,67,-1
 320 480 l 1,68,-1
 320 448 l 1,69,-1
 352 448 l 1,70,-1
 384 448 l 1,71,-1
 384 480 l 1,64,-1
128 352 m 1,72,-1
 128 384 l 1,73,-1
 96 384 l 1,74,-1
 64 384 l 1,75,-1
 64 352 l 1,76,-1
 64 320 l 1,77,-1
 96 320 l 1,78,-1
 128 320 l 1,79,-1
 128 352 l 1,72,-1
128 96 m 1,80,-1
 128 128 l 1,81,-1
 96 128 l 1,82,-1
 64 128 l 1,83,-1
 64 96 l 1,84,-1
 64 64 l 1,85,-1
 96 64 l 1,86,-1
 128 64 l 1,87,-1
 128 96 l 1,80,-1
EndSplineSet
EndChar

StartChar: uni0013
Encoding: 19 19 21
Width: 512
Flags: W
LayerCount: 2
Fore
SplineSet
64 800 m 1,0,-1
 64 832 l 1,1,-1
 224 832 l 1,2,-1
 384 832 l 1,3,-1
 384 800 l 1,4,-1
 384 768 l 1,5,-1
 416 768 l 1,6,-1
 448 768 l 1,7,-1
 448 608 l 1,8,-1
 448 448 l 1,9,-1
 416 448 l 1,10,-1
 384 448 l 1,11,-1
 384 416 l 1,12,-1
 384 384 l 1,13,-1
 416 384 l 1,14,-1
 448 384 l 1,15,-1
 448 224 l 1,16,-1
 448 64 l 1,17,-1
 416 64 l 1,18,-1
 384 64 l 1,19,-1
 384 32 l 1,20,-1
 384 0 l 1,21,-1
 224 0 l 1,22,-1
 64 0 l 1,23,-1
 64 32 l 1,24,-1
 64 64 l 1,25,-1
 96 64 l 1,26,-1
 128 64 l 1,27,-1
 128 96 l 1,28,-1
 128 128 l 1,29,-1
 224 128 l 1,30,-1
 320 128 l 1,31,-1
 320 224 l 1,32,-1
 320 320 l 1,33,-1
 224 320 l 1,34,-1
 128 320 l 1,35,-1
 128 352 l 1,36,-1
 128 384 l 1,37,-1
 96 384 l 1,38,-1
 64 384 l 1,39,-1
 64 416 l 1,40,-1
 64 448 l 1,41,-1
 96 448 l 1,42,-1
 128 448 l 1,43,-1
 128 480 l 1,44,-1
 128 512 l 1,45,-1
 224 512 l 1,46,-1
 320 512 l 1,47,-1
 320 608 l 1,48,-1
 320 704 l 1,49,-1
 224 704 l 1,50,-1
 128 704 l 1,51,-1
 128 736 l 1,52,-1
 128 768 l 1,53,-1
 96 768 l 1,54,-1
 64 768 l 1,55,-1
 64 800 l 1,0,-1
384 736 m 1,56,-1
 384 768 l 1,57,-1
 352 768 l 1,58,-1
 320 768 l 1,59,-1
 320 736 l 1,60,-1
 320 704 l 1,61,-1
 352 704 l 1,62,-1
 384 704 l 1,63,-1
 384 736 l 1,56,-1
384 480 m 1,64,-1
 384 512 l 1,65,-1
 352 512 l 1,66,-1
 320 512 l 1,67,-1
 320 480 l 1,68,-1
 320 448 l 1,69,-1
 352 448 l 1,70,-1
 384 448 l 1,71,-1
 384 480 l 1,64,-1
384 352 m 1,72,-1
 384 384 l 1,73,-1
 352 384 l 1,74,-1
 320 384 l 1,75,-1
 320 352 l 1,76,-1
 320 320 l 1,77,-1
 352 320 l 1,78,-1
 384 320 l 1,79,-1
 384 352 l 1,72,-1
384 96 m 1,80,-1
 384 128 l 1,81,-1
 352 128 l 1,82,-1
 320 128 l 1,83,-1
 320 96 l 1,84,-1
 320 64 l 1,85,-1
 352 64 l 1,86,-1
 384 64 l 1,87,-1
 384 96 l 1,80,-1
EndSplineSet
EndChar

StartChar: uni0014
Encoding: 20 20 22
Width: 512
Flags: W
LayerCount: 2
Fore
SplineSet
0 608 m 1,0,-1
 0 768 l 1,1,-1
 32 768 l 1,2,-1
 64 768 l 1,3,-1
 64 736 l 1,4,-1
 64 704 l 1,5,-1
 96 704 l 1,6,-1
 128 704 l 1,7,-1
 128 608 l 1,8,-1
 128 512 l 1,9,-1
 224 512 l 1,10,-1
 320 512 l 1,11,-1
 320 608 l 1,12,-1
 320 704 l 1,13,-1
 352 704 l 1,14,-1
 384 704 l 1,15,-1
 384 736 l 1,16,-1
 384 768 l 1,17,-1
 416 768 l 1,18,-1
 448 768 l 1,19,-1
 448 608 l 1,20,-1
 448 448 l 1,21,-1
 416 448 l 1,22,-1
 384 448 l 1,23,-1
 384 416 l 1,24,-1
 384 384 l 1,25,-1
 416 384 l 1,26,-1
 448 384 l 1,27,-1
 448 224 l 1,28,-1
 448 64 l 1,29,-1
 416 64 l 1,30,-1
 384 64 l 1,31,-1
 384 96 l 1,32,-1
 384 128 l 1,33,-1
 352 128 l 1,34,-1
 320 128 l 1,35,-1
 320 224 l 1,36,-1
 320 320 l 1,37,-1
 224 320 l 1,38,-1
 128 320 l 1,39,-1
 128 352 l 1,40,-1
 128 384 l 1,41,-1
 96 384 l 1,42,-1
 64 384 l 1,43,-1
 64 416 l 1,44,-1
 64 448 l 1,45,-1
 32 448 l 1,46,-1
 0 448 l 1,47,-1
 0 608 l 1,0,-1
128 480 m 1,48,-1
 128 512 l 1,49,-1
 96 512 l 1,50,-1
 64 512 l 1,51,-1
 64 480 l 1,52,-1
 64 448 l 1,53,-1
 96 448 l 1,54,-1
 128 448 l 1,55,-1
 128 480 l 1,48,-1
384 480 m 1,56,-1
 384 512 l 1,57,-1
 352 512 l 1,58,-1
 320 512 l 1,59,-1
 320 480 l 1,60,-1
 320 448 l 1,61,-1
 352 448 l 1,62,-1
 384 448 l 1,63,-1
 384 480 l 1,56,-1
384 352 m 1,64,-1
 384 384 l 1,65,-1
 352 384 l 1,66,-1
 320 384 l 1,67,-1
 320 352 l 1,68,-1
 320 320 l 1,69,-1
 352 320 l 1,70,-1
 384 320 l 1,71,-1
 384 352 l 1,64,-1
EndSplineSet
EndChar

StartChar: uni0015
Encoding: 21 21 23
Width: 512
Flags: W
LayerCount: 2
Fore
SplineSet
64 800 m 1,0,-1
 64 832 l 1,1,-1
 224 832 l 1,2,-1
 384 832 l 1,3,-1
 384 800 l 1,4,-1
 384 768 l 1,5,-1
 352 768 l 1,6,-1
 320 768 l 1,7,-1
 320 736 l 1,8,-1
 320 704 l 1,9,-1
 224 704 l 1,10,-1
 128 704 l 1,11,-1
 128 608 l 1,12,-1
 128 512 l 1,13,-1
 224 512 l 1,14,-1
 320 512 l 1,15,-1
 320 480 l 1,16,-1
 320 448 l 1,17,-1
 352 448 l 1,18,-1
 384 448 l 1,19,-1
 384 416 l 1,20,-1
 384 384 l 1,21,-1
 416 384 l 1,22,-1
 448 384 l 1,23,-1
 448 224 l 1,24,-1
 448 64 l 1,25,-1
 416 64 l 1,26,-1
 384 64 l 1,27,-1
 384 32 l 1,28,-1
 384 0 l 1,29,-1
 224 0 l 1,30,-1
 64 0 l 1,31,-1
 64 32 l 1,32,-1
 64 64 l 1,33,-1
 96 64 l 1,34,-1
 128 64 l 1,35,-1
 128 96 l 1,36,-1
 128 128 l 1,37,-1
 224 128 l 1,38,-1
 320 128 l 1,39,-1
 320 224 l 1,40,-1
 320 320 l 1,41,-1
 224 320 l 1,42,-1
 128 320 l 1,43,-1
 128 352 l 1,44,-1
 128 384 l 1,45,-1
 96 384 l 1,46,-1
 64 384 l 1,47,-1
 64 416 l 1,48,-1
 64 448 l 1,49,-1
 32 448 l 1,50,-1
 0 448 l 1,51,-1
 0 608 l 1,52,-1
 0 768 l 1,53,-1
 32 768 l 1,54,-1
 64 768 l 1,55,-1
 64 800 l 1,0,-1
128 736 m 1,56,-1
 128 768 l 1,57,-1
 96 768 l 1,58,-1
 64 768 l 1,59,-1
 64 736 l 1,60,-1
 64 704 l 1,61,-1
 96 704 l 1,62,-1
 128 704 l 1,63,-1
 128 736 l 1,56,-1
128 480 m 1,64,-1
 128 512 l 1,65,-1
 96 512 l 1,66,-1
 64 512 l 1,67,-1
 64 480 l 1,68,-1
 64 448 l 1,69,-1
 96 448 l 1,70,-1
 128 448 l 1,71,-1
 128 480 l 1,64,-1
384 352 m 1,72,-1
 384 384 l 1,73,-1
 352 384 l 1,74,-1
 320 384 l 1,75,-1
 320 352 l 1,76,-1
 320 320 l 1,77,-1
 352 320 l 1,78,-1
 384 320 l 1,79,-1
 384 352 l 1,72,-1
384 96 m 1,80,-1
 384 128 l 1,81,-1
 352 128 l 1,82,-1
 320 128 l 1,83,-1
 320 96 l 1,84,-1
 320 64 l 1,85,-1
 352 64 l 1,86,-1
 384 64 l 1,87,-1
 384 96 l 1,80,-1
EndSplineSet
EndChar

StartChar: uni0016
Encoding: 22 22 24
Width: 512
Flags: W
LayerCount: 2
Fore
SplineSet
64 800 m 1,0,-1
 64 832 l 1,1,-1
 224 832 l 1,2,-1
 384 832 l 1,3,-1
 384 800 l 1,4,-1
 384 768 l 1,5,-1
 352 768 l 1,6,-1
 320 768 l 1,7,-1
 320 736 l 1,8,-1
 320 704 l 1,9,-1
 224 704 l 1,10,-1
 128 704 l 1,11,-1
 128 608 l 1,12,-1
 128 512 l 1,13,-1
 224 512 l 1,14,-1
 320 512 l 1,15,-1
 320 480 l 1,16,-1
 320 448 l 1,17,-1
 352 448 l 1,18,-1
 384 448 l 1,19,-1
 384 416 l 1,20,-1
 384 384 l 1,21,-1
 416 384 l 1,22,-1
 448 384 l 1,23,-1
 448 224 l 1,24,-1
 448 64 l 1,25,-1
 416 64 l 1,26,-1
 384 64 l 1,27,-1
 384 32 l 1,28,-1
 384 0 l 1,29,-1
 224 0 l 1,30,-1
 64 0 l 1,31,-1
 64 32 l 1,32,-1
 64 64 l 1,33,-1
 32 64 l 1,34,-1
 0 64 l 1,35,-1
 0 224 l 1,36,-1
 0 384 l 1,37,-1
 32 384 l 1,38,-1
 64 384 l 1,39,-1
 64 416 l 1,40,-1
 64 448 l 1,41,-1
 32 448 l 1,42,-1
 0 448 l 1,43,-1
 0 608 l 1,44,-1
 0 768 l 1,45,-1
 32 768 l 1,46,-1
 64 768 l 1,47,-1
 64 800 l 1,0,-1
128 736 m 1,48,-1
 128 768 l 1,49,-1
 96 768 l 1,50,-1
 64 768 l 1,51,-1
 64 736 l 1,52,-1
 64 704 l 1,53,-1
 96 704 l 1,54,-1
 128 704 l 1,55,-1
 128 736 l 1,48,-1
128 480 m 1,56,-1
 128 512 l 1,57,-1
 96 512 l 1,58,-1
 64 512 l 1,59,-1
 64 480 l 1,60,-1
 64 448 l 1,61,-1
 96 448 l 1,62,-1
 128 448 l 1,63,-1
 128 480 l 1,56,-1
128 352 m 1,64,-1
 128 384 l 1,65,-1
 96 384 l 1,66,-1
 64 384 l 1,67,-1
 64 352 l 1,68,-1
 64 320 l 1,69,-1
 96 320 l 1,70,-1
 128 320 l 1,71,-1
 128 224 l 1,72,-1
 128 128 l 1,73,-1
 96 128 l 1,74,-1
 64 128 l 1,75,-1
 64 96 l 1,76,-1
 64 64 l 1,77,-1
 96 64 l 1,78,-1
 128 64 l 1,79,-1
 128 96 l 1,80,-1
 128 128 l 1,81,-1
 224 128 l 1,82,-1
 320 128 l 1,83,-1
 320 96 l 1,84,-1
 320 64 l 1,85,-1
 352 64 l 1,86,-1
 384 64 l 1,87,-1
 384 96 l 1,88,-1
 384 128 l 1,89,-1
 352 128 l 1,90,-1
 320 128 l 1,91,-1
 320 224 l 1,92,-1
 320 320 l 1,93,-1
 352 320 l 1,94,-1
 384 320 l 1,95,-1
 384 352 l 1,96,-1
 384 384 l 1,97,-1
 352 384 l 1,98,-1
 320 384 l 1,99,-1
 320 352 l 1,100,-1
 320 320 l 1,101,-1
 224 320 l 1,102,-1
 128 320 l 1,103,-1
 128 352 l 1,64,-1
EndSplineSet
EndChar

StartChar: uni0017
Encoding: 23 23 25
Width: 512
Flags: W
LayerCount: 2
Fore
SplineSet
384 352 m 1,0,-1
 384 384 l 1,1,-1
 416 384 l 1,2,-1
 448 384 l 1,3,-1
 448 224 l 1,4,-1
 448 64 l 1,5,-1
 416 64 l 1,6,-1
 384 64 l 1,7,-1
 384 96 l 1,8,-1
 384 128 l 1,9,-1
 352 128 l 1,10,-1
 320 128 l 1,11,-1
 320 224 l 1,12,-1
 320 320 l 1,13,-1
 352 320 l 1,14,-1
 384 320 l 1,15,-1
 384 352 l 1,0,-1
64 800 m 1,16,-1
 64 832 l 1,17,-1
 224 832 l 1,18,-1
 384 832 l 1,19,-1
 384 800 l 1,20,-1
 384 768 l 1,21,-1
 416 768 l 1,22,-1
 448 768 l 1,23,-1
 448 608 l 1,24,-1
 448 448 l 1,25,-1
 416 448 l 1,26,-1
 384 448 l 1,27,-1
 384 480 l 1,28,-1
 384 512 l 1,29,-1
 352 512 l 1,30,-1
 320 512 l 1,31,-1
 320 608 l 1,32,-1
 320 704 l 1,33,-1
 224 704 l 1,34,-1
 128 704 l 1,35,-1
 128 608 l 1,36,-1
 128 512 l 1,37,-1
 96 512 l 1,38,-1
 64 512 l 1,39,-1
 64 480 l 1,40,-1
 64 448 l 1,41,-1
 32 448 l 1,42,-1
 0 448 l 1,43,-1
 0 608 l 1,44,-1
 0 768 l 1,45,-1
 32 768 l 1,46,-1
 64 768 l 1,47,-1
 64 800 l 1,16,-1
128 736 m 1,48,-1
 128 768 l 1,49,-1
 96 768 l 1,50,-1
 64 768 l 1,51,-1
 64 736 l 1,52,-1
 64 704 l 1,53,-1
 96 704 l 1,54,-1
 128 704 l 1,55,-1
 128 736 l 1,48,-1
384 736 m 1,56,-1
 384 768 l 1,57,-1
 352 768 l 1,58,-1
 320 768 l 1,59,-1
 320 736 l 1,60,-1
 320 704 l 1,61,-1
 352 704 l 1,62,-1
 384 704 l 1,63,-1
 384 736 l 1,56,-1
EndSplineSet
EndChar

StartChar: uni0018
Encoding: 24 24 26
Width: 512
Flags: W
LayerCount: 2
Fore
SplineSet
64 800 m 1,0,-1
 64 832 l 1,1,-1
 224 832 l 1,2,-1
 384 832 l 1,3,-1
 384 800 l 1,4,-1
 384 768 l 1,5,-1
 416 768 l 1,6,-1
 448 768 l 1,7,-1
 448 608 l 1,8,-1
 448 448 l 1,9,-1
 416 448 l 1,10,-1
 384 448 l 1,11,-1
 384 416 l 1,12,-1
 384 384 l 1,13,-1
 416 384 l 1,14,-1
 448 384 l 1,15,-1
 448 224 l 1,16,-1
 448 64 l 1,17,-1
 416 64 l 1,18,-1
 384 64 l 1,19,-1
 384 32 l 1,20,-1
 384 0 l 1,21,-1
 224 0 l 1,22,-1
 64 0 l 1,23,-1
 64 32 l 1,24,-1
 64 64 l 1,25,-1
 32 64 l 1,26,-1
 0 64 l 1,27,-1
 0 224 l 1,28,-1
 0 384 l 1,29,-1
 32 384 l 1,30,-1
 64 384 l 1,31,-1
 64 416 l 1,32,-1
 64 448 l 1,33,-1
 32 448 l 1,34,-1
 0 448 l 1,35,-1
 0 608 l 1,36,-1
 0 768 l 1,37,-1
 32 768 l 1,38,-1
 64 768 l 1,39,-1
 64 800 l 1,0,-1
128 736 m 1,40,-1
 128 768 l 1,41,-1
 96 768 l 1,42,-1
 64 768 l 1,43,-1
 64 736 l 1,44,-1
 64 704 l 1,45,-1
 96 704 l 1,46,-1
 128 704 l 1,47,-1
 128 608 l 1,48,-1
 128 512 l 1,49,-1
 96 512 l 1,50,-1
 64 512 l 1,51,-1
 64 480 l 1,52,-1
 64 448 l 1,53,-1
 96 448 l 1,54,-1
 128 448 l 1,55,-1
 128 480 l 1,56,-1
 128 512 l 1,57,-1
 224 512 l 1,58,-1
 320 512 l 1,59,-1
 320 480 l 1,60,-1
 320 448 l 1,61,-1
 352 448 l 1,62,-1
 384 448 l 1,63,-1
 384 480 l 1,64,-1
 384 512 l 1,65,-1
 352 512 l 1,66,-1
 320 512 l 1,67,-1
 320 608 l 1,68,-1
 320 704 l 1,69,-1
 352 704 l 1,70,-1
 384 704 l 1,71,-1
 384 736 l 1,72,-1
 384 768 l 1,73,-1
 352 768 l 1,74,-1
 320 768 l 1,75,-1
 320 736 l 1,76,-1
 320 704 l 1,77,-1
 224 704 l 1,78,-1
 128 704 l 1,79,-1
 128 736 l 1,40,-1
128 352 m 1,80,-1
 128 384 l 1,81,-1
 96 384 l 1,82,-1
 64 384 l 1,83,-1
 64 352 l 1,84,-1
 64 320 l 1,85,-1
 96 320 l 1,86,-1
 128 320 l 1,87,-1
 128 224 l 1,88,-1
 128 128 l 1,89,-1
 96 128 l 1,90,-1
 64 128 l 1,91,-1
 64 96 l 1,92,-1
 64 64 l 1,93,-1
 96 64 l 1,94,-1
 128 64 l 1,95,-1
 128 96 l 1,96,-1
 128 128 l 1,97,-1
 224 128 l 1,98,-1
 320 128 l 1,99,-1
 320 96 l 1,100,-1
 320 64 l 1,101,-1
 352 64 l 1,102,-1
 384 64 l 1,103,-1
 384 96 l 1,104,-1
 384 128 l 1,105,-1
 352 128 l 1,106,-1
 320 128 l 1,107,-1
 320 224 l 1,108,-1
 320 320 l 1,109,-1
 352 320 l 1,110,-1
 384 320 l 1,111,-1
 384 352 l 1,112,-1
 384 384 l 1,113,-1
 352 384 l 1,114,-1
 320 384 l 1,115,-1
 320 352 l 1,116,-1
 320 320 l 1,117,-1
 224 320 l 1,118,-1
 128 320 l 1,119,-1
 128 352 l 1,80,-1
EndSplineSet
EndChar

StartChar: uni0019
Encoding: 25 25 27
Width: 512
Flags: W
LayerCount: 2
Fore
SplineSet
64 800 m 1,0,-1
 64 832 l 1,1,-1
 224 832 l 1,2,-1
 384 832 l 1,3,-1
 384 800 l 1,4,-1
 384 768 l 1,5,-1
 416 768 l 1,6,-1
 448 768 l 1,7,-1
 448 608 l 1,8,-1
 448 448 l 1,9,-1
 416 448 l 1,10,-1
 384 448 l 1,11,-1
 384 416 l 1,12,-1
 384 384 l 1,13,-1
 416 384 l 1,14,-1
 448 384 l 1,15,-1
 448 224 l 1,16,-1
 448 64 l 1,17,-1
 416 64 l 1,18,-1
 384 64 l 1,19,-1
 384 32 l 1,20,-1
 384 0 l 1,21,-1
 224 0 l 1,22,-1
 64 0 l 1,23,-1
 64 32 l 1,24,-1
 64 64 l 1,25,-1
 96 64 l 1,26,-1
 128 64 l 1,27,-1
 128 96 l 1,28,-1
 128 128 l 1,29,-1
 224 128 l 1,30,-1
 320 128 l 1,31,-1
 320 224 l 1,32,-1
 320 320 l 1,33,-1
 224 320 l 1,34,-1
 128 320 l 1,35,-1
 128 352 l 1,36,-1
 128 384 l 1,37,-1
 96 384 l 1,38,-1
 64 384 l 1,39,-1
 64 416 l 1,40,-1
 64 448 l 1,41,-1
 32 448 l 1,42,-1
 0 448 l 1,43,-1
 0 608 l 1,44,-1
 0 768 l 1,45,-1
 32 768 l 1,46,-1
 64 768 l 1,47,-1
 64 800 l 1,0,-1
128 736 m 1,48,-1
 128 768 l 1,49,-1
 96 768 l 1,50,-1
 64 768 l 1,51,-1
 64 736 l 1,52,-1
 64 704 l 1,53,-1
 96 704 l 1,54,-1
 128 704 l 1,55,-1
 128 608 l 1,56,-1
 128 512 l 1,57,-1
 96 512 l 1,58,-1
 64 512 l 1,59,-1
 64 480 l 1,60,-1
 64 448 l 1,61,-1
 96 448 l 1,62,-1
 128 448 l 1,63,-1
 128 480 l 1,64,-1
 128 512 l 1,65,-1
 224 512 l 1,66,-1
 320 512 l 1,67,-1
 320 480 l 1,68,-1
 320 448 l 1,69,-1
 352 448 l 1,70,-1
 384 448 l 1,71,-1
 384 480 l 1,72,-1
 384 512 l 1,73,-1
 352 512 l 1,74,-1
 320 512 l 1,75,-1
 320 608 l 1,76,-1
 320 704 l 1,77,-1
 352 704 l 1,78,-1
 384 704 l 1,79,-1
 384 736 l 1,80,-1
 384 768 l 1,81,-1
 352 768 l 1,82,-1
 320 768 l 1,83,-1
 320 736 l 1,84,-1
 320 704 l 1,85,-1
 224 704 l 1,86,-1
 128 704 l 1,87,-1
 128 736 l 1,48,-1
384 352 m 1,88,-1
 384 384 l 1,89,-1
 352 384 l 1,90,-1
 320 384 l 1,91,-1
 320 352 l 1,92,-1
 320 320 l 1,93,-1
 352 320 l 1,94,-1
 384 320 l 1,95,-1
 384 352 l 1,88,-1
384 96 m 1,96,-1
 384 128 l 1,97,-1
 352 128 l 1,98,-1
 320 128 l 1,99,-1
 320 96 l 1,100,-1
 320 64 l 1,101,-1
 352 64 l 1,102,-1
 384 64 l 1,103,-1
 384 96 l 1,96,-1
EndSplineSet
EndChar

StartChar: uni001A
Encoding: 26 26 28
Width: 512
Flags: W
LayerCount: 2
Fore
SplineSet
64 512 m 1,0,-1
 64 576 l 1,1,-1
 224 576 l 1,2,-1
 384 576 l 1,3,-1
 384 544 l 1,4,-1
 384 512 l 1,5,-1
 416 512 l 1,6,-1
 448 512 l 1,7,-1
 448 288 l 1,8,-1
 448 64 l 1,9,-1
 416 64 l 1,10,-1
 384 64 l 1,11,-1
 384 32 l 1,12,-1
 384 0 l 1,13,-1
 256 0 l 1,14,-1
 128 0 l 1,15,-1
 128 32 l 1,16,-1
 128 64 l 1,17,-1
 96 64 l 1,18,-1
 64 64 l 1,19,-1
 64 192 l 1,20,-1
 64 320 l 1,21,-1
 192 320 l 1,22,-1
 320 320 l 1,23,-1
 320 384 l 1,24,-1
 320 448 l 1,25,-1
 192 448 l 1,26,-1
 64 448 l 1,27,-1
 64 512 l 1,0,-1
320 192 m 1,28,-1
 320 256 l 1,29,-1
 256 256 l 1,30,-1
 192 256 l 1,31,-1
 192 192 l 1,32,-1
 192 128 l 1,33,-1
 256 128 l 1,34,-1
 320 128 l 1,35,-1
 320 192 l 1,28,-1
EndSplineSet
EndChar

StartChar: uni001B
Encoding: 27 27 29
Width: 512
Flags: W
LayerCount: 2
Fore
SplineSet
256 352 m 1,0,-1
 256 384 l 1,1,-1
 352 384 l 1,2,-1
 448 384 l 1,3,-1
 448 352 l 1,4,-1
 448 320 l 1,5,-1
 352 320 l 1,6,-1
 256 320 l 1,7,-1
 256 288 l 1,8,-1
 256 256 l 1,9,-1
 320 256 l 1,10,-1
 384 256 l 1,11,-1
 384 224 l 1,12,-1
 384 192 l 1,13,-1
 416 192 l 1,14,-1
 448 192 l 1,15,-1
 448 160 l 1,16,-1
 448 128 l 1,17,-1
 416 128 l 1,18,-1
 384 128 l 1,19,-1
 384 96 l 1,20,-1
 384 64 l 1,21,-1
 288 64 l 1,22,-1
 192 64 l 1,23,-1
 192 96 l 1,24,-1
 192 128 l 1,25,-1
 288 128 l 1,26,-1
 384 128 l 1,27,-1
 384 160 l 1,28,-1
 384 192 l 1,29,-1
 320 192 l 1,30,-1
 256 192 l 1,31,-1
 256 224 l 1,32,-1
 256 256 l 1,33,-1
 224 256 l 1,34,-1
 192 256 l 1,35,-1
 192 288 l 1,36,-1
 192 320 l 1,37,-1
 224 320 l 1,38,-1
 256 320 l 1,39,-1
 256 352 l 1,0,-1
64 608 m 1,40,-1
 64 768 l 1,41,-1
 192 768 l 1,42,-1
 320 768 l 1,43,-1
 320 736 l 1,44,-1
 320 704 l 1,45,-1
 224 704 l 1,46,-1
 128 704 l 1,47,-1
 128 672 l 1,48,-1
 128 640 l 1,49,-1
 192 640 l 1,50,-1
 256 640 l 1,51,-1
 256 608 l 1,52,-1
 256 576 l 1,53,-1
 192 576 l 1,54,-1
 128 576 l 1,55,-1
 128 544 l 1,56,-1
 128 512 l 1,57,-1
 224 512 l 1,58,-1
 320 512 l 1,59,-1
 320 480 l 1,60,-1
 320 448 l 1,61,-1
 192 448 l 1,62,-1
 64 448 l 1,63,-1
 64 608 l 1,40,-1
EndSplineSet
EndChar

StartChar: uni001C
Encoding: 28 28 30
Width: 512
Flags: W
LayerCount: 2
Fore
SplineSet
512 384 m 1,0,-1
 512 192 l 1,1,-1
 256 192 l 1,2,-1
 256 64 l 1,3,-1
 192 64 l 1,4,-1
 192 0 l 5,5,-1
 448 0 l 1,6,-1
 448 -64 l 1,7,-1
 512 -64 l 1,8,-1
 512 -128 l 1,9,-1
 320 -128 l 1,10,-1
 320 -64 l 1,11,-1
 256 -64 l 1,12,-1
 192 -64 l 1,13,-1
 192 -128 l 1,14,-1
 128 -128 l 1,15,-1
 128 -54 l 1,16,-1
 128 -24 l 1,17,-1
 128 0 l 1,18,-1
 128 256 l 1,19,-1
 192 256 l 1,20,-1
 192 320 l 1,21,-1
 256 320 l 1,22,-1
 256 384 l 1,23,-1
 512 384 l 1,0,-1
EndSplineSet
EndChar

StartChar: uni001D
Encoding: 29 29 31
Width: 512
Flags: W
LayerCount: 2
Fore
SplineSet
0 384 m 1,0,-1
 0 192 l 1,1,-1
 192 192 l 1,2,-1
 192 256 l 1,3,-1
 256 256 l 1,4,-1
 256 192 l 5,5,-1
 320 192 l 1,6,-1
 320 0 l 1,7,-1
 128 0 l 1,8,-1
 128 -64 l 1,9,-1
 64 -64 l 1,10,-1
 64 -128 l 1,11,-1
 128 -128 l 1,12,-1
 128 -64 l 1,13,-1
 192 -64 l 1,14,-1
 192 -128 l 1,15,-1
 256 -128 l 1,16,-1
 256 -64 l 1,17,-1
 320 -64 l 1,18,-1
 320 -128 l 1,19,-1
 384 -128 l 1,20,-1
 384 256 l 1,21,-1
 320 256 l 1,22,-1
 320 320 l 1,23,-1
 256 320 l 1,24,-1
 256 384 l 1,25,-1
 0 384 l 1,0,-1
EndSplineSet
EndChar

StartChar: uni001E
Encoding: 30 30 32
Width: 512
Flags: W
LayerCount: 2
Fore
SplineSet
384 832 m 1,0,-1
 448 832 l 1,1,-1
 448 896 l 1,2,-1
 512 896 l 1,3,-1
 512 704 l 1,4,-1
 448 704 l 1,5,-1
 448 768 l 1,6,-1
 384 768 l 1,7,-1
 384 704 l 1,8,-1
 448 704 l 1,9,-1
 448 640 l 1,10,-1
 512 640 l 1,11,-1
 512 576 l 1,12,-1
 448 576 l 1,13,-1
 448 512 l 1,14,-1
 512 512 l 1,15,-1
 512 448 l 1,16,-1
 448 448 l 1,17,-1
 448 512 l 1,18,-1
 320 512 l 1,19,-1
 321 384 l 1,20,-1
 256 384 l 1,21,-1
 192 384 l 1,22,-1
 128 384 l 5,23,-1
 128 576 l 1,24,-1
 159 576 l 1,25,-1
 192 576 l 1,26,-1
 192 512 l 1,27,-1
 256 512 l 1,28,-1
 256 576 l 1,29,-1
 320 577 l 1,30,-1
 321 704 l 1,31,-1
 256 704 l 1,32,-1
 256 832 l 1,33,-1
 192 832 l 1,34,-1
 192 896 l 1,35,-1
 224 896 l 1,36,-1
 256 896 l 1,37,-1
 256 832 l 1,38,-1
 320 832 l 1,39,-1
 320 768 l 1,40,-1
 384 768 l 1,41,-1
 384 832 l 1,0,-1
EndSplineSet
EndChar

StartChar: uni001F
Encoding: 31 31 33
Width: 512
Flags: W
LayerCount: 2
Fore
SplineSet
128 832 m 1,0,-1
 192 832 l 1,1,-1
 192 768 l 1,2,-1
 256 768 l 1,3,-1
 256 832 l 1,4,-1
 320 832 l 1,5,-1
 320 896 l 1,6,-1
 384 896 l 1,7,-1
 384 832 l 1,8,-1
 320 832 l 1,9,-1
 320 640 l 1,10,-1
 256 640 l 1,11,-1
 256 512 l 1,12,-1
 192 512 l 1,13,-1
 192 448 l 5,14,-1
 0 448 l 1,15,-1
 0 512 l 1,16,-1
 192 512 l 1,17,-1
 192 640 l 1,18,-1
 256 640 l 1,19,-1
 256 704 l 1,20,-1
 192 704 l 1,21,-1
 192 640 l 1,22,-1
 128 640 l 1,23,-1
 128 576 l 1,24,-1
 0 576 l 1,25,-1
 0 640 l 1,26,-1
 128 640 l 1,27,-1
 128 704 l 1,28,-1
 192 704 l 1,29,-1
 192 768 l 1,30,-1
 128 768 l 1,31,-1
 128 704 l 1,32,-1
 0 704 l 1,33,-1
 0 768 l 1,34,-1
 128 768 l 1,35,-1
 128 832 l 1,0,-1
EndSplineSet
EndChar

StartChar: exclam
Encoding: 33 33 35
Width: 512
Flags: W
LayerCount: 2
Fore
SplineSet
192 64 m 1,0,-1
 192 128 l 1,1,-1
 256 128 l 1,2,-1
 320 128 l 1,3,-1
 320 64 l 1,4,-1
 320 0 l 1,5,-1
 256 0 l 1,6,-1
 192 0 l 1,7,-1
 192 64 l 1,0,-1
192 512 m 1,8,-1
 192 768 l 1,9,-1
 256 768 l 1,10,-1
 320 768 l 1,11,-1
 320 512 l 1,12,-1
 320 256 l 1,13,-1
 256 256 l 1,14,-1
 192 256 l 1,15,-1
 192 512 l 1,8,-1
EndSplineSet
EndChar

StartChar: quotedbl
Encoding: 34 34 36
Width: 512
Flags: W
LayerCount: 2
Fore
SplineSet
320 576 m 1,0,-1
 320 768 l 1,1,-1
 384 768 l 1,2,-1
 448 768 l 1,3,-1
 448 576 l 1,4,-1
 448 384 l 1,5,-1
 384 384 l 1,6,-1
 320 384 l 1,7,-1
 320 576 l 1,0,-1
64 576 m 1,8,-1
 64 768 l 1,9,-1
 128 768 l 1,10,-1
 192 768 l 1,11,-1
 192 576 l 1,12,-1
 192 384 l 1,13,-1
 128 384 l 1,14,-1
 64 384 l 1,15,-1
 64 576 l 1,8,-1
EndSplineSet
EndChar

StartChar: numbersign
Encoding: 35 35 37
Width: 512
Flags: W
LayerCount: 2
Fore
SplineSet
64 704 m 1,0,-1
 64 768 l 1,1,-1
 128 768 l 1,2,-1
 192 768 l 1,3,-1
 192 704 l 1,4,-1
 192 640 l 1,5,-1
 256 640 l 1,6,-1
 320 640 l 1,7,-1
 320 704 l 1,8,-1
 320 768 l 1,9,-1
 384 768 l 1,10,-1
 448 768 l 1,11,-1
 448 704 l 1,12,-1
 448 640 l 1,13,-1
 480 640 l 1,14,-1
 512 640 l 1,15,-1
 512 576 l 1,16,-1
 512 512 l 1,17,-1
 480 512 l 1,18,-1
 448 512 l 1,19,-1
 448 448 l 1,20,-1
 448 384 l 1,21,-1
 480 384 l 1,22,-1
 512 384 l 1,23,-1
 512 320 l 1,24,-1
 512 256 l 1,25,-1
 480 256 l 1,26,-1
 448 256 l 1,27,-1
 448 192 l 1,28,-1
 448 128 l 1,29,-1
 384 128 l 1,30,-1
 320 128 l 1,31,-1
 320 192 l 1,32,-1
 320 256 l 1,33,-1
 256 256 l 1,34,-1
 192 256 l 1,35,-1
 192 192 l 1,36,-1
 192 128 l 1,37,-1
 128 128 l 1,38,-1
 64 128 l 1,39,-1
 64 192 l 1,40,-1
 64 256 l 1,41,-1
 32 256 l 1,42,-1
 0 256 l 1,43,-1
 0 320 l 1,44,-1
 0 384 l 1,45,-1
 32 384 l 1,46,-1
 64 384 l 1,47,-1
 64 448 l 1,48,-1
 64 512 l 1,49,-1
 32 512 l 1,50,-1
 0 512 l 1,51,-1
 0 576 l 1,52,-1
 0 640 l 1,53,-1
 32 640 l 1,54,-1
 64 640 l 1,55,-1
 64 704 l 1,0,-1
320 448 m 1,56,-1
 320 512 l 1,57,-1
 256 512 l 1,58,-1
 192 512 l 1,59,-1
 192 448 l 1,60,-1
 192 384 l 1,61,-1
 256 384 l 1,62,-1
 320 384 l 1,63,-1
 320 448 l 1,56,-1
EndSplineSet
EndChar

StartChar: dollar
Encoding: 36 36 38
Width: 512
Flags: W
LayerCount: 2
Fore
SplineSet
192 832 m 1,0,-1
 192 896 l 1,1,-1
 256 896 l 1,2,-1
 320 896 l 1,3,-1
 320 832 l 1,4,-1
 320 768 l 1,5,-1
 384 768 l 1,6,-1
 448 768 l 1,7,-1
 448 704 l 1,8,-1
 448 640 l 1,9,-1
 320 640 l 1,10,-1
 192 640 l 1,11,-1
 192 576 l 1,12,-1
 192 512 l 1,13,-1
 288 512 l 1,14,-1
 384 512 l 1,15,-1
 384 480 l 1,16,-1
 384 448 l 1,17,-1
 416 448 l 1,18,-1
 448 448 l 1,19,-1
 448 320 l 1,20,-1
 448 192 l 1,21,-1
 416 192 l 1,22,-1
 384 192 l 1,23,-1
 384 160 l 1,24,-1
 384 128 l 1,25,-1
 352 128 l 1,26,-1
 320 128 l 1,27,-1
 320 64 l 1,28,-1
 320 0 l 1,29,-1
 256 0 l 1,30,-1
 192 0 l 1,31,-1
 192 64 l 1,32,-1
 192 128 l 1,33,-1
 128 128 l 1,34,-1
 64 128 l 1,35,-1
 64 192 l 1,36,-1
 64 256 l 1,37,-1
 192 256 l 1,38,-1
 320 256 l 1,39,-1
 320 320 l 1,40,-1
 320 384 l 1,41,-1
 224 384 l 1,42,-1
 128 384 l 1,43,-1
 128 416 l 1,44,-1
 128 448 l 1,45,-1
 96 448 l 1,46,-1
 64 448 l 1,47,-1
 64 576 l 1,48,-1
 64 704 l 1,49,-1
 96 704 l 1,50,-1
 128 704 l 1,51,-1
 128 736 l 1,52,-1
 128 768 l 1,53,-1
 160 768 l 1,54,-1
 192 768 l 1,55,-1
 192 832 l 1,0,-1
EndSplineSet
EndChar

StartChar: percent
Encoding: 37 37 39
Width: 512
Flags: W
LayerCount: 2
Fore
SplineSet
320 224 m 1,0,-1
 320 320 l 1,1,-1
 384 320 l 1,2,-1
 448 320 l 1,3,-1
 448 224 l 1,4,-1
 448 128 l 1,5,-1
 384 128 l 1,6,-1
 320 128 l 1,7,-1
 320 224 l 1,0,-1
320 704 m 1,8,-1
 320 768 l 1,9,-1
 384 768 l 1,10,-1
 448 768 l 1,11,-1
 448 704 l 1,12,-1
 448 640 l 1,13,-1
 416 640 l 1,14,-1
 384 640 l 1,15,-1
 384 576 l 1,16,-1
 384 512 l 1,17,-1
 352 512 l 1,18,-1
 320 512 l 1,19,-1
 320 448 l 1,20,-1
 320 384 l 1,21,-1
 288 384 l 1,22,-1
 256 384 l 1,23,-1
 256 320 l 1,24,-1
 256 256 l 1,25,-1
 224 256 l 1,26,-1
 192 256 l 1,27,-1
 192 192 l 1,28,-1
 192 128 l 1,29,-1
 128 128 l 1,30,-1
 64 128 l 1,31,-1
 64 192 l 1,32,-1
 64 256 l 1,33,-1
 96 256 l 1,34,-1
 128 256 l 1,35,-1
 128 320 l 1,36,-1
 128 384 l 1,37,-1
 160 384 l 1,38,-1
 192 384 l 1,39,-1
 192 448 l 1,40,-1
 192 512 l 1,41,-1
 224 512 l 1,42,-1
 256 512 l 1,43,-1
 256 576 l 1,44,-1
 256 640 l 1,45,-1
 288 640 l 1,46,-1
 320 640 l 1,47,-1
 320 704 l 1,8,-1
64 672 m 1,48,-1
 64 768 l 1,49,-1
 128 768 l 1,50,-1
 192 768 l 1,51,-1
 192 672 l 1,52,-1
 192 576 l 1,53,-1
 128 576 l 1,54,-1
 64 576 l 1,55,-1
 64 672 l 1,48,-1
EndSplineSet
EndChar

StartChar: ampersand
Encoding: 38 38 40
Width: 512
Flags: W
LayerCount: 2
Fore
SplineSet
128 864 m 1,0,-1
 128 896 l 1,1,-1
 224 896 l 1,2,-1
 320 896 l 1,3,-1
 320 864 l 1,4,-1
 320 832 l 1,5,-1
 352 832 l 1,6,-1
 384 832 l 1,7,-1
 384 736 l 1,8,-1
 384 640 l 1,9,-1
 352 640 l 1,10,-1
 320 640 l 1,11,-1
 320 576 l 1,12,-1
 320 512 l 1,13,-1
 288 512 l 1,14,-1
 256 512 l 1,15,-1
 256 448 l 1,16,-1
 256 384 l 1,17,-1
 352 384 l 1,18,-1
 448 384 l 1,19,-1
 448 320 l 1,20,-1
 448 256 l 1,21,-1
 416 256 l 1,22,-1
 384 256 l 1,23,-1
 384 192 l 1,24,-1
 384 128 l 1,25,-1
 416 128 l 1,26,-1
 448 128 l 1,27,-1
 448 64 l 1,28,-1
 448 0 l 1,29,-1
 384 0 l 1,30,-1
 320 0 l 1,31,-1
 320 32 l 1,32,-1
 320 64 l 1,33,-1
 288 64 l 1,34,-1
 256 64 l 1,35,-1
 256 32 l 1,36,-1
 256 0 l 1,37,-1
 160 0 l 1,38,-1
 64 0 l 1,39,-1
 64 32 l 1,40,-1
 64 64 l 1,41,-1
 32 64 l 1,42,-1
 0 64 l 1,43,-1
 0 224 l 1,44,-1
 0 384 l 1,45,-1
 32 384 l 1,46,-1
 64 384 l 1,47,-1
 64 448 l 1,48,-1
 64 512 l 1,49,-1
 96 512 l 1,50,-1
 128 512 l 1,51,-1
 128 576 l 1,52,-1
 128 640 l 1,53,-1
 96 640 l 1,54,-1
 64 640 l 1,55,-1
 64 736 l 1,56,-1
 64 832 l 1,57,-1
 96 832 l 1,58,-1
 128 832 l 1,59,-1
 128 864 l 1,0,-1
256 704 m 1,60,-1
 256 768 l 1,61,-1
 224 768 l 1,62,-1
 192 768 l 1,63,-1
 192 704 l 1,64,-1
 192 640 l 1,65,-1
 224 640 l 1,66,-1
 256 640 l 1,67,-1
 256 704 l 1,60,-1
192 320 m 1,68,-1
 192 384 l 1,69,-1
 160 384 l 1,70,-1
 128 384 l 1,71,-1
 128 256 l 1,72,-1
 128 128 l 1,73,-1
 192 128 l 1,74,-1
 256 128 l 1,75,-1
 256 192 l 1,76,-1
 256 256 l 1,77,-1
 224 256 l 1,78,-1
 192 256 l 1,79,-1
 192 320 l 1,68,-1
EndSplineSet
EndChar

StartChar: quotesingle
Encoding: 39 39 41
Width: 512
Flags: W
LayerCount: 2
Fore
SplineSet
192 576 m 1,0,-1
 192 768 l 1,1,-1
 256 768 l 1,2,-1
 320 768 l 1,3,-1
 320 576 l 1,4,-1
 320 384 l 1,5,-1
 256 384 l 1,6,-1
 192 384 l 1,7,-1
 192 576 l 1,0,-1
EndSplineSet
EndChar

StartChar: parenleft
Encoding: 40 40 42
Width: 512
Flags: W
LayerCount: 2
Fore
SplineSet
320 736 m 1,0,-1
 320 768 l 1,1,-1
 384 768 l 1,2,-1
 448 768 l 1,3,-1
 448 736 l 1,4,-1
 448 704 l 1,5,-1
 416 704 l 1,6,-1
 384 704 l 1,7,-1
 384 640 l 1,8,-1
 384 576 l 1,9,-1
 352 576 l 1,10,-1
 320 576 l 1,11,-1
 320 384 l 1,12,-1
 320 192 l 1,13,-1
 352 192 l 1,14,-1
 384 192 l 1,15,-1
 384 128 l 1,16,-1
 384 64 l 1,17,-1
 416 64 l 1,18,-1
 448 64 l 1,19,-1
 448 32 l 1,20,-1
 448 0 l 1,21,-1
 384 0 l 1,22,-1
 320 0 l 1,23,-1
 320 32 l 1,24,-1
 320 64 l 1,25,-1
 288 64 l 1,26,-1
 256 64 l 1,27,-1
 256 96 l 1,28,-1
 256 128 l 1,29,-1
 224 128 l 1,30,-1
 192 128 l 1,31,-1
 192 384 l 1,32,-1
 192 640 l 1,33,-1
 224 640 l 1,34,-1
 256 640 l 1,35,-1
 256 672 l 1,36,-1
 256 704 l 1,37,-1
 288 704 l 1,38,-1
 320 704 l 1,39,-1
 320 736 l 1,0,-1
EndSplineSet
EndChar

StartChar: parenright
Encoding: 41 41 43
Width: 512
Flags: W
LayerCount: 2
Fore
SplineSet
64 736 m 1,0,-1
 64 768 l 1,1,-1
 128 768 l 1,2,-1
 192 768 l 1,3,-1
 192 736 l 1,4,-1
 192 704 l 1,5,-1
 224 704 l 1,6,-1
 256 704 l 1,7,-1
 256 672 l 1,8,-1
 256 640 l 1,9,-1
 288 640 l 1,10,-1
 320 640 l 1,11,-1
 320 384 l 1,12,-1
 320 128 l 1,13,-1
 288 128 l 1,14,-1
 256 128 l 1,15,-1
 256 96 l 1,16,-1
 256 64 l 1,17,-1
 224 64 l 1,18,-1
 192 64 l 1,19,-1
 192 32 l 1,20,-1
 192 0 l 1,21,-1
 128 0 l 1,22,-1
 64 0 l 1,23,-1
 64 32 l 1,24,-1
 64 64 l 1,25,-1
 96 64 l 1,26,-1
 128 64 l 1,27,-1
 128 128 l 1,28,-1
 128 192 l 1,29,-1
 160 192 l 1,30,-1
 192 192 l 1,31,-1
 192 384 l 1,32,-1
 192 576 l 1,33,-1
 160 576 l 1,34,-1
 128 576 l 1,35,-1
 128 640 l 1,36,-1
 128 704 l 1,37,-1
 96 704 l 1,38,-1
 64 704 l 1,39,-1
 64 736 l 1,0,-1
EndSplineSet
EndChar

StartChar: asterisk
Encoding: 42 42 44
Width: 512
Flags: W
LayerCount: 2
Fore
SplineSet
64 704 m 1,0,-1
 64 768 l 1,1,-1
 128 768 l 1,2,-1
 192 768 l 1,3,-1
 192 704 l 1,4,-1
 192 640 l 1,5,-1
 256 640 l 1,6,-1
 320 640 l 1,7,-1
 320 704 l 1,8,-1
 320 768 l 1,9,-1
 384 768 l 1,10,-1
 448 768 l 1,11,-1
 448 704 l 1,12,-1
 448 640 l 1,13,-1
 416 640 l 1,14,-1
 384 640 l 1,15,-1
 384 576 l 1,16,-1
 384 512 l 1,17,-1
 448 512 l 1,18,-1
 512 512 l 1,19,-1
 512 448 l 1,20,-1
 512 384 l 1,21,-1
 448 384 l 1,22,-1
 384 384 l 1,23,-1
 384 320 l 1,24,-1
 384 256 l 1,25,-1
 416 256 l 1,26,-1
 448 256 l 1,27,-1
 448 192 l 1,28,-1
 448 128 l 1,29,-1
 384 128 l 1,30,-1
 320 128 l 1,31,-1
 320 192 l 1,32,-1
 320 256 l 1,33,-1
 256 256 l 1,34,-1
 192 256 l 1,35,-1
 192 192 l 1,36,-1
 192 128 l 1,37,-1
 128 128 l 1,38,-1
 64 128 l 1,39,-1
 64 192 l 1,40,-1
 64 256 l 1,41,-1
 96 256 l 1,42,-1
 128 256 l 1,43,-1
 128 320 l 1,44,-1
 128 384 l 1,45,-1
 64 384 l 1,46,-1
 0 384 l 1,47,-1
 0 448 l 1,48,-1
 0 512 l 1,49,-1
 64 512 l 1,50,-1
 128 512 l 1,51,-1
 128 576 l 1,52,-1
 128 640 l 1,53,-1
 96 640 l 1,54,-1
 64 640 l 1,55,-1
 64 704 l 1,0,-1
EndSplineSet
EndChar

StartChar: plus
Encoding: 43 43 45
Width: 512
Flags: W
LayerCount: 2
Fore
SplineSet
192 608 m 1,0,-1
 192 704 l 1,1,-1
 256 704 l 1,2,-1
 320 704 l 1,3,-1
 320 608 l 1,4,-1
 320 512 l 1,5,-1
 384 512 l 1,6,-1
 448 512 l 1,7,-1
 448 448 l 1,8,-1
 448 384 l 1,9,-1
 384 384 l 1,10,-1
 320 384 l 1,11,-1
 320 288 l 1,12,-1
 320 192 l 1,13,-1
 256 192 l 1,14,-1
 192 192 l 1,15,-1
 192 288 l 1,16,-1
 192 384 l 1,17,-1
 128 384 l 1,18,-1
 64 384 l 1,19,-1
 64 448 l 1,20,-1
 64 512 l 1,21,-1
 128 512 l 1,22,-1
 192 512 l 1,23,-1
 192 608 l 1,0,-1
EndSplineSet
EndChar

StartChar: comma
Encoding: 44 44 46
Width: 512
Flags: W
LayerCount: 2
Fore
SplineSet
192 128 m 1,0,-1
 192 256 l 1,1,-1
 256 256 l 1,2,-1
 320 256 l 1,3,-1
 320 128 l 1,4,-1
 320 0 l 1,5,-1
 288 0 l 1,6,-1
 256 0 l 1,7,-1
 256 -32 l 1,8,-1
 256 -64 l 1,9,-1
 224 -64 l 1,10,-1
 192 -64 l 1,11,-1
 192 -96 l 1,12,-1
 192 -128 l 1,13,-1
 160 -128 l 1,14,-1
 128 -128 l 1,15,-1
 128 -64 l 1,16,-1
 128 0 l 1,17,-1
 160 0 l 1,18,-1
 192 0 l 1,19,-1
 192 128 l 1,0,-1
EndSplineSet
EndChar

StartChar: hyphen
Encoding: 45 45 47
Width: 512
Flags: W
LayerCount: 2
Fore
SplineSet
64 448 m 1,0,-1
 64 512 l 1,1,-1
 256 512 l 1,2,-1
 448 512 l 1,3,-1
 448 448 l 1,4,-1
 448 384 l 1,5,-1
 256 384 l 1,6,-1
 64 384 l 1,7,-1
 64 448 l 1,0,-1
EndSplineSet
EndChar

StartChar: period
Encoding: 46 46 48
Width: 512
Flags: W
LayerCount: 2
Fore
SplineSet
192 128 m 1,0,-1
 192 256 l 1,1,-1
 256 256 l 1,2,-1
 320 256 l 1,3,-1
 320 128 l 1,4,-1
 320 0 l 1,5,-1
 256 0 l 1,6,-1
 192 0 l 1,7,-1
 192 128 l 1,0,-1
EndSplineSet
EndChar

StartChar: slash
Encoding: 47 47 49
Width: 512
Flags: W
LayerCount: 2
Fore
SplineSet
320 672 m 1,0,-1
 320 768 l 1,1,-1
 384 768 l 1,2,-1
 448 768 l 1,3,-1
 448 672 l 1,4,-1
 448 576 l 1,5,-1
 416 576 l 1,6,-1
 384 576 l 1,7,-1
 384 512 l 1,8,-1
 384 448 l 1,9,-1
 352 448 l 1,10,-1
 320 448 l 1,11,-1
 320 384 l 1,12,-1
 320 320 l 1,13,-1
 288 320 l 1,14,-1
 256 320 l 1,15,-1
 256 256 l 1,16,-1
 256 192 l 1,17,-1
 224 192 l 1,18,-1
 192 192 l 1,19,-1
 192 96 l 1,20,-1
 192 0 l 1,21,-1
 128 0 l 1,22,-1
 64 0 l 1,23,-1
 64 96 l 1,24,-1
 64 192 l 1,25,-1
 96 192 l 1,26,-1
 128 192 l 1,27,-1
 128 256 l 1,28,-1
 128 320 l 1,29,-1
 160 320 l 1,30,-1
 192 320 l 1,31,-1
 192 384 l 1,32,-1
 192 448 l 1,33,-1
 224 448 l 1,34,-1
 256 448 l 1,35,-1
 256 512 l 1,36,-1
 256 576 l 1,37,-1
 288 576 l 1,38,-1
 320 576 l 1,39,-1
 320 672 l 1,0,-1
EndSplineSet
EndChar

StartChar: zero
Encoding: 48 48 50
Width: 512
Flags: W
LayerCount: 2
Fore
SplineSet
128 736 m 1,0,-1
 128 768 l 1,1,-1
 256 768 l 1,2,-1
 384 768 l 1,3,-1
 384 736 l 1,4,-1
 384 704 l 1,5,-1
 416 704 l 1,6,-1
 448 704 l 1,7,-1
 448 384 l 1,8,-1
 448 64 l 1,9,-1
 416 64 l 1,10,-1
 384 64 l 1,11,-1
 384 32 l 1,12,-1
 384 0 l 1,13,-1
 256 0 l 1,14,-1
 128 0 l 1,15,-1
 128 32 l 1,16,-1
 128 64 l 1,17,-1
 96 64 l 1,18,-1
 64 64 l 1,19,-1
 64 384 l 1,20,-1
 64 704 l 1,21,-1
 96 704 l 1,22,-1
 128 704 l 1,23,-1
 128 736 l 1,0,-1
320 544 m 1,24,-1
 320 640 l 1,25,-1
 256 640 l 1,26,-1
 192 640 l 1,27,-1
 192 512 l 1,28,-1
 192 384 l 1,29,-1
 224 384 l 1,30,-1
 256 384 l 1,31,-1
 256 352 l 1,32,-1
 256 320 l 1,33,-1
 224 320 l 1,34,-1
 192 320 l 1,35,-1
 192 224 l 1,36,-1
 192 128 l 1,37,-1
 256 128 l 1,38,-1
 320 128 l 1,39,-1
 320 256 l 1,40,-1
 320 384 l 1,41,-1
 288 384 l 1,42,-1
 256 384 l 1,43,-1
 256 416 l 1,44,-1
 256 448 l 1,45,-1
 288 448 l 1,46,-1
 320 448 l 1,47,-1
 320 544 l 1,24,-1
EndSplineSet
EndChar

StartChar: one
Encoding: 49 49 51
Width: 512
Flags: W
LayerCount: 2
Fore
SplineSet
192 704 m 1,0,-1
 192 768 l 1,1,-1
 256 768 l 1,2,-1
 320 768 l 1,3,-1
 320 448 l 1,4,-1
 320 128 l 1,5,-1
 384 128 l 1,6,-1
 448 128 l 1,7,-1
 448 64 l 1,8,-1
 448 0 l 1,9,-1
 256 0 l 1,10,-1
 64 0 l 1,11,-1
 64 64 l 1,12,-1
 64 128 l 1,13,-1
 128 128 l 1,14,-1
 192 128 l 1,15,-1
 192 320 l 1,16,-1
 192 512 l 1,17,-1
 160 512 l 1,18,-1
 128 512 l 1,19,-1
 128 576 l 1,20,-1
 128 640 l 1,21,-1
 160 640 l 1,22,-1
 192 640 l 1,23,-1
 192 704 l 1,0,-1
EndSplineSet
EndChar

StartChar: two
Encoding: 50 50 52
Width: 512
Flags: W
LayerCount: 2
Fore
SplineSet
128 736 m 1,0,-1
 128 768 l 1,1,-1
 256 768 l 1,2,-1
 384 768 l 1,3,-1
 384 736 l 1,4,-1
 384 704 l 1,5,-1
 416 704 l 1,6,-1
 448 704 l 1,7,-1
 448 608 l 1,8,-1
 448 512 l 1,9,-1
 416 512 l 1,10,-1
 384 512 l 1,11,-1
 384 448 l 1,12,-1
 384 384 l 1,13,-1
 352 384 l 1,14,-1
 320 384 l 1,15,-1
 320 320 l 1,16,-1
 320 256 l 1,17,-1
 288 256 l 1,18,-1
 256 256 l 1,19,-1
 256 192 l 1,20,-1
 256 128 l 1,21,-1
 352 128 l 1,22,-1
 448 128 l 1,23,-1
 448 64 l 1,24,-1
 448 0 l 1,25,-1
 256 0 l 1,26,-1
 64 0 l 1,27,-1
 64 64 l 1,28,-1
 64 128 l 1,29,-1
 96 128 l 1,30,-1
 128 128 l 1,31,-1
 128 192 l 1,32,-1
 128 256 l 1,33,-1
 160 256 l 1,34,-1
 192 256 l 1,35,-1
 192 320 l 1,36,-1
 192 384 l 1,37,-1
 224 384 l 1,38,-1
 256 384 l 1,39,-1
 256 448 l 1,40,-1
 256 512 l 1,41,-1
 288 512 l 1,42,-1
 320 512 l 1,43,-1
 320 576 l 1,44,-1
 320 640 l 1,45,-1
 256 640 l 1,46,-1
 192 640 l 1,47,-1
 192 576 l 1,48,-1
 192 512 l 1,49,-1
 128 512 l 1,50,-1
 64 512 l 1,51,-1
 64 608 l 1,52,-1
 64 704 l 1,53,-1
 96 704 l 1,54,-1
 128 704 l 1,55,-1
 128 736 l 1,0,-1
EndSplineSet
EndChar

StartChar: three
Encoding: 51 51 53
Width: 512
Flags: W
LayerCount: 2
Fore
SplineSet
64 704 m 1,0,-1
 64 768 l 1,1,-1
 256 768 l 1,2,-1
 448 768 l 1,3,-1
 448 704 l 1,4,-1
 448 640 l 1,5,-1
 416 640 l 1,6,-1
 384 640 l 1,7,-1
 384 576 l 1,8,-1
 384 512 l 1,9,-1
 352 512 l 1,10,-1
 320 512 l 1,11,-1
 320 448 l 1,12,-1
 320 384 l 1,13,-1
 352 384 l 1,14,-1
 384 384 l 1,15,-1
 384 320 l 1,16,-1
 384 256 l 1,17,-1
 416 256 l 1,18,-1
 448 256 l 1,19,-1
 448 160 l 1,20,-1
 448 64 l 1,21,-1
 416 64 l 1,22,-1
 384 64 l 1,23,-1
 384 32 l 1,24,-1
 384 0 l 1,25,-1
 256 0 l 1,26,-1
 128 0 l 1,27,-1
 128 32 l 1,28,-1
 128 64 l 1,29,-1
 96 64 l 1,30,-1
 64 64 l 1,31,-1
 64 160 l 1,32,-1
 64 256 l 1,33,-1
 128 256 l 1,34,-1
 192 256 l 1,35,-1
 192 192 l 1,36,-1
 192 128 l 1,37,-1
 256 128 l 1,38,-1
 320 128 l 1,39,-1
 320 192 l 1,40,-1
 320 256 l 1,41,-1
 288 256 l 1,42,-1
 256 256 l 1,43,-1
 256 320 l 1,44,-1
 256 384 l 1,45,-1
 224 384 l 1,46,-1
 192 384 l 1,47,-1
 192 448 l 1,48,-1
 192 512 l 1,49,-1
 224 512 l 1,50,-1
 256 512 l 1,51,-1
 256 576 l 1,52,-1
 256 640 l 1,53,-1
 160 640 l 1,54,-1
 64 640 l 1,55,-1
 64 704 l 1,0,-1
EndSplineSet
EndChar

StartChar: four
Encoding: 52 52 54
Width: 512
Flags: W
LayerCount: 2
Fore
SplineSet
256 704 m 1,0,-1
 256 768 l 1,1,-1
 320 768 l 1,2,-1
 384 768 l 1,3,-1
 384 512 l 1,4,-1
 384 256 l 1,5,-1
 416 256 l 1,6,-1
 448 256 l 1,7,-1
 448 192 l 1,8,-1
 448 128 l 1,9,-1
 416 128 l 1,10,-1
 384 128 l 1,11,-1
 384 64 l 1,12,-1
 384 0 l 1,13,-1
 320 0 l 1,14,-1
 256 0 l 1,15,-1
 256 64 l 1,16,-1
 256 128 l 1,17,-1
 160 128 l 1,18,-1
 64 128 l 1,19,-1
 64 256 l 1,20,-1
 64 384 l 1,21,-1
 96 384 l 1,22,-1
 128 384 l 1,23,-1
 128 448 l 1,24,-1
 128 512 l 1,25,-1
 160 512 l 1,26,-1
 192 512 l 1,27,-1
 192 576 l 1,28,-1
 192 640 l 1,29,-1
 224 640 l 1,30,-1
 256 640 l 1,31,-1
 256 704 l 1,0,-1
256 320 m 1,32,-1
 256 384 l 1,33,-1
 224 384 l 1,34,-1
 192 384 l 1,35,-1
 192 320 l 1,36,-1
 192 256 l 1,37,-1
 224 256 l 1,38,-1
 256 256 l 1,39,-1
 256 320 l 1,32,-1
EndSplineSet
EndChar

StartChar: five
Encoding: 53 53 55
Width: 512
Flags: W
LayerCount: 2
Fore
SplineSet
64 576 m 1,0,-1
 64 768 l 1,1,-1
 256 768 l 1,2,-1
 448 768 l 1,3,-1
 448 704 l 1,4,-1
 448 640 l 1,5,-1
 320 640 l 1,6,-1
 192 640 l 1,7,-1
 192 576 l 1,8,-1
 192 512 l 1,9,-1
 288 512 l 1,10,-1
 384 512 l 1,11,-1
 384 480 l 1,12,-1
 384 448 l 1,13,-1
 416 448 l 1,14,-1
 448 448 l 1,15,-1
 448 256 l 1,16,-1
 448 64 l 1,17,-1
 416 64 l 1,18,-1
 384 64 l 1,19,-1
 384 32 l 1,20,-1
 384 0 l 1,21,-1
 256 0 l 1,22,-1
 128 0 l 1,23,-1
 128 32 l 1,24,-1
 128 64 l 1,25,-1
 96 64 l 1,26,-1
 64 64 l 1,27,-1
 64 128 l 1,28,-1
 64 192 l 1,29,-1
 128 192 l 1,30,-1
 192 192 l 1,31,-1
 192 160 l 1,32,-1
 192 128 l 1,33,-1
 256 128 l 1,34,-1
 320 128 l 1,35,-1
 320 256 l 1,36,-1
 320 384 l 1,37,-1
 192 384 l 1,38,-1
 64 384 l 1,39,-1
 64 576 l 1,0,-1
EndSplineSet
EndChar

StartChar: six
Encoding: 54 54 56
Width: 512
Flags: W
LayerCount: 2
Fore
SplineSet
192 736 m 1,0,-1
 192 768 l 1,1,-1
 288 768 l 1,2,-1
 384 768 l 1,3,-1
 384 704 l 1,4,-1
 384 640 l 1,5,-1
 320 640 l 1,6,-1
 256 640 l 1,7,-1
 256 608 l 1,8,-1
 256 576 l 1,9,-1
 224 576 l 1,10,-1
 192 576 l 1,11,-1
 192 512 l 1,12,-1
 192 448 l 1,13,-1
 288 448 l 1,14,-1
 384 448 l 1,15,-1
 384 416 l 1,16,-1
 384 384 l 1,17,-1
 416 384 l 1,18,-1
 448 384 l 1,19,-1
 448 224 l 1,20,-1
 448 64 l 1,21,-1
 416 64 l 1,22,-1
 384 64 l 1,23,-1
 384 32 l 1,24,-1
 384 0 l 1,25,-1
 256 0 l 1,26,-1
 128 0 l 1,27,-1
 128 32 l 1,28,-1
 128 64 l 1,29,-1
 96 64 l 1,30,-1
 64 64 l 1,31,-1
 64 352 l 1,32,-1
 64 640 l 1,33,-1
 96 640 l 1,34,-1
 128 640 l 1,35,-1
 128 672 l 1,36,-1
 128 704 l 1,37,-1
 160 704 l 1,38,-1
 192 704 l 1,39,-1
 192 736 l 1,0,-1
320 224 m 1,40,-1
 320 320 l 1,41,-1
 256 320 l 1,42,-1
 192 320 l 1,43,-1
 192 224 l 1,44,-1
 192 128 l 1,45,-1
 256 128 l 1,46,-1
 320 128 l 1,47,-1
 320 224 l 1,40,-1
EndSplineSet
EndChar

StartChar: seven
Encoding: 55 55 57
Width: 512
Flags: W
LayerCount: 2
Fore
SplineSet
64 704 m 1,0,-1
 64 768 l 1,1,-1
 256 768 l 1,2,-1
 448 768 l 1,3,-1
 448 640 l 1,4,-1
 448 512 l 1,5,-1
 416 512 l 1,6,-1
 384 512 l 1,7,-1
 384 448 l 1,8,-1
 384 384 l 1,9,-1
 352 384 l 1,10,-1
 320 384 l 1,11,-1
 320 320 l 1,12,-1
 320 256 l 1,13,-1
 288 256 l 1,14,-1
 256 256 l 1,15,-1
 256 128 l 1,16,-1
 256 0 l 1,17,-1
 192 0 l 1,18,-1
 128 0 l 1,19,-1
 128 128 l 1,20,-1
 128 256 l 1,21,-1
 160 256 l 1,22,-1
 192 256 l 1,23,-1
 192 320 l 1,24,-1
 192 384 l 1,25,-1
 224 384 l 1,26,-1
 256 384 l 1,27,-1
 256 448 l 1,28,-1
 256 512 l 1,29,-1
 288 512 l 1,30,-1
 320 512 l 1,31,-1
 320 576 l 1,32,-1
 320 640 l 1,33,-1
 192 640 l 1,34,-1
 64 640 l 1,35,-1
 64 704 l 1,0,-1
EndSplineSet
EndChar

StartChar: eight
Encoding: 56 56 58
Width: 512
Flags: W
LayerCount: 2
Fore
SplineSet
128 736 m 1,0,-1
 128 768 l 1,1,-1
 256 768 l 1,2,-1
 384 768 l 1,3,-1
 384 736 l 1,4,-1
 384 704 l 1,5,-1
 416 704 l 1,6,-1
 448 704 l 1,7,-1
 448 608 l 1,8,-1
 448 512 l 1,9,-1
 416 512 l 1,10,-1
 384 512 l 1,11,-1
 384 448 l 1,12,-1
 384 384 l 1,13,-1
 416 384 l 1,14,-1
 448 384 l 1,15,-1
 448 224 l 1,16,-1
 448 64 l 1,17,-1
 416 64 l 1,18,-1
 384 64 l 1,19,-1
 384 32 l 1,20,-1
 384 0 l 1,21,-1
 256 0 l 1,22,-1
 128 0 l 1,23,-1
 128 32 l 1,24,-1
 128 64 l 1,25,-1
 96 64 l 1,26,-1
 64 64 l 1,27,-1
 64 224 l 1,28,-1
 64 384 l 1,29,-1
 96 384 l 1,30,-1
 128 384 l 1,31,-1
 128 448 l 1,32,-1
 128 512 l 1,33,-1
 96 512 l 1,34,-1
 64 512 l 1,35,-1
 64 608 l 1,36,-1
 64 704 l 1,37,-1
 96 704 l 1,38,-1
 128 704 l 1,39,-1
 128 736 l 1,0,-1
320 576 m 1,40,-1
 320 640 l 1,41,-1
 256 640 l 1,42,-1
 192 640 l 1,43,-1
 192 576 l 1,44,-1
 192 512 l 1,45,-1
 256 512 l 1,46,-1
 320 512 l 1,47,-1
 320 576 l 1,40,-1
320 256 m 1,48,-1
 320 384 l 1,49,-1
 256 384 l 1,50,-1
 192 384 l 1,51,-1
 192 256 l 1,52,-1
 192 128 l 1,53,-1
 256 128 l 1,54,-1
 320 128 l 1,55,-1
 320 256 l 1,48,-1
EndSplineSet
EndChar

StartChar: nine
Encoding: 57 57 59
Width: 512
Flags: W
LayerCount: 2
Fore
SplineSet
128 736 m 1,0,-1
 128 768 l 1,1,-1
 256 768 l 1,2,-1
 384 768 l 1,3,-1
 384 736 l 1,4,-1
 384 704 l 1,5,-1
 416 704 l 1,6,-1
 448 704 l 1,7,-1
 448 416 l 1,8,-1
 448 128 l 1,9,-1
 416 128 l 1,10,-1
 384 128 l 1,11,-1
 384 96 l 1,12,-1
 384 64 l 1,13,-1
 352 64 l 1,14,-1
 320 64 l 1,15,-1
 320 32 l 1,16,-1
 320 0 l 1,17,-1
 224 0 l 1,18,-1
 128 0 l 1,19,-1
 128 64 l 1,20,-1
 128 128 l 1,21,-1
 192 128 l 1,22,-1
 256 128 l 1,23,-1
 256 160 l 1,24,-1
 256 192 l 1,25,-1
 288 192 l 1,26,-1
 320 192 l 1,27,-1
 320 288 l 1,28,-1
 320 384 l 1,29,-1
 224 384 l 1,30,-1
 128 384 l 1,31,-1
 128 416 l 1,32,-1
 128 448 l 1,33,-1
 96 448 l 1,34,-1
 64 448 l 1,35,-1
 64 576 l 1,36,-1
 64 704 l 1,37,-1
 96 704 l 1,38,-1
 128 704 l 1,39,-1
 128 736 l 1,0,-1
320 576 m 1,40,-1
 320 640 l 1,41,-1
 256 640 l 1,42,-1
 192 640 l 1,43,-1
 192 576 l 1,44,-1
 192 512 l 1,45,-1
 256 512 l 1,46,-1
 320 512 l 1,47,-1
 320 576 l 1,40,-1
EndSplineSet
EndChar

StartChar: colon
Encoding: 58 58 60
Width: 512
Flags: W
LayerCount: 2
Fore
SplineSet
192 128 m 1,0,-1
 192 256 l 1,1,-1
 256 256 l 1,2,-1
 320 256 l 1,3,-1
 320 128 l 1,4,-1
 320 0 l 1,5,-1
 256 0 l 1,6,-1
 192 0 l 1,7,-1
 192 128 l 1,0,-1
192 512 m 1,8,-1
 192 640 l 1,9,-1
 256 640 l 1,10,-1
 320 640 l 1,11,-1
 320 512 l 1,12,-1
 320 384 l 1,13,-1
 256 384 l 1,14,-1
 192 384 l 1,15,-1
 192 512 l 1,8,-1
EndSplineSet
EndChar

StartChar: semicolon
Encoding: 59 59 61
Width: 512
Flags: W
LayerCount: 2
Fore
SplineSet
192 128 m 1,0,-1
 192 256 l 1,1,-1
 256 256 l 1,2,-1
 320 256 l 1,3,-1
 320 128 l 1,4,-1
 320 0 l 1,5,-1
 288 0 l 1,6,-1
 256 0 l 1,7,-1
 256 -32 l 1,8,-1
 256 -64 l 1,9,-1
 224 -64 l 1,10,-1
 192 -64 l 1,11,-1
 192 -96 l 1,12,-1
 192 -128 l 1,13,-1
 160 -128 l 1,14,-1
 128 -128 l 1,15,-1
 128 -64 l 1,16,-1
 128 0 l 1,17,-1
 160 0 l 1,18,-1
 192 0 l 1,19,-1
 192 128 l 1,0,-1
192 512 m 1,20,-1
 192 640 l 1,21,-1
 256 640 l 1,22,-1
 320 640 l 1,23,-1
 320 512 l 1,24,-1
 320 384 l 1,25,-1
 256 384 l 1,26,-1
 192 384 l 1,27,-1
 192 512 l 1,20,-1
EndSplineSet
EndChar

StartChar: less
Encoding: 60 60 62
Width: 512
Flags: W
LayerCount: 2
Fore
SplineSet
256 672 m 1,0,-1
 256 704 l 1,1,-1
 352 704 l 1,2,-1
 448 704 l 1,3,-1
 448 672 l 1,4,-1
 448 640 l 1,5,-1
 416 640 l 1,6,-1
 384 640 l 1,7,-1
 384 608 l 1,8,-1
 384 576 l 1,9,-1
 352 576 l 1,10,-1
 320 576 l 1,11,-1
 320 544 l 1,12,-1
 320 512 l 1,13,-1
 288 512 l 1,14,-1
 256 512 l 1,15,-1
 256 480 l 1,16,-1
 256 448 l 1,17,-1
 224 448 l 1,18,-1
 192 448 l 1,19,-1
 192 416 l 1,20,-1
 192 384 l 1,21,-1
 224 384 l 1,22,-1
 256 384 l 1,23,-1
 256 352 l 1,24,-1
 256 320 l 1,25,-1
 288 320 l 1,26,-1
 320 320 l 1,27,-1
 320 288 l 1,28,-1
 320 256 l 1,29,-1
 352 256 l 1,30,-1
 384 256 l 1,31,-1
 384 224 l 1,32,-1
 384 192 l 1,33,-1
 416 192 l 1,34,-1
 448 192 l 1,35,-1
 448 160 l 1,36,-1
 448 128 l 1,37,-1
 352 128 l 1,38,-1
 256 128 l 1,39,-1
 256 160 l 1,40,-1
 256 192 l 1,41,-1
 224 192 l 1,42,-1
 192 192 l 1,43,-1
 192 224 l 1,44,-1
 192 256 l 1,45,-1
 160 256 l 1,46,-1
 128 256 l 1,47,-1
 128 288 l 1,48,-1
 128 320 l 1,49,-1
 96 320 l 1,50,-1
 64 320 l 1,51,-1
 64 352 l 1,52,-1
 64 384 l 1,53,-1
 32 384 l 1,54,-1
 0 384 l 1,55,-1
 0 416 l 1,56,-1
 0 448 l 1,57,-1
 32 448 l 1,58,-1
 64 448 l 1,59,-1
 64 480 l 1,60,-1
 64 512 l 1,61,-1
 96 512 l 1,62,-1
 128 512 l 1,63,-1
 128 544 l 1,64,-1
 128 576 l 1,65,-1
 160 576 l 1,66,-1
 192 576 l 1,67,-1
 192 608 l 1,68,-1
 192 640 l 1,69,-1
 224 640 l 1,70,-1
 256 640 l 1,71,-1
 256 672 l 1,0,-1
EndSplineSet
EndChar

StartChar: equal
Encoding: 61 61 63
Width: 512
Flags: W
LayerCount: 2
Fore
SplineSet
64 320 m 1,0,-1
 64 384 l 1,1,-1
 256 384 l 1,2,-1
 448 384 l 1,3,-1
 448 320 l 1,4,-1
 448 256 l 1,5,-1
 256 256 l 1,6,-1
 64 256 l 1,7,-1
 64 320 l 1,0,-1
64 576 m 1,8,-1
 64 640 l 1,9,-1
 256 640 l 1,10,-1
 448 640 l 1,11,-1
 448 576 l 1,12,-1
 448 512 l 1,13,-1
 256 512 l 1,14,-1
 64 512 l 1,15,-1
 64 576 l 1,8,-1
EndSplineSet
EndChar

StartChar: greater
Encoding: 62 62 64
Width: 512
Flags: W
LayerCount: 2
Fore
SplineSet
0 672 m 1,0,-1
 0 704 l 1,1,-1
 96 704 l 1,2,-1
 192 704 l 1,3,-1
 192 672 l 1,4,-1
 192 640 l 1,5,-1
 224 640 l 1,6,-1
 256 640 l 1,7,-1
 256 608 l 1,8,-1
 256 576 l 1,9,-1
 288 576 l 1,10,-1
 320 576 l 1,11,-1
 320 544 l 1,12,-1
 320 512 l 1,13,-1
 352 512 l 1,14,-1
 384 512 l 1,15,-1
 384 480 l 1,16,-1
 384 448 l 1,17,-1
 416 448 l 1,18,-1
 448 448 l 1,19,-1
 448 416 l 1,20,-1
 448 384 l 1,21,-1
 416 384 l 1,22,-1
 384 384 l 1,23,-1
 384 352 l 1,24,-1
 384 320 l 1,25,-1
 352 320 l 1,26,-1
 320 320 l 1,27,-1
 320 288 l 1,28,-1
 320 256 l 1,29,-1
 288 256 l 1,30,-1
 256 256 l 1,31,-1
 256 224 l 1,32,-1
 256 192 l 1,33,-1
 224 192 l 1,34,-1
 192 192 l 1,35,-1
 192 160 l 1,36,-1
 192 128 l 1,37,-1
 96 128 l 1,38,-1
 0 128 l 1,39,-1
 0 160 l 1,40,-1
 0 192 l 1,41,-1
 32 192 l 1,42,-1
 64 192 l 1,43,-1
 64 224 l 1,44,-1
 64 256 l 1,45,-1
 96 256 l 1,46,-1
 128 256 l 1,47,-1
 128 288 l 1,48,-1
 128 320 l 1,49,-1
 160 320 l 1,50,-1
 192 320 l 1,51,-1
 192 352 l 1,52,-1
 192 384 l 1,53,-1
 224 384 l 1,54,-1
 256 384 l 1,55,-1
 256 416 l 1,56,-1
 256 448 l 1,57,-1
 224 448 l 1,58,-1
 192 448 l 1,59,-1
 192 480 l 1,60,-1
 192 512 l 1,61,-1
 160 512 l 1,62,-1
 128 512 l 1,63,-1
 128 544 l 1,64,-1
 128 576 l 1,65,-1
 96 576 l 1,66,-1
 64 576 l 1,67,-1
 64 608 l 1,68,-1
 64 640 l 1,69,-1
 32 640 l 1,70,-1
 0 640 l 1,71,-1
 0 672 l 1,0,-1
EndSplineSet
EndChar

StartChar: question
Encoding: 63 63 65
Width: 512
Flags: W
LayerCount: 2
Fore
SplineSet
192 64 m 1,0,-1
 192 128 l 1,1,-1
 256 128 l 1,2,-1
 320 128 l 1,3,-1
 320 64 l 1,4,-1
 320 0 l 1,5,-1
 256 0 l 1,6,-1
 192 0 l 1,7,-1
 192 64 l 1,0,-1
128 736 m 1,8,-1
 128 768 l 1,9,-1
 256 768 l 1,10,-1
 384 768 l 1,11,-1
 384 736 l 1,12,-1
 384 704 l 1,13,-1
 416 704 l 1,14,-1
 448 704 l 1,15,-1
 448 608 l 1,16,-1
 448 512 l 1,17,-1
 416 512 l 1,18,-1
 384 512 l 1,19,-1
 384 448 l 1,20,-1
 384 384 l 1,21,-1
 352 384 l 1,22,-1
 320 384 l 1,23,-1
 320 288 l 1,24,-1
 320 192 l 1,25,-1
 256 192 l 1,26,-1
 192 192 l 1,27,-1
 192 288 l 1,28,-1
 192 384 l 1,29,-1
 224 384 l 1,30,-1
 256 384 l 1,31,-1
 256 448 l 1,32,-1
 256 512 l 1,33,-1
 288 512 l 1,34,-1
 320 512 l 1,35,-1
 320 576 l 1,36,-1
 320 640 l 1,37,-1
 256 640 l 1,38,-1
 192 640 l 1,39,-1
 192 576 l 1,40,-1
 192 512 l 1,41,-1
 128 512 l 1,42,-1
 64 512 l 1,43,-1
 64 608 l 1,44,-1
 64 704 l 1,45,-1
 96 704 l 1,46,-1
 128 704 l 1,47,-1
 128 736 l 1,8,-1
EndSplineSet
EndChar

StartChar: at
Encoding: 64 64 66
Width: 512
Flags: W
LayerCount: 2
Fore
SplineSet
128 736 m 1,0,-1
 128 768 l 1,1,-1
 224 768 l 1,2,-1
 320 768 l 1,3,-1
 320 736 l 1,4,-1
 320 704 l 1,5,-1
 352 704 l 1,6,-1
 384 704 l 1,7,-1
 384 672 l 1,8,-1
 384 640 l 1,9,-1
 416 640 l 1,10,-1
 448 640 l 1,11,-1
 448 480 l 1,12,-1
 448 320 l 1,13,-1
 416 320 l 1,14,-1
 384 320 l 1,15,-1
 384 288 l 1,16,-1
 384 256 l 1,17,-1
 288 256 l 1,18,-1
 192 256 l 1,19,-1
 192 384 l 1,20,-1
 192 512 l 1,21,-1
 256 512 l 1,22,-1
 320 512 l 1,23,-1
 320 480 l 1,24,-1
 320 448 l 1,25,-1
 352 448 l 1,26,-1
 384 448 l 1,27,-1
 384 512 l 1,28,-1
 384 576 l 1,29,-1
 352 576 l 1,30,-1
 320 576 l 1,31,-1
 320 608 l 1,32,-1
 320 640 l 1,33,-1
 256 640 l 1,34,-1
 192 640 l 1,35,-1
 192 608 l 1,36,-1
 192 576 l 1,37,-1
 160 576 l 1,38,-1
 128 576 l 1,39,-1
 128 384 l 1,40,-1
 128 192 l 1,41,-1
 160 192 l 1,42,-1
 192 192 l 1,43,-1
 192 160 l 1,44,-1
 192 128 l 1,45,-1
 288 128 l 1,46,-1
 384 128 l 1,47,-1
 384 160 l 1,48,-1
 384 192 l 1,49,-1
 416 192 l 1,50,-1
 448 192 l 1,51,-1
 448 128 l 1,52,-1
 448 64 l 1,53,-1
 416 64 l 1,54,-1
 384 64 l 1,55,-1
 384 32 l 1,56,-1
 384 0 l 1,57,-1
 256 0 l 1,58,-1
 128 0 l 1,59,-1
 128 32 l 1,60,-1
 128 64 l 1,61,-1
 96 64 l 1,62,-1
 64 64 l 1,63,-1
 64 96 l 1,64,-1
 64 128 l 1,65,-1
 32 128 l 1,66,-1
 0 128 l 1,67,-1
 0 384 l 1,68,-1
 0 640 l 1,69,-1
 32 640 l 1,70,-1
 64 640 l 1,71,-1
 64 672 l 1,72,-1
 64 704 l 1,73,-1
 96 704 l 1,74,-1
 128 704 l 1,75,-1
 128 736 l 1,0,-1
320 384 m 1,76,-1
 320 448 l 1,77,-1
 288 448 l 1,78,-1
 256 448 l 1,79,-1
 256 384 l 1,80,-1
 256 320 l 1,81,-1
 288 320 l 1,82,-1
 320 320 l 1,83,-1
 320 384 l 1,76,-1
EndSplineSet
EndChar

StartChar: A
Encoding: 65 65 67
Width: 512
Flags: W
LayerCount: 2
Fore
SplineSet
192 736 m 1,0,-1
 192 768 l 1,1,-1
 256 768 l 1,2,-1
 320 768 l 1,3,-1
 320 736 l 1,4,-1
 320 704 l 1,5,-1
 352 704 l 1,6,-1
 384 704 l 1,7,-1
 384 672 l 1,8,-1
 384 640 l 1,9,-1
 416 640 l 1,10,-1
 448 640 l 1,11,-1
 448 320 l 1,12,-1
 448 0 l 1,13,-1
 384 0 l 1,14,-1
 320 0 l 1,15,-1
 320 128 l 1,16,-1
 320 256 l 1,17,-1
 256 256 l 1,18,-1
 192 256 l 1,19,-1
 192 128 l 1,20,-1
 192 0 l 1,21,-1
 128 0 l 1,22,-1
 64 0 l 1,23,-1
 64 320 l 1,24,-1
 64 640 l 1,25,-1
 96 640 l 1,26,-1
 128 640 l 1,27,-1
 128 672 l 1,28,-1
 128 704 l 1,29,-1
 160 704 l 1,30,-1
 192 704 l 1,31,-1
 192 736 l 1,0,-1
320 480 m 1,32,-1
 320 576 l 1,33,-1
 256 576 l 1,34,-1
 192 576 l 1,35,-1
 192 480 l 1,36,-1
 192 384 l 1,37,-1
 256 384 l 1,38,-1
 320 384 l 1,39,-1
 320 480 l 1,32,-1
EndSplineSet
EndChar

StartChar: B
Encoding: 66 66 68
Width: 512
Flags: W
LayerCount: 2
Fore
SplineSet
64 384 m 1,0,-1
 64 768 l 1,1,-1
 224 768 l 1,2,-1
 384 768 l 1,3,-1
 384 736 l 1,4,-1
 384 704 l 1,5,-1
 416 704 l 1,6,-1
 448 704 l 1,7,-1
 448 576 l 1,8,-1
 448 448 l 1,9,-1
 416 448 l 1,10,-1
 384 448 l 1,11,-1
 384 416 l 1,12,-1
 384 384 l 1,13,-1
 416 384 l 1,14,-1
 448 384 l 1,15,-1
 448 224 l 1,16,-1
 448 64 l 1,17,-1
 416 64 l 1,18,-1
 384 64 l 1,19,-1
 384 32 l 1,20,-1
 384 0 l 1,21,-1
 224 0 l 1,22,-1
 64 0 l 1,23,-1
 64 384 l 1,0,-1
320 576 m 1,24,-1
 320 640 l 1,25,-1
 256 640 l 1,26,-1
 192 640 l 1,27,-1
 192 576 l 1,28,-1
 192 512 l 1,29,-1
 256 512 l 1,30,-1
 320 512 l 1,31,-1
 320 576 l 1,24,-1
320 256 m 1,32,-1
 320 384 l 1,33,-1
 256 384 l 1,34,-1
 192 384 l 1,35,-1
 192 256 l 1,36,-1
 192 128 l 1,37,-1
 256 128 l 1,38,-1
 320 128 l 1,39,-1
 320 256 l 1,32,-1
EndSplineSet
EndChar

StartChar: C
Encoding: 67 67 69
Width: 512
Flags: W
LayerCount: 2
Fore
SplineSet
128 736 m 1,0,-1
 128 768 l 1,1,-1
 256 768 l 1,2,-1
 384 768 l 1,3,-1
 384 736 l 1,4,-1
 384 704 l 1,5,-1
 416 704 l 1,6,-1
 448 704 l 1,7,-1
 448 608 l 1,8,-1
 448 512 l 1,9,-1
 384 512 l 1,10,-1
 320 512 l 1,11,-1
 320 576 l 1,12,-1
 320 640 l 1,13,-1
 256 640 l 1,14,-1
 192 640 l 1,15,-1
 192 384 l 1,16,-1
 192 128 l 1,17,-1
 256 128 l 1,18,-1
 320 128 l 1,19,-1
 320 192 l 1,20,-1
 320 256 l 1,21,-1
 384 256 l 1,22,-1
 448 256 l 1,23,-1
 448 160 l 1,24,-1
 448 64 l 1,25,-1
 416 64 l 1,26,-1
 384 64 l 1,27,-1
 384 32 l 1,28,-1
 384 0 l 1,29,-1
 256 0 l 1,30,-1
 128 0 l 1,31,-1
 128 32 l 1,32,-1
 128 64 l 1,33,-1
 96 64 l 1,34,-1
 64 64 l 1,35,-1
 64 384 l 1,36,-1
 64 704 l 1,37,-1
 96 704 l 1,38,-1
 128 704 l 1,39,-1
 128 736 l 1,0,-1
EndSplineSet
EndChar

StartChar: D
Encoding: 68 68 70
Width: 512
Flags: W
LayerCount: 2
Fore
SplineSet
64 384 m 1,0,-1
 64 768 l 1,1,-1
 192 768 l 1,2,-1
 320 768 l 1,3,-1
 320 736 l 1,4,-1
 320 704 l 1,5,-1
 352 704 l 1,6,-1
 384 704 l 1,7,-1
 384 672 l 1,8,-1
 384 640 l 1,9,-1
 416 640 l 1,10,-1
 448 640 l 1,11,-1
 448 384 l 1,12,-1
 448 128 l 1,13,-1
 416 128 l 1,14,-1
 384 128 l 1,15,-1
 384 96 l 1,16,-1
 384 64 l 1,17,-1
 352 64 l 1,18,-1
 320 64 l 1,19,-1
 320 32 l 1,20,-1
 320 0 l 1,21,-1
 192 0 l 1,22,-1
 64 0 l 1,23,-1
 64 384 l 1,0,-1
256 608 m 1,24,-1
 256 640 l 1,25,-1
 224 640 l 1,26,-1
 192 640 l 1,27,-1
 192 384 l 1,28,-1
 192 128 l 1,29,-1
 224 128 l 1,30,-1
 256 128 l 1,31,-1
 256 160 l 1,32,-1
 256 192 l 1,33,-1
 288 192 l 1,34,-1
 320 192 l 1,35,-1
 320 384 l 1,36,-1
 320 576 l 1,37,-1
 288 576 l 1,38,-1
 256 576 l 1,39,-1
 256 608 l 1,24,-1
EndSplineSet
EndChar

StartChar: E
Encoding: 69 69 71
Width: 512
Flags: W
LayerCount: 2
Fore
SplineSet
64 384 m 1,0,-1
 64 768 l 1,1,-1
 256 768 l 1,2,-1
 448 768 l 1,3,-1
 448 704 l 1,4,-1
 448 640 l 1,5,-1
 320 640 l 1,6,-1
 192 640 l 1,7,-1
 192 576 l 1,8,-1
 192 512 l 1,9,-1
 288 512 l 1,10,-1
 384 512 l 1,11,-1
 384 448 l 1,12,-1
 384 384 l 1,13,-1
 288 384 l 1,14,-1
 192 384 l 1,15,-1
 192 256 l 1,16,-1
 192 128 l 1,17,-1
 320 128 l 1,18,-1
 448 128 l 1,19,-1
 448 64 l 1,20,-1
 448 0 l 1,21,-1
 256 0 l 1,22,-1
 64 0 l 1,23,-1
 64 384 l 1,0,-1
EndSplineSet
EndChar

StartChar: F
Encoding: 70 70 72
Width: 512
Flags: W
LayerCount: 2
Fore
SplineSet
64 384 m 1,0,-1
 64 768 l 1,1,-1
 256 768 l 1,2,-1
 448 768 l 1,3,-1
 448 704 l 1,4,-1
 448 640 l 1,5,-1
 320 640 l 1,6,-1
 192 640 l 1,7,-1
 192 576 l 1,8,-1
 192 512 l 1,9,-1
 288 512 l 1,10,-1
 384 512 l 1,11,-1
 384 448 l 1,12,-1
 384 384 l 1,13,-1
 288 384 l 1,14,-1
 192 384 l 1,15,-1
 192 192 l 1,16,-1
 192 0 l 1,17,-1
 128 0 l 1,18,-1
 64 0 l 1,19,-1
 64 384 l 1,0,-1
EndSplineSet
EndChar

StartChar: G
Encoding: 71 71 73
Width: 512
Flags: W
LayerCount: 2
Fore
SplineSet
128 736 m 1,0,-1
 128 768 l 1,1,-1
 288 768 l 1,2,-1
 448 768 l 1,3,-1
 448 704 l 1,4,-1
 448 640 l 1,5,-1
 320 640 l 1,6,-1
 192 640 l 1,7,-1
 192 384 l 1,8,-1
 192 128 l 1,9,-1
 256 128 l 1,10,-1
 320 128 l 1,11,-1
 320 256 l 1,12,-1
 320 384 l 1,13,-1
 288 384 l 1,14,-1
 256 384 l 1,15,-1
 256 448 l 1,16,-1
 256 512 l 1,17,-1
 352 512 l 1,18,-1
 448 512 l 1,19,-1
 448 288 l 1,20,-1
 448 64 l 1,21,-1
 416 64 l 1,22,-1
 384 64 l 1,23,-1
 384 32 l 1,24,-1
 384 0 l 1,25,-1
 256 0 l 1,26,-1
 128 0 l 1,27,-1
 128 32 l 1,28,-1
 128 64 l 1,29,-1
 96 64 l 1,30,-1
 64 64 l 1,31,-1
 64 384 l 1,32,-1
 64 704 l 1,33,-1
 96 704 l 1,34,-1
 128 704 l 1,35,-1
 128 736 l 1,0,-1
EndSplineSet
EndChar

StartChar: H
Encoding: 72 72 74
Width: 512
Flags: W
LayerCount: 2
Fore
SplineSet
64 384 m 1,0,-1
 64 768 l 1,1,-1
 128 768 l 1,2,-1
 192 768 l 1,3,-1
 192 640 l 1,4,-1
 192 512 l 1,5,-1
 256 512 l 1,6,-1
 320 512 l 1,7,-1
 320 640 l 1,8,-1
 320 768 l 1,9,-1
 384 768 l 1,10,-1
 448 768 l 1,11,-1
 448 384 l 1,12,-1
 448 0 l 1,13,-1
 384 0 l 1,14,-1
 320 0 l 1,15,-1
 320 192 l 1,16,-1
 320 384 l 1,17,-1
 256 384 l 1,18,-1
 192 384 l 1,19,-1
 192 192 l 1,20,-1
 192 0 l 1,21,-1
 128 0 l 1,22,-1
 64 0 l 1,23,-1
 64 384 l 1,0,-1
EndSplineSet
EndChar

StartChar: I
Encoding: 73 73 75
Width: 512
Flags: W
LayerCount: 2
Fore
SplineSet
64 704 m 1,0,-1
 64 768 l 1,1,-1
 256 768 l 1,2,-1
 448 768 l 1,3,-1
 448 704 l 1,4,-1
 448 640 l 1,5,-1
 384 640 l 1,6,-1
 320 640 l 1,7,-1
 320 384 l 1,8,-1
 320 128 l 1,9,-1
 384 128 l 1,10,-1
 448 128 l 1,11,-1
 448 64 l 1,12,-1
 448 0 l 1,13,-1
 256 0 l 1,14,-1
 64 0 l 1,15,-1
 64 64 l 1,16,-1
 64 128 l 1,17,-1
 128 128 l 1,18,-1
 192 128 l 1,19,-1
 192 384 l 1,20,-1
 192 640 l 1,21,-1
 128 640 l 1,22,-1
 64 640 l 1,23,-1
 64 704 l 1,0,-1
EndSplineSet
EndChar

StartChar: J
Encoding: 74 74 76
Width: 512
Flags: W
LayerCount: 2
Fore
SplineSet
320 448 m 1,0,-1
 320 768 l 1,1,-1
 384 768 l 1,2,-1
 448 768 l 1,3,-1
 448 416 l 1,4,-1
 448 64 l 1,5,-1
 416 64 l 1,6,-1
 384 64 l 1,7,-1
 384 32 l 1,8,-1
 384 0 l 1,9,-1
 256 0 l 1,10,-1
 128 0 l 1,11,-1
 128 32 l 1,12,-1
 128 64 l 1,13,-1
 96 64 l 1,14,-1
 64 64 l 1,15,-1
 64 160 l 1,16,-1
 64 256 l 1,17,-1
 128 256 l 1,18,-1
 192 256 l 1,19,-1
 192 192 l 1,20,-1
 192 128 l 1,21,-1
 256 128 l 1,22,-1
 320 128 l 1,23,-1
 320 448 l 1,0,-1
EndSplineSet
EndChar

StartChar: K
Encoding: 75 75 77
Width: 512
Flags: W
LayerCount: 2
Fore
SplineSet
0 384 m 1,0,-1
 0 768 l 1,1,-1
 64 768 l 1,2,-1
 128 768 l 1,3,-1
 128 640 l 1,4,-1
 128 512 l 1,5,-1
 160 512 l 1,6,-1
 192 512 l 1,7,-1
 192 576 l 1,8,-1
 192 640 l 1,9,-1
 224 640 l 1,10,-1
 256 640 l 1,11,-1
 256 704 l 1,12,-1
 256 768 l 1,13,-1
 320 768 l 1,14,-1
 384 768 l 1,15,-1
 384 704 l 1,16,-1
 384 640 l 1,17,-1
 352 640 l 1,18,-1
 320 640 l 1,19,-1
 320 576 l 1,20,-1
 320 512 l 1,21,-1
 288 512 l 1,22,-1
 256 512 l 1,23,-1
 256 448 l 1,24,-1
 256 384 l 1,25,-1
 288 384 l 1,26,-1
 320 384 l 1,27,-1
 320 320 l 1,28,-1
 320 256 l 1,29,-1
 352 256 l 1,30,-1
 384 256 l 1,31,-1
 384 192 l 1,32,-1
 384 128 l 1,33,-1
 416 128 l 1,34,-1
 448 128 l 1,35,-1
 448 64 l 1,36,-1
 448 0 l 1,37,-1
 384 0 l 1,38,-1
 320 0 l 1,39,-1
 320 64 l 1,40,-1
 320 128 l 1,41,-1
 288 128 l 1,42,-1
 256 128 l 1,43,-1
 256 192 l 1,44,-1
 256 256 l 1,45,-1
 224 256 l 1,46,-1
 192 256 l 1,47,-1
 192 320 l 1,48,-1
 192 384 l 1,49,-1
 160 384 l 1,50,-1
 128 384 l 1,51,-1
 128 192 l 1,52,-1
 128 0 l 1,53,-1
 64 0 l 1,54,-1
 0 0 l 1,55,-1
 0 384 l 1,0,-1
EndSplineSet
EndChar

StartChar: L
Encoding: 76 76 78
Width: 512
Flags: W
LayerCount: 2
Fore
SplineSet
64 384 m 1,0,-1
 64 768 l 1,1,-1
 128 768 l 1,2,-1
 192 768 l 1,3,-1
 192 448 l 1,4,-1
 192 128 l 1,5,-1
 320 128 l 1,6,-1
 448 128 l 1,7,-1
 448 64 l 1,8,-1
 448 0 l 1,9,-1
 256 0 l 1,10,-1
 64 0 l 1,11,-1
 64 384 l 1,0,-1
EndSplineSet
EndChar

StartChar: M
Encoding: 77 77 79
Width: 512
Flags: W
LayerCount: 2
Fore
SplineSet
0 384 m 1,0,-1
 0 768 l 1,1,-1
 64 768 l 1,2,-1
 128 768 l 1,3,-1
 128 704 l 1,4,-1
 128 640 l 1,5,-1
 160 640 l 1,6,-1
 192 640 l 1,7,-1
 192 576 l 1,8,-1
 192 512 l 1,9,-1
 224 512 l 1,10,-1
 256 512 l 1,11,-1
 256 576 l 1,12,-1
 256 640 l 1,13,-1
 288 640 l 1,14,-1
 320 640 l 1,15,-1
 320 704 l 1,16,-1
 320 768 l 1,17,-1
 384 768 l 1,18,-1
 448 768 l 1,19,-1
 448 384 l 1,20,-1
 448 0 l 1,21,-1
 384 0 l 1,22,-1
 320 0 l 1,23,-1
 320 224 l 1,24,-1
 320 448 l 1,25,-1
 288 448 l 1,26,-1
 256 448 l 1,27,-1
 256 384 l 1,28,-1
 256 320 l 1,29,-1
 224 320 l 1,30,-1
 192 320 l 1,31,-1
 192 384 l 1,32,-1
 192 448 l 1,33,-1
 160 448 l 1,34,-1
 128 448 l 1,35,-1
 128 224 l 1,36,-1
 128 0 l 1,37,-1
 64 0 l 1,38,-1
 0 0 l 1,39,-1
 0 384 l 1,0,-1
EndSplineSet
EndChar

StartChar: N
Encoding: 78 78 80
Width: 512
Flags: W
LayerCount: 2
Fore
SplineSet
64 384 m 1,0,-1
 64 768 l 1,1,-1
 128 768 l 1,2,-1
 192 768 l 1,3,-1
 192 672 l 1,4,-1
 192 576 l 1,5,-1
 224 576 l 1,6,-1
 256 576 l 1,7,-1
 256 512 l 1,8,-1
 256 448 l 1,9,-1
 288 448 l 1,10,-1
 320 448 l 1,11,-1
 320 608 l 1,12,-1
 320 768 l 1,13,-1
 384 768 l 1,14,-1
 448 768 l 1,15,-1
 448 384 l 1,16,-1
 448 0 l 1,17,-1
 384 0 l 1,18,-1
 320 0 l 1,19,-1
 320 96 l 1,20,-1
 320 192 l 1,21,-1
 288 192 l 1,22,-1
 256 192 l 1,23,-1
 256 256 l 1,24,-1
 256 320 l 1,25,-1
 224 320 l 1,26,-1
 192 320 l 1,27,-1
 192 160 l 1,28,-1
 192 0 l 1,29,-1
 128 0 l 1,30,-1
 64 0 l 1,31,-1
 64 384 l 1,0,-1
EndSplineSet
EndChar

StartChar: O
Encoding: 79 79 81
Width: 512
Flags: W
LayerCount: 2
Fore
SplineSet
128 736 m 1,0,-1
 128 768 l 1,1,-1
 256 768 l 1,2,-1
 384 768 l 1,3,-1
 384 736 l 1,4,-1
 384 704 l 1,5,-1
 416 704 l 1,6,-1
 448 704 l 1,7,-1
 448 384 l 1,8,-1
 448 64 l 1,9,-1
 416 64 l 1,10,-1
 384 64 l 1,11,-1
 384 32 l 1,12,-1
 384 0 l 1,13,-1
 256 0 l 1,14,-1
 128 0 l 1,15,-1
 128 32 l 1,16,-1
 128 64 l 1,17,-1
 96 64 l 1,18,-1
 64 64 l 1,19,-1
 64 384 l 1,20,-1
 64 704 l 1,21,-1
 96 704 l 1,22,-1
 128 704 l 1,23,-1
 128 736 l 1,0,-1
320 384 m 1,24,-1
 320 640 l 1,25,-1
 256 640 l 1,26,-1
 192 640 l 1,27,-1
 192 384 l 1,28,-1
 192 128 l 1,29,-1
 256 128 l 1,30,-1
 320 128 l 1,31,-1
 320 384 l 1,24,-1
EndSplineSet
EndChar

StartChar: P
Encoding: 80 80 82
Width: 512
Flags: W
LayerCount: 2
Fore
SplineSet
64 384 m 1,0,-1
 64 768 l 1,1,-1
 224 768 l 1,2,-1
 384 768 l 1,3,-1
 384 736 l 1,4,-1
 384 704 l 1,5,-1
 416 704 l 1,6,-1
 448 704 l 1,7,-1
 448 512 l 1,8,-1
 448 320 l 1,9,-1
 416 320 l 1,10,-1
 384 320 l 1,11,-1
 384 288 l 1,12,-1
 384 256 l 1,13,-1
 288 256 l 1,14,-1
 192 256 l 1,15,-1
 192 128 l 1,16,-1
 192 0 l 1,17,-1
 128 0 l 1,18,-1
 64 0 l 1,19,-1
 64 384 l 1,0,-1
320 512 m 1,20,-1
 320 640 l 1,21,-1
 256 640 l 1,22,-1
 192 640 l 1,23,-1
 192 512 l 1,24,-1
 192 384 l 1,25,-1
 256 384 l 1,26,-1
 320 384 l 1,27,-1
 320 512 l 1,20,-1
EndSplineSet
EndChar

StartChar: Q
Encoding: 81 81 83
Width: 512
Flags: W
LayerCount: 2
Fore
SplineSet
128 736 m 1,0,-1
 128 768 l 1,1,-1
 256 768 l 1,2,-1
 384 768 l 1,3,-1
 384 736 l 1,4,-1
 384 704 l 1,5,-1
 416 704 l 1,6,-1
 448 704 l 1,7,-1
 448 416 l 1,8,-1
 448 128 l 1,9,-1
 416 128 l 1,10,-1
 384 128 l 1,11,-1
 384 96 l 1,12,-1
 384 64 l 1,13,-1
 416 64 l 1,14,-1
 448 64 l 1,15,-1
 448 32 l 1,16,-1
 448 0 l 1,17,-1
 384 0 l 1,18,-1
 320 0 l 1,19,-1
 320 32 l 1,20,-1
 320 64 l 1,21,-1
 288 64 l 1,22,-1
 256 64 l 1,23,-1
 256 32 l 1,24,-1
 256 0 l 1,25,-1
 192 0 l 1,26,-1
 128 0 l 1,27,-1
 128 32 l 1,28,-1
 128 64 l 1,29,-1
 96 64 l 1,30,-1
 64 64 l 1,31,-1
 64 384 l 1,32,-1
 64 704 l 1,33,-1
 96 704 l 1,34,-1
 128 704 l 1,35,-1
 128 736 l 1,0,-1
320 416 m 1,36,-1
 320 640 l 1,37,-1
 256 640 l 1,38,-1
 192 640 l 1,39,-1
 192 384 l 1,40,-1
 192 128 l 1,41,-1
 224 128 l 1,42,-1
 256 128 l 1,43,-1
 256 160 l 1,44,-1
 256 192 l 1,45,-1
 288 192 l 1,46,-1
 320 192 l 1,47,-1
 320 160 l 1,48,-1
 320 128 l 1,49,-1
 352 128 l 1,50,-1
 384 128 l 1,51,-1
 384 160 l 1,52,-1
 384 192 l 1,53,-1
 352 192 l 1,54,-1
 320 192 l 1,55,-1
 320 416 l 1,36,-1
EndSplineSet
EndChar

StartChar: R
Encoding: 82 82 84
Width: 512
Flags: W
LayerCount: 2
Fore
SplineSet
0 384 m 1,0,-1
 0 768 l 1,1,-1
 160 768 l 1,2,-1
 320 768 l 1,3,-1
 320 736 l 1,4,-1
 320 704 l 1,5,-1
 352 704 l 1,6,-1
 384 704 l 1,7,-1
 384 544 l 1,8,-1
 384 384 l 1,9,-1
 352 384 l 1,10,-1
 320 384 l 1,11,-1
 320 320 l 1,12,-1
 320 256 l 1,13,-1
 352 256 l 1,14,-1
 384 256 l 1,15,-1
 384 192 l 1,16,-1
 384 128 l 1,17,-1
 416 128 l 1,18,-1
 448 128 l 1,19,-1
 448 64 l 1,20,-1
 448 0 l 1,21,-1
 384 0 l 1,22,-1
 320 0 l 1,23,-1
 320 64 l 1,24,-1
 320 128 l 1,25,-1
 288 128 l 1,26,-1
 256 128 l 1,27,-1
 256 192 l 1,28,-1
 256 256 l 1,29,-1
 224 256 l 1,30,-1
 192 256 l 1,31,-1
 192 288 l 1,32,-1
 192 320 l 1,33,-1
 160 320 l 1,34,-1
 128 320 l 1,35,-1
 128 160 l 1,36,-1
 128 0 l 1,37,-1
 64 0 l 1,38,-1
 0 0 l 1,39,-1
 0 384 l 1,0,-1
256 544 m 1,40,-1
 256 640 l 1,41,-1
 192 640 l 1,42,-1
 128 640 l 1,43,-1
 128 544 l 1,44,-1
 128 448 l 1,45,-1
 192 448 l 1,46,-1
 256 448 l 1,47,-1
 256 544 l 1,40,-1
EndSplineSet
EndChar

StartChar: S
Encoding: 83 83 85
Width: 512
Flags: W
LayerCount: 2
Fore
SplineSet
128 736 m 1,0,-1
 128 768 l 1,1,-1
 288 768 l 1,2,-1
 448 768 l 1,3,-1
 448 704 l 1,4,-1
 448 640 l 1,5,-1
 320 640 l 1,6,-1
 192 640 l 1,7,-1
 192 576 l 1,8,-1
 192 512 l 1,9,-1
 224 512 l 1,10,-1
 256 512 l 1,11,-1
 256 480 l 1,12,-1
 256 448 l 1,13,-1
 288 448 l 1,14,-1
 320 448 l 1,15,-1
 320 416 l 1,16,-1
 320 384 l 1,17,-1
 352 384 l 1,18,-1
 384 384 l 1,19,-1
 384 352 l 1,20,-1
 384 320 l 1,21,-1
 416 320 l 1,22,-1
 448 320 l 1,23,-1
 448 192 l 1,24,-1
 448 64 l 1,25,-1
 416 64 l 1,26,-1
 384 64 l 1,27,-1
 384 32 l 1,28,-1
 384 0 l 1,29,-1
 224 0 l 1,30,-1
 64 0 l 1,31,-1
 64 64 l 1,32,-1
 64 128 l 1,33,-1
 192 128 l 1,34,-1
 320 128 l 1,35,-1
 320 192 l 1,36,-1
 320 256 l 1,37,-1
 288 256 l 1,38,-1
 256 256 l 1,39,-1
 256 288 l 1,40,-1
 256 320 l 1,41,-1
 224 320 l 1,42,-1
 192 320 l 1,43,-1
 192 352 l 1,44,-1
 192 384 l 1,45,-1
 160 384 l 1,46,-1
 128 384 l 1,47,-1
 128 416 l 1,48,-1
 128 448 l 1,49,-1
 96 448 l 1,50,-1
 64 448 l 1,51,-1
 64 576 l 1,52,-1
 64 704 l 1,53,-1
 96 704 l 1,54,-1
 128 704 l 1,55,-1
 128 736 l 1,0,-1
EndSplineSet
EndChar

StartChar: T
Encoding: 84 84 86
Width: 512
Flags: W
LayerCount: 2
Fore
SplineSet
64 704 m 1,0,-1
 64 768 l 1,1,-1
 256 768 l 1,2,-1
 448 768 l 1,3,-1
 448 704 l 1,4,-1
 448 640 l 1,5,-1
 384 640 l 1,6,-1
 320 640 l 1,7,-1
 320 320 l 1,8,-1
 320 0 l 1,9,-1
 256 0 l 1,10,-1
 192 0 l 1,11,-1
 192 320 l 1,12,-1
 192 640 l 1,13,-1
 128 640 l 1,14,-1
 64 640 l 1,15,-1
 64 704 l 1,0,-1
EndSplineSet
EndChar

StartChar: U
Encoding: 85 85 87
Width: 512
Flags: W
LayerCount: 2
Fore
SplineSet
64 416 m 1,0,-1
 64 768 l 1,1,-1
 128 768 l 1,2,-1
 192 768 l 1,3,-1
 192 448 l 1,4,-1
 192 128 l 1,5,-1
 256 128 l 1,6,-1
 320 128 l 1,7,-1
 320 448 l 1,8,-1
 320 768 l 1,9,-1
 384 768 l 1,10,-1
 448 768 l 1,11,-1
 448 416 l 1,12,-1
 448 64 l 1,13,-1
 416 64 l 1,14,-1
 384 64 l 1,15,-1
 384 32 l 1,16,-1
 384 0 l 1,17,-1
 256 0 l 1,18,-1
 128 0 l 1,19,-1
 128 32 l 1,20,-1
 128 64 l 1,21,-1
 96 64 l 1,22,-1
 64 64 l 1,23,-1
 64 416 l 1,0,-1
EndSplineSet
EndChar

StartChar: V
Encoding: 86 86 88
Width: 512
Flags: W
LayerCount: 2
Fore
SplineSet
64 512 m 1,0,-1
 64 768 l 1,1,-1
 128 768 l 1,2,-1
 192 768 l 1,3,-1
 192 512 l 1,4,-1
 192 256 l 1,5,-1
 256 256 l 1,6,-1
 320 256 l 1,7,-1
 320 512 l 1,8,-1
 320 768 l 1,9,-1
 384 768 l 1,10,-1
 448 768 l 1,11,-1
 448 512 l 1,12,-1
 448 256 l 1,13,-1
 416 256 l 1,14,-1
 384 256 l 1,15,-1
 384 192 l 1,16,-1
 384 128 l 1,17,-1
 352 128 l 1,18,-1
 320 128 l 1,19,-1
 320 64 l 1,20,-1
 320 0 l 1,21,-1
 256 0 l 1,22,-1
 192 0 l 1,23,-1
 192 64 l 1,24,-1
 192 128 l 1,25,-1
 160 128 l 1,26,-1
 128 128 l 1,27,-1
 128 192 l 1,28,-1
 128 256 l 1,29,-1
 96 256 l 1,30,-1
 64 256 l 1,31,-1
 64 512 l 1,0,-1
EndSplineSet
EndChar

StartChar: W
Encoding: 87 87 89
Width: 512
Flags: W
LayerCount: 2
Fore
SplineSet
0 384 m 1,0,-1
 0 768 l 1,1,-1
 64 768 l 1,2,-1
 128 768 l 1,3,-1
 128 544 l 1,4,-1
 128 320 l 1,5,-1
 160 320 l 1,6,-1
 192 320 l 1,7,-1
 192 384 l 1,8,-1
 192 448 l 1,9,-1
 224 448 l 1,10,-1
 256 448 l 1,11,-1
 256 384 l 1,12,-1
 256 320 l 1,13,-1
 288 320 l 1,14,-1
 320 320 l 1,15,-1
 320 544 l 1,16,-1
 320 768 l 1,17,-1
 384 768 l 1,18,-1
 448 768 l 1,19,-1
 448 384 l 1,20,-1
 448 0 l 1,21,-1
 416 0 l 1,22,-1
 384 0 l 1,23,-1
 384 32 l 1,24,-1
 384 64 l 1,25,-1
 352 64 l 1,26,-1
 320 64 l 1,27,-1
 320 96 l 1,28,-1
 320 128 l 1,29,-1
 288 128 l 1,30,-1
 256 128 l 1,31,-1
 256 160 l 1,32,-1
 256 192 l 1,33,-1
 224 192 l 1,34,-1
 192 192 l 1,35,-1
 192 160 l 1,36,-1
 192 128 l 1,37,-1
 160 128 l 1,38,-1
 128 128 l 1,39,-1
 128 96 l 1,40,-1
 128 64 l 1,41,-1
 96 64 l 1,42,-1
 64 64 l 1,43,-1
 64 32 l 1,44,-1
 64 0 l 1,45,-1
 32 0 l 1,46,-1
 0 0 l 1,47,-1
 0 384 l 1,0,-1
EndSplineSet
EndChar

StartChar: X
Encoding: 88 88 90
Width: 512
Flags: W
LayerCount: 2
Fore
SplineSet
64 672 m 1,0,-1
 64 768 l 1,1,-1
 128 768 l 1,2,-1
 192 768 l 1,3,-1
 192 672 l 1,4,-1
 192 576 l 1,5,-1
 256 576 l 1,6,-1
 320 576 l 1,7,-1
 320 672 l 1,8,-1
 320 768 l 1,9,-1
 384 768 l 1,10,-1
 448 768 l 1,11,-1
 448 672 l 1,12,-1
 448 576 l 1,13,-1
 416 576 l 1,14,-1
 384 576 l 1,15,-1
 384 512 l 1,16,-1
 384 448 l 1,17,-1
 352 448 l 1,18,-1
 320 448 l 1,19,-1
 320 384 l 1,20,-1
 320 320 l 1,21,-1
 352 320 l 1,22,-1
 384 320 l 1,23,-1
 384 256 l 1,24,-1
 384 192 l 1,25,-1
 416 192 l 1,26,-1
 448 192 l 1,27,-1
 448 96 l 1,28,-1
 448 0 l 1,29,-1
 384 0 l 1,30,-1
 320 0 l 1,31,-1
 320 96 l 1,32,-1
 320 192 l 1,33,-1
 256 192 l 1,34,-1
 192 192 l 1,35,-1
 192 96 l 1,36,-1
 192 0 l 1,37,-1
 128 0 l 1,38,-1
 64 0 l 1,39,-1
 64 96 l 1,40,-1
 64 192 l 1,41,-1
 96 192 l 1,42,-1
 128 192 l 1,43,-1
 128 256 l 1,44,-1
 128 320 l 1,45,-1
 160 320 l 1,46,-1
 192 320 l 1,47,-1
 192 384 l 1,48,-1
 192 448 l 1,49,-1
 160 448 l 1,50,-1
 128 448 l 1,51,-1
 128 512 l 1,52,-1
 128 576 l 1,53,-1
 96 576 l 1,54,-1
 64 576 l 1,55,-1
 64 672 l 1,0,-1
EndSplineSet
EndChar

StartChar: Y
Encoding: 89 89 91
Width: 512
Flags: W
LayerCount: 2
Fore
SplineSet
64 640 m 1,0,-1
 64 768 l 1,1,-1
 128 768 l 1,2,-1
 192 768 l 1,3,-1
 192 640 l 1,4,-1
 192 512 l 1,5,-1
 256 512 l 1,6,-1
 320 512 l 1,7,-1
 320 640 l 1,8,-1
 320 768 l 1,9,-1
 384 768 l 1,10,-1
 448 768 l 1,11,-1
 448 640 l 1,12,-1
 448 512 l 1,13,-1
 416 512 l 1,14,-1
 384 512 l 1,15,-1
 384 448 l 1,16,-1
 384 384 l 1,17,-1
 352 384 l 1,18,-1
 320 384 l 1,19,-1
 320 192 l 1,20,-1
 320 0 l 1,21,-1
 256 0 l 1,22,-1
 192 0 l 1,23,-1
 192 192 l 1,24,-1
 192 384 l 1,25,-1
 160 384 l 1,26,-1
 128 384 l 1,27,-1
 128 448 l 1,28,-1
 128 512 l 1,29,-1
 96 512 l 1,30,-1
 64 512 l 1,31,-1
 64 640 l 1,0,-1
EndSplineSet
EndChar

StartChar: Z
Encoding: 90 90 92
Width: 512
Flags: W
LayerCount: 2
Fore
SplineSet
64 704 m 1,0,-1
 64 768 l 1,1,-1
 256 768 l 1,2,-1
 448 768 l 1,3,-1
 448 704 l 1,4,-1
 448 640 l 1,5,-1
 416 640 l 1,6,-1
 384 640 l 1,7,-1
 384 576 l 1,8,-1
 384 512 l 1,9,-1
 352 512 l 1,10,-1
 320 512 l 1,11,-1
 320 448 l 1,12,-1
 320 384 l 1,13,-1
 288 384 l 1,14,-1
 256 384 l 1,15,-1
 256 320 l 1,16,-1
 256 256 l 1,17,-1
 224 256 l 1,18,-1
 192 256 l 1,19,-1
 192 192 l 1,20,-1
 192 128 l 1,21,-1
 320 128 l 1,22,-1
 448 128 l 1,23,-1
 448 64 l 1,24,-1
 448 0 l 1,25,-1
 256 0 l 1,26,-1
 64 0 l 1,27,-1
 64 128 l 1,28,-1
 64 256 l 1,29,-1
 96 256 l 1,30,-1
 128 256 l 1,31,-1
 128 320 l 1,32,-1
 128 384 l 1,33,-1
 160 384 l 1,34,-1
 192 384 l 1,35,-1
 192 448 l 1,36,-1
 192 512 l 1,37,-1
 224 512 l 1,38,-1
 256 512 l 1,39,-1
 256 576 l 1,40,-1
 256 640 l 1,41,-1
 160 640 l 1,42,-1
 64 640 l 1,43,-1
 64 704 l 1,0,-1
EndSplineSet
EndChar

StartChar: bracketleft
Encoding: 91 91 93
Width: 512
Flags: W
LayerCount: 2
Fore
SplineSet
192 384 m 1,0,-1
 192 768 l 1,1,-1
 320 768 l 1,2,-1
 448 768 l 1,3,-1
 448 704 l 1,4,-1
 448 640 l 1,5,-1
 384 640 l 1,6,-1
 320 640 l 1,7,-1
 320 384 l 1,8,-1
 320 128 l 1,9,-1
 384 128 l 1,10,-1
 448 128 l 1,11,-1
 448 64 l 1,12,-1
 448 0 l 1,13,-1
 320 0 l 1,14,-1
 192 0 l 1,15,-1
 192 384 l 1,0,-1
EndSplineSet
EndChar

StartChar: backslash
Encoding: 92 92 94
Width: 512
Flags: W
LayerCount: 2
Fore
SplineSet
64 672 m 1,0,-1
 64 768 l 1,1,-1
 128 768 l 1,2,-1
 192 768 l 1,3,-1
 192 672 l 1,4,-1
 192 576 l 1,5,-1
 224 576 l 1,6,-1
 256 576 l 1,7,-1
 256 512 l 1,8,-1
 256 448 l 1,9,-1
 288 448 l 1,10,-1
 320 448 l 1,11,-1
 320 384 l 1,12,-1
 320 320 l 1,13,-1
 352 320 l 1,14,-1
 384 320 l 1,15,-1
 384 256 l 1,16,-1
 384 192 l 1,17,-1
 416 192 l 1,18,-1
 448 192 l 1,19,-1
 448 96 l 1,20,-1
 448 0 l 1,21,-1
 384 0 l 1,22,-1
 320 0 l 1,23,-1
 320 96 l 1,24,-1
 320 192 l 1,25,-1
 288 192 l 1,26,-1
 256 192 l 1,27,-1
 256 256 l 1,28,-1
 256 320 l 1,29,-1
 224 320 l 1,30,-1
 192 320 l 1,31,-1
 192 384 l 1,32,-1
 192 448 l 1,33,-1
 160 448 l 1,34,-1
 128 448 l 1,35,-1
 128 512 l 1,36,-1
 128 576 l 1,37,-1
 96 576 l 1,38,-1
 64 576 l 1,39,-1
 64 672 l 1,0,-1
EndSplineSet
EndChar

StartChar: bracketright
Encoding: 93 93 95
Width: 512
Flags: W
LayerCount: 2
Fore
SplineSet
64 704 m 1,0,-1
 64 768 l 1,1,-1
 192 768 l 1,2,-1
 320 768 l 1,3,-1
 320 384 l 1,4,-1
 320 0 l 1,5,-1
 192 0 l 1,6,-1
 64 0 l 1,7,-1
 64 64 l 1,8,-1
 64 128 l 1,9,-1
 128 128 l 1,10,-1
 192 128 l 1,11,-1
 192 384 l 1,12,-1
 192 640 l 1,13,-1
 128 640 l 1,14,-1
 64 640 l 1,15,-1
 64 704 l 1,0,-1
EndSplineSet
EndChar

StartChar: asciicircum
Encoding: 94 94 96
Width: 512
Flags: W
LayerCount: 2
Fore
SplineSet
192 768 m 1,0,-1
 192 832 l 1,1,-1
 224 832 l 1,2,-1
 256 832 l 1,3,-1
 256 768 l 1,4,-1
 256 704 l 1,5,-1
 288 704 l 1,6,-1
 320 704 l 1,7,-1
 320 640 l 1,8,-1
 320 576 l 1,9,-1
 352 576 l 1,10,-1
 384 576 l 1,11,-1
 384 512 l 1,12,-1
 384 448 l 1,13,-1
 416 448 l 1,14,-1
 448 448 l 1,15,-1
 448 384 l 1,16,-1
 448 320 l 1,17,-1
 384 320 l 1,18,-1
 320 320 l 1,19,-1
 320 384 l 1,20,-1
 320 448 l 1,21,-1
 288 448 l 1,22,-1
 256 448 l 1,23,-1
 256 512 l 1,24,-1
 256 576 l 1,25,-1
 224 576 l 1,26,-1
 192 576 l 1,27,-1
 192 512 l 1,28,-1
 192 448 l 1,29,-1
 160 448 l 1,30,-1
 128 448 l 1,31,-1
 128 384 l 1,32,-1
 128 320 l 1,33,-1
 64 320 l 1,34,-1
 0 320 l 1,35,-1
 0 384 l 1,36,-1
 0 448 l 1,37,-1
 32 448 l 1,38,-1
 64 448 l 1,39,-1
 64 512 l 1,40,-1
 64 576 l 1,41,-1
 96 576 l 1,42,-1
 128 576 l 1,43,-1
 128 640 l 1,44,-1
 128 704 l 1,45,-1
 160 704 l 1,46,-1
 192 704 l 1,47,-1
 192 768 l 1,0,-1
EndSplineSet
EndChar

StartChar: underscore
Encoding: 95 95 97
Width: 512
Flags: W
LayerCount: 2
Fore
SplineSet
0 64 m 1,0,-1
 0 128 l 1,1,-1
 224 128 l 1,2,-1
 448 128 l 1,3,-1
 448 64 l 1,4,-1
 448 0 l 1,5,-1
 224 0 l 1,6,-1
 0 0 l 1,7,-1
 0 64 l 1,0,-1
EndSplineSet
EndChar

StartChar: grave
Encoding: 96 96 98
Width: 512
Flags: W
LayerCount: 2
Fore
SplineSet
64 800 m 1,0,-1
 64 896 l 1,1,-1
 96 896 l 1,2,-1
 128 896 l 1,3,-1
 128 864 l 1,4,-1
 128 832 l 1,5,-1
 160 832 l 1,6,-1
 192 832 l 1,7,-1
 192 800 l 1,8,-1
 192 768 l 1,9,-1
 224 768 l 1,10,-1
 256 768 l 1,11,-1
 256 736 l 1,12,-1
 256 704 l 1,13,-1
 288 704 l 1,14,-1
 320 704 l 1,15,-1
 320 672 l 1,16,-1
 320 640 l 1,17,-1
 352 640 l 1,18,-1
 384 640 l 1,19,-1
 384 544 l 1,20,-1
 384 448 l 1,21,-1
 352 448 l 1,22,-1
 320 448 l 1,23,-1
 320 480 l 1,24,-1
 320 512 l 1,25,-1
 288 512 l 1,26,-1
 256 512 l 1,27,-1
 256 544 l 1,28,-1
 256 576 l 1,29,-1
 224 576 l 1,30,-1
 192 576 l 1,31,-1
 192 608 l 1,32,-1
 192 640 l 1,33,-1
 160 640 l 1,34,-1
 128 640 l 1,35,-1
 128 672 l 1,36,-1
 128 704 l 1,37,-1
 96 704 l 1,38,-1
 64 704 l 1,39,-1
 64 800 l 1,0,-1
EndSplineSet
EndChar

StartChar: a
Encoding: 97 97 99
Width: 512
Flags: W
LayerCount: 2
Fore
SplineSet
128 512 m 1,0,-1
 128 576 l 1,1,-1
 256 576 l 1,2,-1
 384 576 l 1,3,-1
 384 544 l 1,4,-1
 384 512 l 1,5,-1
 416 512 l 1,6,-1
 448 512 l 1,7,-1
 448 256 l 1,8,-1
 448 0 l 1,9,-1
 288 0 l 1,10,-1
 128 0 l 1,11,-1
 128 32 l 1,12,-1
 128 64 l 1,13,-1
 96 64 l 1,14,-1
 64 64 l 1,15,-1
 64 192 l 1,16,-1
 64 320 l 1,17,-1
 96 320 l 1,18,-1
 128 320 l 1,19,-1
 128 352 l 1,20,-1
 128 384 l 1,21,-1
 224 384 l 1,22,-1
 320 384 l 1,23,-1
 320 416 l 1,24,-1
 320 448 l 1,25,-1
 224 448 l 1,26,-1
 128 448 l 1,27,-1
 128 512 l 1,0,-1
320 192 m 1,28,-1
 320 256 l 1,29,-1
 256 256 l 1,30,-1
 192 256 l 1,31,-1
 192 192 l 1,32,-1
 192 128 l 1,33,-1
 256 128 l 1,34,-1
 320 128 l 1,35,-1
 320 192 l 1,28,-1
EndSplineSet
EndChar

StartChar: b
Encoding: 98 98 100
Width: 512
Flags: W
LayerCount: 2
Fore
SplineSet
64 384 m 1,0,-1
 64 768 l 1,1,-1
 128 768 l 1,2,-1
 192 768 l 1,3,-1
 192 672 l 1,4,-1
 192 576 l 1,5,-1
 288 576 l 1,6,-1
 384 576 l 1,7,-1
 384 544 l 1,8,-1
 384 512 l 1,9,-1
 416 512 l 1,10,-1
 448 512 l 1,11,-1
 448 288 l 1,12,-1
 448 64 l 1,13,-1
 416 64 l 1,14,-1
 384 64 l 1,15,-1
 384 32 l 1,16,-1
 384 0 l 1,17,-1
 224 0 l 1,18,-1
 64 0 l 1,19,-1
 64 384 l 1,0,-1
320 288 m 1,20,-1
 320 448 l 1,21,-1
 256 448 l 1,22,-1
 192 448 l 1,23,-1
 192 288 l 1,24,-1
 192 128 l 1,25,-1
 256 128 l 1,26,-1
 320 128 l 1,27,-1
 320 288 l 1,20,-1
EndSplineSet
EndChar

StartChar: c
Encoding: 99 99 101
Width: 512
Flags: W
LayerCount: 2
Fore
SplineSet
128 544 m 1,0,-1
 128 576 l 1,1,-1
 256 576 l 1,2,-1
 384 576 l 1,3,-1
 384 512 l 1,4,-1
 384 448 l 1,5,-1
 288 448 l 1,6,-1
 192 448 l 1,7,-1
 192 288 l 1,8,-1
 192 128 l 1,9,-1
 320 128 l 1,10,-1
 448 128 l 1,11,-1
 448 64 l 1,12,-1
 448 0 l 1,13,-1
 288 0 l 1,14,-1
 128 0 l 1,15,-1
 128 32 l 1,16,-1
 128 64 l 1,17,-1
 96 64 l 1,18,-1
 64 64 l 1,19,-1
 64 288 l 1,20,-1
 64 512 l 1,21,-1
 96 512 l 1,22,-1
 128 512 l 1,23,-1
 128 544 l 1,0,-1
EndSplineSet
EndChar

StartChar: d
Encoding: 100 100 102
Width: 512
Flags: W
LayerCount: 2
Fore
SplineSet
320 672 m 1,0,-1
 320 768 l 1,1,-1
 384 768 l 1,2,-1
 448 768 l 1,3,-1
 448 384 l 1,4,-1
 448 0 l 1,5,-1
 288 0 l 1,6,-1
 128 0 l 1,7,-1
 128 32 l 1,8,-1
 128 64 l 1,9,-1
 96 64 l 1,10,-1
 64 64 l 1,11,-1
 64 288 l 1,12,-1
 64 512 l 1,13,-1
 96 512 l 1,14,-1
 128 512 l 1,15,-1
 128 544 l 1,16,-1
 128 576 l 1,17,-1
 224 576 l 1,18,-1
 320 576 l 1,19,-1
 320 672 l 1,0,-1
320 288 m 1,20,-1
 320 448 l 1,21,-1
 256 448 l 1,22,-1
 192 448 l 1,23,-1
 192 288 l 1,24,-1
 192 128 l 1,25,-1
 256 128 l 1,26,-1
 320 128 l 1,27,-1
 320 288 l 1,20,-1
EndSplineSet
EndChar

StartChar: e
Encoding: 101 101 103
Width: 512
Flags: W
LayerCount: 2
Fore
SplineSet
128 544 m 1,0,-1
 128 576 l 1,1,-1
 256 576 l 1,2,-1
 384 576 l 1,3,-1
 384 544 l 1,4,-1
 384 512 l 1,5,-1
 416 512 l 1,6,-1
 448 512 l 1,7,-1
 448 384 l 1,8,-1
 448 256 l 1,9,-1
 320 256 l 1,10,-1
 192 256 l 1,11,-1
 192 192 l 1,12,-1
 192 128 l 1,13,-1
 320 128 l 1,14,-1
 448 128 l 1,15,-1
 448 64 l 1,16,-1
 448 0 l 1,17,-1
 288 0 l 1,18,-1
 128 0 l 1,19,-1
 128 32 l 1,20,-1
 128 64 l 1,21,-1
 96 64 l 1,22,-1
 64 64 l 1,23,-1
 64 288 l 1,24,-1
 64 512 l 1,25,-1
 96 512 l 1,26,-1
 128 512 l 1,27,-1
 128 544 l 1,0,-1
320 384 m 1,28,-1
 320 448 l 1,29,-1
 256 448 l 1,30,-1
 192 448 l 1,31,-1
 192 384 l 1,32,-1
 192 320 l 1,33,-1
 256 320 l 1,34,-1
 320 320 l 1,35,-1
 320 384 l 1,28,-1
EndSplineSet
EndChar

StartChar: f
Encoding: 102 102 104
Width: 512
Flags: W
LayerCount: 2
Fore
SplineSet
256 736 m 1,0,-1
 256 768 l 1,1,-1
 352 768 l 1,2,-1
 448 768 l 1,3,-1
 448 704 l 1,4,-1
 448 640 l 1,5,-1
 384 640 l 1,6,-1
 320 640 l 1,7,-1
 320 576 l 1,8,-1
 320 512 l 1,9,-1
 384 512 l 1,10,-1
 448 512 l 1,11,-1
 448 448 l 1,12,-1
 448 384 l 1,13,-1
 384 384 l 1,14,-1
 320 384 l 1,15,-1
 320 192 l 1,16,-1
 320 0 l 1,17,-1
 256 0 l 1,18,-1
 192 0 l 1,19,-1
 192 192 l 1,20,-1
 192 384 l 1,21,-1
 128 384 l 1,22,-1
 64 384 l 1,23,-1
 64 448 l 1,24,-1
 64 512 l 1,25,-1
 128 512 l 1,26,-1
 192 512 l 1,27,-1
 192 608 l 1,28,-1
 192 704 l 1,29,-1
 224 704 l 1,30,-1
 256 704 l 1,31,-1
 256 736 l 1,0,-1
EndSplineSet
EndChar

StartChar: g
Encoding: 103 103 105
Width: 512
Flags: W
LayerCount: 2
Fore
SplineSet
128 544 m 1,0,-1
 128 576 l 1,1,-1
 288 576 l 1,2,-1
 448 576 l 1,3,-1
 448 256 l 1,4,-1
 448 -64 l 1,5,-1
 416 -64 l 1,6,-1
 384 -64 l 1,7,-1
 384 -96 l 1,8,-1
 384 -128 l 1,9,-1
 224 -128 l 1,10,-1
 64 -128 l 1,11,-1
 64 -64 l 1,12,-1
 64 0 l 1,13,-1
 192 0 l 1,14,-1
 320 0 l 1,15,-1
 320 32 l 1,16,-1
 320 64 l 1,17,-1
 224 64 l 1,18,-1
 128 64 l 1,19,-1
 128 96 l 1,20,-1
 128 128 l 1,21,-1
 96 128 l 1,22,-1
 64 128 l 1,23,-1
 64 320 l 1,24,-1
 64 512 l 1,25,-1
 96 512 l 1,26,-1
 128 512 l 1,27,-1
 128 544 l 1,0,-1
320 320 m 1,28,-1
 320 448 l 1,29,-1
 256 448 l 1,30,-1
 192 448 l 1,31,-1
 192 320 l 1,32,-1
 192 192 l 1,33,-1
 256 192 l 1,34,-1
 320 192 l 1,35,-1
 320 320 l 1,28,-1
EndSplineSet
EndChar

StartChar: h
Encoding: 104 104 106
Width: 512
Flags: W
LayerCount: 2
Fore
SplineSet
64 384 m 1,0,-1
 64 768 l 1,1,-1
 128 768 l 1,2,-1
 192 768 l 1,3,-1
 192 672 l 1,4,-1
 192 576 l 1,5,-1
 288 576 l 1,6,-1
 384 576 l 1,7,-1
 384 544 l 1,8,-1
 384 512 l 1,9,-1
 416 512 l 1,10,-1
 448 512 l 1,11,-1
 448 256 l 1,12,-1
 448 0 l 1,13,-1
 384 0 l 1,14,-1
 320 0 l 1,15,-1
 320 224 l 1,16,-1
 320 448 l 1,17,-1
 256 448 l 1,18,-1
 192 448 l 1,19,-1
 192 224 l 1,20,-1
 192 0 l 1,21,-1
 128 0 l 1,22,-1
 64 0 l 1,23,-1
 64 384 l 1,0,-1
EndSplineSet
EndChar

StartChar: i
Encoding: 105 105 107
Width: 512
Flags: W
LayerCount: 2
Fore
SplineSet
128 512 m 1,0,-1
 128 576 l 1,1,-1
 224 576 l 1,2,-1
 320 576 l 1,3,-1
 320 352 l 1,4,-1
 320 128 l 1,5,-1
 352 128 l 1,6,-1
 384 128 l 1,7,-1
 384 64 l 1,8,-1
 384 0 l 1,9,-1
 256 0 l 1,10,-1
 128 0 l 1,11,-1
 128 64 l 1,12,-1
 128 128 l 1,13,-1
 160 128 l 1,14,-1
 192 128 l 1,15,-1
 192 288 l 1,16,-1
 192 448 l 1,17,-1
 160 448 l 1,18,-1
 128 448 l 1,19,-1
 128 512 l 1,0,-1
192 704 m 1,20,-1
 192 768 l 1,21,-1
 256 768 l 1,22,-1
 320 768 l 1,23,-1
 320 704 l 1,24,-1
 320 640 l 1,25,-1
 256 640 l 1,26,-1
 192 640 l 1,27,-1
 192 704 l 1,20,-1
EndSplineSet
EndChar

StartChar: j
Encoding: 106 106 108
Width: 512
Flags: W
LayerCount: 2
Fore
SplineSet
256 288 m 1,0,-1
 256 576 l 1,1,-1
 320 576 l 1,2,-1
 384 576 l 1,3,-1
 384 256 l 1,4,-1
 384 -64 l 1,5,-1
 352 -64 l 1,6,-1
 320 -64 l 1,7,-1
 320 -96 l 1,8,-1
 320 -128 l 1,9,-1
 192 -128 l 1,10,-1
 64 -128 l 1,11,-1
 64 -64 l 1,12,-1
 64 0 l 1,13,-1
 160 0 l 1,14,-1
 256 0 l 1,15,-1
 256 288 l 1,0,-1
256 704 m 1,16,-1
 256 768 l 1,17,-1
 320 768 l 1,18,-1
 384 768 l 1,19,-1
 384 704 l 1,20,-1
 384 640 l 1,21,-1
 320 640 l 1,22,-1
 256 640 l 1,23,-1
 256 704 l 1,16,-1
EndSplineSet
EndChar

StartChar: k
Encoding: 107 107 109
Width: 512
Flags: W
LayerCount: 2
Fore
SplineSet
0 384 m 1,0,-1
 0 768 l 1,1,-1
 64 768 l 1,2,-1
 128 768 l 1,3,-1
 128 608 l 1,4,-1
 128 448 l 1,5,-1
 160 448 l 1,6,-1
 192 448 l 1,7,-1
 192 480 l 1,8,-1
 192 512 l 1,9,-1
 224 512 l 1,10,-1
 256 512 l 1,11,-1
 256 544 l 1,12,-1
 256 576 l 1,13,-1
 320 576 l 1,14,-1
 384 576 l 1,15,-1
 384 512 l 1,16,-1
 384 448 l 1,17,-1
 352 448 l 1,18,-1
 320 448 l 1,19,-1
 320 416 l 1,20,-1
 320 384 l 1,21,-1
 288 384 l 1,22,-1
 256 384 l 1,23,-1
 256 352 l 1,24,-1
 256 320 l 1,25,-1
 288 320 l 1,26,-1
 320 320 l 1,27,-1
 320 256 l 1,28,-1
 320 192 l 1,29,-1
 352 192 l 1,30,-1
 384 192 l 1,31,-1
 384 160 l 1,32,-1
 384 128 l 1,33,-1
 416 128 l 1,34,-1
 448 128 l 1,35,-1
 448 64 l 1,36,-1
 448 0 l 1,37,-1
 384 0 l 1,38,-1
 320 0 l 1,39,-1
 320 32 l 1,40,-1
 320 64 l 1,41,-1
 288 64 l 1,42,-1
 256 64 l 1,43,-1
 256 128 l 1,44,-1
 256 192 l 1,45,-1
 224 192 l 1,46,-1
 192 192 l 1,47,-1
 192 224 l 1,48,-1
 192 256 l 1,49,-1
 160 256 l 1,50,-1
 128 256 l 1,51,-1
 128 128 l 1,52,-1
 128 0 l 1,53,-1
 64 0 l 1,54,-1
 0 0 l 1,55,-1
 0 384 l 1,0,-1
EndSplineSet
EndChar

StartChar: l
Encoding: 108 108 110
Width: 512
Flags: W
LayerCount: 2
Fore
SplineSet
128 704 m 1,0,-1
 128 768 l 1,1,-1
 224 768 l 1,2,-1
 320 768 l 1,3,-1
 320 448 l 1,4,-1
 320 128 l 1,5,-1
 352 128 l 1,6,-1
 384 128 l 1,7,-1
 384 64 l 1,8,-1
 384 0 l 1,9,-1
 256 0 l 1,10,-1
 128 0 l 1,11,-1
 128 64 l 1,12,-1
 128 128 l 1,13,-1
 160 128 l 1,14,-1
 192 128 l 1,15,-1
 192 384 l 1,16,-1
 192 640 l 1,17,-1
 160 640 l 1,18,-1
 128 640 l 1,19,-1
 128 704 l 1,0,-1
EndSplineSet
EndChar

StartChar: m
Encoding: 109 109 111
Width: 512
Flags: W
LayerCount: 2
Fore
SplineSet
64 544 m 1,0,-1
 64 576 l 1,1,-1
 128 576 l 1,2,-1
 192 576 l 1,3,-1
 192 544 l 1,4,-1
 192 512 l 1,5,-1
 224 512 l 1,6,-1
 256 512 l 1,7,-1
 256 544 l 1,8,-1
 256 576 l 1,9,-1
 320 576 l 1,10,-1
 384 576 l 1,11,-1
 384 544 l 1,12,-1
 384 512 l 1,13,-1
 416 512 l 1,14,-1
 448 512 l 1,15,-1
 448 256 l 1,16,-1
 448 0 l 1,17,-1
 384 0 l 1,18,-1
 320 0 l 1,19,-1
 320 192 l 1,20,-1
 320 384 l 1,21,-1
 288 384 l 1,22,-1
 256 384 l 1,23,-1
 256 288 l 1,24,-1
 256 192 l 1,25,-1
 224 192 l 1,26,-1
 192 192 l 1,27,-1
 192 288 l 1,28,-1
 192 384 l 1,29,-1
 160 384 l 1,30,-1
 128 384 l 1,31,-1
 128 192 l 1,32,-1
 128 0 l 1,33,-1
 64 0 l 1,34,-1
 0 0 l 1,35,-1
 0 256 l 1,36,-1
 0 512 l 1,37,-1
 32 512 l 1,38,-1
 64 512 l 1,39,-1
 64 544 l 1,0,-1
EndSplineSet
EndChar

StartChar: n
Encoding: 110 110 112
Width: 512
Flags: W
LayerCount: 2
Fore
SplineSet
128 544 m 1,0,-1
 128 576 l 1,1,-1
 256 576 l 1,2,-1
 384 576 l 1,3,-1
 384 544 l 1,4,-1
 384 512 l 1,5,-1
 416 512 l 1,6,-1
 448 512 l 1,7,-1
 448 256 l 1,8,-1
 448 0 l 1,9,-1
 384 0 l 1,10,-1
 320 0 l 1,11,-1
 320 224 l 1,12,-1
 320 448 l 1,13,-1
 256 448 l 1,14,-1
 192 448 l 1,15,-1
 192 224 l 1,16,-1
 192 0 l 1,17,-1
 128 0 l 1,18,-1
 64 0 l 1,19,-1
 64 256 l 1,20,-1
 64 512 l 1,21,-1
 96 512 l 1,22,-1
 128 512 l 1,23,-1
 128 544 l 1,0,-1
EndSplineSet
EndChar

StartChar: o
Encoding: 111 111 113
Width: 512
Flags: W
LayerCount: 2
Fore
SplineSet
128 544 m 1,0,-1
 128 576 l 1,1,-1
 256 576 l 1,2,-1
 384 576 l 1,3,-1
 384 544 l 1,4,-1
 384 512 l 1,5,-1
 416 512 l 1,6,-1
 448 512 l 1,7,-1
 448 288 l 1,8,-1
 448 64 l 1,9,-1
 416 64 l 1,10,-1
 384 64 l 1,11,-1
 384 32 l 1,12,-1
 384 0 l 1,13,-1
 256 0 l 1,14,-1
 128 0 l 1,15,-1
 128 32 l 1,16,-1
 128 64 l 1,17,-1
 96 64 l 1,18,-1
 64 64 l 1,19,-1
 64 288 l 1,20,-1
 64 512 l 1,21,-1
 96 512 l 1,22,-1
 128 512 l 1,23,-1
 128 544 l 1,0,-1
320 288 m 1,24,-1
 320 448 l 1,25,-1
 256 448 l 1,26,-1
 192 448 l 1,27,-1
 192 288 l 1,28,-1
 192 128 l 1,29,-1
 256 128 l 1,30,-1
 320 128 l 1,31,-1
 320 288 l 1,24,-1
EndSplineSet
EndChar

StartChar: p
Encoding: 112 112 114
Width: 512
Flags: W
LayerCount: 2
Fore
SplineSet
64 224 m 1,0,-1
 64 576 l 1,1,-1
 224 576 l 1,2,-1
 384 576 l 1,3,-1
 384 544 l 1,4,-1
 384 512 l 1,5,-1
 416 512 l 1,6,-1
 448 512 l 1,7,-1
 448 288 l 1,8,-1
 448 64 l 1,9,-1
 416 64 l 1,10,-1
 384 64 l 1,11,-1
 384 32 l 1,12,-1
 384 0 l 1,13,-1
 288 0 l 1,14,-1
 192 0 l 1,15,-1
 192 -64 l 1,16,-1
 192 -128 l 1,17,-1
 128 -128 l 1,18,-1
 64 -128 l 1,19,-1
 64 224 l 1,0,-1
320 288 m 1,20,-1
 320 448 l 1,21,-1
 256 448 l 1,22,-1
 192 448 l 1,23,-1
 192 288 l 1,24,-1
 192 128 l 1,25,-1
 256 128 l 1,26,-1
 320 128 l 1,27,-1
 320 288 l 1,20,-1
EndSplineSet
EndChar

StartChar: q
Encoding: 113 113 115
Width: 512
Flags: W
LayerCount: 2
Fore
SplineSet
128 544 m 1,0,-1
 128 576 l 1,1,-1
 288 576 l 1,2,-1
 448 576 l 1,3,-1
 448 224 l 1,4,-1
 448 -128 l 1,5,-1
 384 -128 l 1,6,-1
 320 -128 l 1,7,-1
 320 -64 l 1,8,-1
 320 0 l 1,9,-1
 224 0 l 1,10,-1
 128 0 l 1,11,-1
 128 32 l 1,12,-1
 128 64 l 1,13,-1
 96 64 l 1,14,-1
 64 64 l 1,15,-1
 64 288 l 1,16,-1
 64 512 l 1,17,-1
 96 512 l 1,18,-1
 128 512 l 1,19,-1
 128 544 l 1,0,-1
320 288 m 1,20,-1
 320 448 l 1,21,-1
 256 448 l 1,22,-1
 192 448 l 1,23,-1
 192 288 l 1,24,-1
 192 128 l 1,25,-1
 256 128 l 1,26,-1
 320 128 l 1,27,-1
 320 288 l 1,20,-1
EndSplineSet
EndChar

StartChar: r
Encoding: 114 114 116
Width: 512
Flags: W
LayerCount: 2
Fore
SplineSet
64 288 m 1,0,-1
 64 576 l 1,1,-1
 224 576 l 1,2,-1
 384 576 l 1,3,-1
 384 544 l 1,4,-1
 384 512 l 1,5,-1
 416 512 l 1,6,-1
 448 512 l 1,7,-1
 448 448 l 1,8,-1
 448 384 l 1,9,-1
 384 384 l 1,10,-1
 320 384 l 1,11,-1
 320 416 l 1,12,-1
 320 448 l 1,13,-1
 256 448 l 1,14,-1
 192 448 l 1,15,-1
 192 224 l 1,16,-1
 192 0 l 1,17,-1
 128 0 l 1,18,-1
 64 0 l 1,19,-1
 64 288 l 1,0,-1
EndSplineSet
EndChar

StartChar: s
Encoding: 115 115 117
Width: 512
Flags: W
LayerCount: 2
Fore
SplineSet
128 544 m 1,0,-1
 128 576 l 1,1,-1
 288 576 l 1,2,-1
 448 576 l 1,3,-1
 448 512 l 1,4,-1
 448 448 l 1,5,-1
 320 448 l 1,6,-1
 192 448 l 1,7,-1
 192 416 l 1,8,-1
 192 384 l 1,9,-1
 224 384 l 1,10,-1
 256 384 l 1,11,-1
 256 352 l 1,12,-1
 256 320 l 1,13,-1
 320 320 l 1,14,-1
 384 320 l 1,15,-1
 384 288 l 1,16,-1
 384 256 l 1,17,-1
 416 256 l 1,18,-1
 448 256 l 1,19,-1
 448 160 l 1,20,-1
 448 64 l 1,21,-1
 416 64 l 1,22,-1
 384 64 l 1,23,-1
 384 32 l 1,24,-1
 384 0 l 1,25,-1
 224 0 l 1,26,-1
 64 0 l 1,27,-1
 64 64 l 1,28,-1
 64 128 l 1,29,-1
 192 128 l 1,30,-1
 320 128 l 1,31,-1
 320 160 l 1,32,-1
 320 192 l 1,33,-1
 288 192 l 1,34,-1
 256 192 l 1,35,-1
 256 224 l 1,36,-1
 256 256 l 1,37,-1
 192 256 l 1,38,-1
 128 256 l 1,39,-1
 128 288 l 1,40,-1
 128 320 l 1,41,-1
 96 320 l 1,42,-1
 64 320 l 1,43,-1
 64 416 l 1,44,-1
 64 512 l 1,45,-1
 96 512 l 1,46,-1
 128 512 l 1,47,-1
 128 544 l 1,0,-1
EndSplineSet
EndChar

StartChar: t
Encoding: 116 116 118
Width: 512
Flags: W
LayerCount: 2
Fore
SplineSet
192 640 m 1,0,-1
 192 704 l 1,1,-1
 256 704 l 1,2,-1
 320 704 l 1,3,-1
 320 640 l 1,4,-1
 320 576 l 1,5,-1
 384 576 l 1,6,-1
 448 576 l 1,7,-1
 448 512 l 1,8,-1
 448 448 l 1,9,-1
 384 448 l 1,10,-1
 320 448 l 1,11,-1
 320 288 l 1,12,-1
 320 128 l 1,13,-1
 384 128 l 1,14,-1
 448 128 l 1,15,-1
 448 64 l 1,16,-1
 448 0 l 1,17,-1
 352 0 l 1,18,-1
 256 0 l 1,19,-1
 256 32 l 1,20,-1
 256 64 l 1,21,-1
 224 64 l 1,22,-1
 192 64 l 1,23,-1
 192 256 l 1,24,-1
 192 448 l 1,25,-1
 128 448 l 1,26,-1
 64 448 l 1,27,-1
 64 512 l 1,28,-1
 64 576 l 1,29,-1
 128 576 l 1,30,-1
 192 576 l 1,31,-1
 192 640 l 1,0,-1
EndSplineSet
EndChar

StartChar: u
Encoding: 117 117 119
Width: 512
Flags: W
LayerCount: 2
Fore
SplineSet
64 320 m 1,0,-1
 64 576 l 1,1,-1
 128 576 l 1,2,-1
 192 576 l 1,3,-1
 192 352 l 1,4,-1
 192 128 l 1,5,-1
 256 128 l 1,6,-1
 320 128 l 1,7,-1
 320 352 l 1,8,-1
 320 576 l 1,9,-1
 384 576 l 1,10,-1
 448 576 l 1,11,-1
 448 288 l 1,12,-1
 448 0 l 1,13,-1
 288 0 l 1,14,-1
 128 0 l 1,15,-1
 128 32 l 1,16,-1
 128 64 l 1,17,-1
 96 64 l 1,18,-1
 64 64 l 1,19,-1
 64 320 l 1,0,-1
EndSplineSet
EndChar

StartChar: v
Encoding: 118 118 120
Width: 512
Flags: W
LayerCount: 2
Fore
SplineSet
64 416 m 1,0,-1
 64 576 l 1,1,-1
 128 576 l 1,2,-1
 192 576 l 1,3,-1
 192 416 l 1,4,-1
 192 256 l 1,5,-1
 256 256 l 1,6,-1
 320 256 l 1,7,-1
 320 416 l 1,8,-1
 320 576 l 1,9,-1
 384 576 l 1,10,-1
 448 576 l 1,11,-1
 448 416 l 1,12,-1
 448 256 l 1,13,-1
 416 256 l 1,14,-1
 384 256 l 1,15,-1
 384 192 l 1,16,-1
 384 128 l 1,17,-1
 352 128 l 1,18,-1
 320 128 l 1,19,-1
 320 64 l 1,20,-1
 320 0 l 1,21,-1
 256 0 l 1,22,-1
 192 0 l 1,23,-1
 192 64 l 1,24,-1
 192 128 l 1,25,-1
 160 128 l 1,26,-1
 128 128 l 1,27,-1
 128 192 l 1,28,-1
 128 256 l 1,29,-1
 96 256 l 1,30,-1
 64 256 l 1,31,-1
 64 416 l 1,0,-1
EndSplineSet
EndChar

StartChar: w
Encoding: 119 119 121
Width: 512
Flags: W
LayerCount: 2
Fore
SplineSet
0 288 m 1,0,-1
 0 576 l 1,1,-1
 64 576 l 1,2,-1
 128 576 l 1,3,-1
 128 448 l 1,4,-1
 128 320 l 1,5,-1
 160 320 l 1,6,-1
 192 320 l 1,7,-1
 192 384 l 1,8,-1
 192 448 l 1,9,-1
 224 448 l 1,10,-1
 256 448 l 1,11,-1
 256 384 l 1,12,-1
 256 320 l 1,13,-1
 288 320 l 1,14,-1
 320 320 l 1,15,-1
 320 448 l 1,16,-1
 320 576 l 1,17,-1
 384 576 l 1,18,-1
 448 576 l 1,19,-1
 448 288 l 1,20,-1
 448 0 l 1,21,-1
 416 0 l 1,22,-1
 384 0 l 1,23,-1
 384 32 l 1,24,-1
 384 64 l 1,25,-1
 352 64 l 1,26,-1
 320 64 l 1,27,-1
 320 96 l 1,28,-1
 320 128 l 1,29,-1
 288 128 l 1,30,-1
 256 128 l 1,31,-1
 256 160 l 1,32,-1
 256 192 l 1,33,-1
 224 192 l 1,34,-1
 192 192 l 1,35,-1
 192 160 l 1,36,-1
 192 128 l 1,37,-1
 160 128 l 1,38,-1
 128 128 l 1,39,-1
 128 96 l 1,40,-1
 128 64 l 1,41,-1
 96 64 l 1,42,-1
 64 64 l 1,43,-1
 64 32 l 1,44,-1
 64 0 l 1,45,-1
 32 0 l 1,46,-1
 0 0 l 1,47,-1
 0 288 l 1,0,-1
EndSplineSet
EndChar

StartChar: x
Encoding: 120 120 122
Width: 512
Flags: W
LayerCount: 2
Fore
SplineSet
64 512 m 1,0,-1
 64 576 l 1,1,-1
 128 576 l 1,2,-1
 192 576 l 1,3,-1
 192 512 l 1,4,-1
 192 448 l 1,5,-1
 256 448 l 1,6,-1
 320 448 l 1,7,-1
 320 512 l 1,8,-1
 320 576 l 1,9,-1
 384 576 l 1,10,-1
 448 576 l 1,11,-1
 448 512 l 1,12,-1
 448 448 l 1,13,-1
 416 448 l 1,14,-1
 384 448 l 1,15,-1
 384 384 l 1,16,-1
 384 320 l 1,17,-1
 352 320 l 1,18,-1
 320 320 l 1,19,-1
 320 288 l 1,20,-1
 320 256 l 1,21,-1
 352 256 l 1,22,-1
 384 256 l 1,23,-1
 384 192 l 1,24,-1
 384 128 l 1,25,-1
 416 128 l 1,26,-1
 448 128 l 1,27,-1
 448 64 l 1,28,-1
 448 0 l 1,29,-1
 384 0 l 1,30,-1
 320 0 l 1,31,-1
 320 64 l 1,32,-1
 320 128 l 1,33,-1
 256 128 l 1,34,-1
 192 128 l 1,35,-1
 192 64 l 1,36,-1
 192 0 l 1,37,-1
 128 0 l 1,38,-1
 64 0 l 1,39,-1
 64 64 l 1,40,-1
 64 128 l 1,41,-1
 96 128 l 1,42,-1
 128 128 l 1,43,-1
 128 192 l 1,44,-1
 128 256 l 1,45,-1
 160 256 l 1,46,-1
 192 256 l 1,47,-1
 192 288 l 1,48,-1
 192 320 l 1,49,-1
 160 320 l 1,50,-1
 128 320 l 1,51,-1
 128 384 l 1,52,-1
 128 448 l 1,53,-1
 96 448 l 1,54,-1
 64 448 l 1,55,-1
 64 512 l 1,0,-1
EndSplineSet
EndChar

StartChar: y
Encoding: 121 121 123
Width: 512
Flags: W
LayerCount: 2
Fore
SplineSet
64 352 m 1,0,-1
 64 576 l 1,1,-1
 128 576 l 1,2,-1
 192 576 l 1,3,-1
 192 384 l 1,4,-1
 192 192 l 1,5,-1
 256 192 l 1,6,-1
 320 192 l 1,7,-1
 320 384 l 1,8,-1
 320 576 l 1,9,-1
 384 576 l 1,10,-1
 448 576 l 1,11,-1
 448 256 l 1,12,-1
 448 -64 l 1,13,-1
 416 -64 l 1,14,-1
 384 -64 l 1,15,-1
 384 -96 l 1,16,-1
 384 -128 l 1,17,-1
 224 -128 l 1,18,-1
 64 -128 l 1,19,-1
 64 -64 l 1,20,-1
 64 0 l 1,21,-1
 192 0 l 1,22,-1
 320 0 l 1,23,-1
 320 32 l 1,24,-1
 320 64 l 1,25,-1
 224 64 l 1,26,-1
 128 64 l 1,27,-1
 128 96 l 1,28,-1
 128 128 l 1,29,-1
 96 128 l 1,30,-1
 64 128 l 1,31,-1
 64 352 l 1,0,-1
EndSplineSet
EndChar

StartChar: z
Encoding: 122 122 124
Width: 512
Flags: W
LayerCount: 2
Fore
SplineSet
64 512 m 1,0,-1
 64 576 l 1,1,-1
 256 576 l 1,2,-1
 448 576 l 1,3,-1
 448 512 l 1,4,-1
 448 448 l 1,5,-1
 416 448 l 1,6,-1
 384 448 l 1,7,-1
 384 416 l 1,8,-1
 384 384 l 1,9,-1
 352 384 l 1,10,-1
 320 384 l 1,11,-1
 320 320 l 1,12,-1
 320 256 l 1,13,-1
 288 256 l 1,14,-1
 256 256 l 1,15,-1
 256 192 l 1,16,-1
 256 128 l 1,17,-1
 352 128 l 1,18,-1
 448 128 l 1,19,-1
 448 64 l 1,20,-1
 448 0 l 1,21,-1
 256 0 l 1,22,-1
 64 0 l 1,23,-1
 64 64 l 1,24,-1
 64 128 l 1,25,-1
 96 128 l 1,26,-1
 128 128 l 1,27,-1
 128 192 l 1,28,-1
 128 256 l 1,29,-1
 160 256 l 1,30,-1
 192 256 l 1,31,-1
 192 320 l 1,32,-1
 192 384 l 1,33,-1
 224 384 l 1,34,-1
 256 384 l 1,35,-1
 256 416 l 1,36,-1
 256 448 l 1,37,-1
 160 448 l 1,38,-1
 64 448 l 1,39,-1
 64 512 l 1,0,-1
EndSplineSet
EndChar

StartChar: braceleft
Encoding: 123 123 125
Width: 512
Flags: W
LayerCount: 2
Fore
SplineSet
256 800 m 1,0,-1
 256 832 l 1,1,-1
 352 832 l 1,2,-1
 448 832 l 1,3,-1
 448 800 l 1,4,-1
 448 768 l 1,5,-1
 384 768 l 1,6,-1
 320 768 l 1,7,-1
 320 608 l 1,8,-1
 320 448 l 1,9,-1
 288 448 l 1,10,-1
 256 448 l 1,11,-1
 256 384 l 1,12,-1
 256 320 l 1,13,-1
 288 320 l 1,14,-1
 320 320 l 1,15,-1
 320 160 l 1,16,-1
 320 0 l 1,17,-1
 384 0 l 1,18,-1
 448 0 l 1,19,-1
 448 -32 l 1,20,-1
 448 -64 l 1,21,-1
 352 -64 l 1,22,-1
 256 -64 l 1,23,-1
 256 -32 l 1,24,-1
 256 0 l 1,25,-1
 224 0 l 1,26,-1
 192 0 l 1,27,-1
 192 128 l 1,28,-1
 192 256 l 1,29,-1
 160 256 l 1,30,-1
 128 256 l 1,31,-1
 128 288 l 1,32,-1
 128 320 l 1,33,-1
 64 320 l 1,34,-1
 0 320 l 1,35,-1
 0 384 l 1,36,-1
 0 448 l 1,37,-1
 64 448 l 1,38,-1
 128 448 l 1,39,-1
 128 480 l 1,40,-1
 128 512 l 1,41,-1
 160 512 l 1,42,-1
 192 512 l 1,43,-1
 192 640 l 1,44,-1
 192 768 l 1,45,-1
 224 768 l 1,46,-1
 256 768 l 1,47,-1
 256 800 l 1,0,-1
EndSplineSet
EndChar

StartChar: bar
Encoding: 124 124 126
Width: 512
Flags: W
LayerCount: 2
Fore
SplineSet
192 384 m 1,0,-1
 192 832 l 1,1,-1
 256 832 l 1,2,-1
 320 832 l 1,3,-1
 320 384 l 1,4,-1
 320 -64 l 1,5,-1
 256 -64 l 1,6,-1
 192 -64 l 1,7,-1
 192 384 l 1,0,-1
EndSplineSet
EndChar

StartChar: braceright
Encoding: 125 125 127
Width: 512
Flags: W
LayerCount: 2
Fore
SplineSet
0 800 m 1,0,-1
 0 832 l 1,1,-1
 96 832 l 1,2,-1
 192 832 l 1,3,-1
 192 800 l 1,4,-1
 192 768 l 1,5,-1
 224 768 l 1,6,-1
 256 768 l 1,7,-1
 256 640 l 1,8,-1
 256 512 l 1,9,-1
 288 512 l 1,10,-1
 320 512 l 1,11,-1
 320 480 l 1,12,-1
 320 448 l 1,13,-1
 384 448 l 1,14,-1
 448 448 l 1,15,-1
 448 384 l 1,16,-1
 448 320 l 1,17,-1
 384 320 l 1,18,-1
 320 320 l 1,19,-1
 320 288 l 1,20,-1
 320 256 l 1,21,-1
 288 256 l 1,22,-1
 256 256 l 1,23,-1
 256 128 l 1,24,-1
 256 0 l 1,25,-1
 224 0 l 1,26,-1
 192 0 l 1,27,-1
 192 -32 l 1,28,-1
 192 -64 l 1,29,-1
 96 -64 l 1,30,-1
 0 -64 l 1,31,-1
 0 -32 l 1,32,-1
 0 0 l 1,33,-1
 64 0 l 1,34,-1
 128 0 l 1,35,-1
 128 160 l 1,36,-1
 128 320 l 1,37,-1
 160 320 l 1,38,-1
 192 320 l 1,39,-1
 192 384 l 1,40,-1
 192 448 l 1,41,-1
 160 448 l 1,42,-1
 128 448 l 1,43,-1
 128 608 l 1,44,-1
 128 768 l 1,45,-1
 64 768 l 1,46,-1
 0 768 l 1,47,-1
 0 800 l 1,0,-1
EndSplineSet
EndChar

StartChar: asciitilde
Encoding: 126 126 128
Width: 512
Flags: W
LayerCount: 2
Fore
SplineSet
64 544 m 1,0,-1
 64 576 l 1,1,-1
 128 576 l 1,2,-1
 192 576 l 1,3,-1
 192 544 l 1,4,-1
 192 512 l 1,5,-1
 224 512 l 1,6,-1
 256 512 l 1,7,-1
 256 480 l 1,8,-1
 256 448 l 1,9,-1
 320 448 l 1,10,-1
 384 448 l 1,11,-1
 384 512 l 1,12,-1
 384 576 l 1,13,-1
 416 576 l 1,14,-1
 448 576 l 1,15,-1
 448 480 l 1,16,-1
 448 384 l 1,17,-1
 416 384 l 1,18,-1
 384 384 l 1,19,-1
 384 352 l 1,20,-1
 384 320 l 1,21,-1
 288 320 l 1,22,-1
 192 320 l 1,23,-1
 192 352 l 1,24,-1
 192 384 l 1,25,-1
 160 384 l 1,26,-1
 128 384 l 1,27,-1
 128 416 l 1,28,-1
 128 448 l 1,29,-1
 96 448 l 1,30,-1
 64 448 l 1,31,-1
 64 384 l 1,32,-1
 64 320 l 1,33,-1
 32 320 l 1,34,-1
 0 320 l 1,35,-1
 0 416 l 1,36,-1
 0 512 l 1,37,-1
 32 512 l 1,38,-1
 64 512 l 1,39,-1
 64 544 l 1,0,-1
EndSplineSet
EndChar

StartChar: uni007F
Encoding: 127 127 129
Width: 512
Flags: W
LayerCount: 2
Fore
SplineSet
192 512 m 1,0,-1
 192 576 l 1,1,-1
 256 576 l 1,2,-1
 320 576 l 1,3,-1
 320 512 l 1,4,-1
 320 448 l 1,5,-1
 352 448 l 1,6,-1
 384 448 l 1,7,-1
 384 384 l 1,8,-1
 384 320 l 1,9,-1
 416 320 l 1,10,-1
 448 320 l 1,11,-1
 448 256 l 1,12,-1
 448 192 l 1,13,-1
 480 192 l 1,14,-1
 512 192 l 1,15,-1
 512 128 l 1,16,-1
 512 64 l 1,17,-1
 256 64 l 1,18,-1
 0 64 l 1,19,-1
 0 128 l 1,20,-1
 0 192 l 1,21,-1
 32 192 l 1,22,-1
 64 192 l 1,23,-1
 64 256 l 1,24,-1
 64 320 l 1,25,-1
 96 320 l 1,26,-1
 128 320 l 1,27,-1
 128 384 l 1,28,-1
 128 448 l 1,29,-1
 160 448 l 1,30,-1
 192 448 l 1,31,-1
 192 512 l 1,0,-1
320 320 m 1,32,-1
 320 384 l 1,33,-1
 256 384 l 1,34,-1
 192 384 l 1,35,-1
 192 320 l 1,36,-1
 192 256 l 1,37,-1
 160 256 l 1,38,-1
 128 256 l 1,39,-1
 128 192 l 1,40,-1
 128 128 l 1,41,-1
 256 128 l 1,42,-1
 384 128 l 1,43,-1
 384 192 l 1,44,-1
 384 256 l 1,45,-1
 352 256 l 1,46,-1
 320 256 l 1,47,-1
 320 320 l 1,32,-1
EndSplineSet
EndChar

StartChar: uni0080
Encoding: 128 128 130
Width: 512
Flags: W
LayerCount: 2
Fore
SplineSet
128 736 m 1,0,-1
 128 768 l 1,1,-1
 256 768 l 1,2,-1
 384 768 l 1,3,-1
 384 736 l 1,4,-1
 384 704 l 1,5,-1
 416 704 l 1,6,-1
 448 704 l 1,7,-1
 448 608 l 1,8,-1
 448 512 l 1,9,-1
 384 512 l 1,10,-1
 320 512 l 1,11,-1
 320 576 l 1,12,-1
 320 640 l 1,13,-1
 256 640 l 1,14,-1
 192 640 l 1,15,-1
 192 384 l 1,16,-1
 192 128 l 1,17,-1
 256 128 l 1,18,-1
 320 128 l 1,19,-1
 320 192 l 1,20,-1
 320 256 l 1,21,-1
 384 256 l 1,22,-1
 448 256 l 1,23,-1
 448 160 l 1,24,-1
 448 64 l 1,25,-1
 416 64 l 1,26,-1
 384 64 l 1,27,-1
 384 0 l 1,28,-1
 384 -64 l 1,29,-1
 352 -64 l 1,30,-1
 320 -64 l 1,31,-1
 320 -96 l 1,32,-1
 320 -128 l 1,33,-1
 224 -128 l 1,34,-1
 128 -128 l 1,35,-1
 128 -96 l 1,36,-1
 128 -64 l 1,37,-1
 192 -64 l 1,38,-1
 256 -64 l 1,39,-1
 256 -32 l 1,40,-1
 256 0 l 1,41,-1
 192 0 l 1,42,-1
 128 0 l 1,43,-1
 128 32 l 1,44,-1
 128 64 l 1,45,-1
 96 64 l 1,46,-1
 64 64 l 1,47,-1
 64 384 l 1,48,-1
 64 704 l 1,49,-1
 96 704 l 1,50,-1
 128 704 l 1,51,-1
 128 736 l 1,0,-1
EndSplineSet
EndChar

StartChar: uni0081
Encoding: 129 129 131
Width: 512
Flags: W
LayerCount: 2
Fore
SplineSet
64 320 m 1,0,-1
 64 576 l 1,1,-1
 128 576 l 1,2,-1
 192 576 l 1,3,-1
 192 352 l 1,4,-1
 192 128 l 1,5,-1
 256 128 l 1,6,-1
 320 128 l 1,7,-1
 320 352 l 1,8,-1
 320 576 l 1,9,-1
 384 576 l 1,10,-1
 448 576 l 1,11,-1
 448 288 l 1,12,-1
 448 0 l 1,13,-1
 288 0 l 1,14,-1
 128 0 l 1,15,-1
 128 32 l 1,16,-1
 128 64 l 1,17,-1
 96 64 l 1,18,-1
 64 64 l 1,19,-1
 64 320 l 1,0,-1
320 704 m 1,20,-1
 320 768 l 1,21,-1
 384 768 l 1,22,-1
 448 768 l 1,23,-1
 448 704 l 1,24,-1
 448 640 l 1,25,-1
 384 640 l 1,26,-1
 320 640 l 1,27,-1
 320 704 l 1,20,-1
64 704 m 1,28,-1
 64 768 l 1,29,-1
 128 768 l 1,30,-1
 192 768 l 1,31,-1
 192 704 l 1,32,-1
 192 640 l 1,33,-1
 128 640 l 1,34,-1
 64 640 l 1,35,-1
 64 704 l 1,28,-1
EndSplineSet
EndChar

StartChar: uni0082
Encoding: 130 130 132
Width: 512
Flags: W
LayerCount: 2
Fore
SplineSet
128 544 m 1,0,-1
 128 576 l 1,1,-1
 256 576 l 1,2,-1
 384 576 l 1,3,-1
 384 544 l 1,4,-1
 384 512 l 1,5,-1
 416 512 l 1,6,-1
 448 512 l 1,7,-1
 448 384 l 1,8,-1
 448 256 l 1,9,-1
 320 256 l 1,10,-1
 192 256 l 1,11,-1
 192 192 l 1,12,-1
 192 128 l 1,13,-1
 320 128 l 1,14,-1
 448 128 l 1,15,-1
 448 64 l 1,16,-1
 448 0 l 1,17,-1
 288 0 l 1,18,-1
 128 0 l 1,19,-1
 128 32 l 1,20,-1
 128 64 l 1,21,-1
 96 64 l 1,22,-1
 64 64 l 1,23,-1
 64 288 l 1,24,-1
 64 512 l 1,25,-1
 96 512 l 1,26,-1
 128 512 l 1,27,-1
 128 544 l 1,0,-1
320 384 m 1,28,-1
 320 448 l 1,29,-1
 256 448 l 1,30,-1
 192 448 l 1,31,-1
 192 384 l 1,32,-1
 192 320 l 1,33,-1
 256 320 l 1,34,-1
 320 320 l 1,35,-1
 320 384 l 1,28,-1
320 800 m 1,36,-1
 320 832 l 1,37,-1
 384 832 l 1,38,-1
 448 832 l 1,39,-1
 448 800 l 1,40,-1
 448 768 l 1,41,-1
 416 768 l 1,42,-1
 384 768 l 1,43,-1
 384 736 l 1,44,-1
 384 704 l 1,45,-1
 352 704 l 1,46,-1
 320 704 l 1,47,-1
 320 672 l 1,48,-1
 320 640 l 1,49,-1
 256 640 l 1,50,-1
 192 640 l 1,51,-1
 192 672 l 1,52,-1
 192 704 l 1,53,-1
 224 704 l 1,54,-1
 256 704 l 1,55,-1
 256 736 l 1,56,-1
 256 768 l 1,57,-1
 288 768 l 1,58,-1
 320 768 l 1,59,-1
 320 800 l 1,36,-1
EndSplineSet
EndChar

StartChar: uni0083
Encoding: 131 131 133
Width: 512
Flags: W
LayerCount: 2
Fore
SplineSet
128 512 m 1,0,-1
 128 576 l 1,1,-1
 256 576 l 1,2,-1
 384 576 l 1,3,-1
 384 544 l 1,4,-1
 384 512 l 1,5,-1
 416 512 l 1,6,-1
 448 512 l 1,7,-1
 448 256 l 1,8,-1
 448 0 l 1,9,-1
 288 0 l 1,10,-1
 128 0 l 1,11,-1
 128 32 l 1,12,-1
 128 64 l 1,13,-1
 96 64 l 1,14,-1
 64 64 l 1,15,-1
 64 192 l 1,16,-1
 64 320 l 1,17,-1
 96 320 l 1,18,-1
 128 320 l 1,19,-1
 128 352 l 1,20,-1
 128 384 l 1,21,-1
 224 384 l 1,22,-1
 320 384 l 1,23,-1
 320 416 l 1,24,-1
 320 448 l 1,25,-1
 224 448 l 1,26,-1
 128 448 l 1,27,-1
 128 512 l 1,0,-1
320 192 m 1,28,-1
 320 256 l 1,29,-1
 256 256 l 1,30,-1
 192 256 l 1,31,-1
 192 192 l 1,32,-1
 192 128 l 1,33,-1
 256 128 l 1,34,-1
 320 128 l 1,35,-1
 320 192 l 1,28,-1
192 800 m 1,36,-1
 192 832 l 1,37,-1
 256 832 l 1,38,-1
 320 832 l 1,39,-1
 320 800 l 1,40,-1
 320 768 l 1,41,-1
 352 768 l 1,42,-1
 384 768 l 1,43,-1
 384 736 l 1,44,-1
 384 704 l 1,45,-1
 416 704 l 1,46,-1
 448 704 l 1,47,-1
 448 672 l 1,48,-1
 448 640 l 1,49,-1
 384 640 l 1,50,-1
 320 640 l 1,51,-1
 320 672 l 1,52,-1
 320 704 l 1,53,-1
 256 704 l 1,54,-1
 192 704 l 1,55,-1
 192 672 l 1,56,-1
 192 640 l 1,57,-1
 128 640 l 1,58,-1
 64 640 l 1,59,-1
 64 672 l 1,60,-1
 64 704 l 1,61,-1
 96 704 l 1,62,-1
 128 704 l 1,63,-1
 128 736 l 1,64,-1
 128 768 l 1,65,-1
 160 768 l 1,66,-1
 192 768 l 1,67,-1
 192 800 l 1,36,-1
EndSplineSet
EndChar

StartChar: uni0084
Encoding: 132 132 134
Width: 512
Flags: W
LayerCount: 2
Fore
SplineSet
128 512 m 1,0,-1
 128 576 l 1,1,-1
 256 576 l 1,2,-1
 384 576 l 1,3,-1
 384 544 l 1,4,-1
 384 512 l 1,5,-1
 416 512 l 1,6,-1
 448 512 l 1,7,-1
 448 256 l 1,8,-1
 448 0 l 1,9,-1
 288 0 l 1,10,-1
 128 0 l 1,11,-1
 128 32 l 1,12,-1
 128 64 l 1,13,-1
 96 64 l 1,14,-1
 64 64 l 1,15,-1
 64 192 l 1,16,-1
 64 320 l 1,17,-1
 96 320 l 1,18,-1
 128 320 l 1,19,-1
 128 352 l 1,20,-1
 128 384 l 1,21,-1
 224 384 l 1,22,-1
 320 384 l 1,23,-1
 320 416 l 1,24,-1
 320 448 l 1,25,-1
 224 448 l 1,26,-1
 128 448 l 1,27,-1
 128 512 l 1,0,-1
320 192 m 1,28,-1
 320 256 l 1,29,-1
 256 256 l 1,30,-1
 192 256 l 1,31,-1
 192 192 l 1,32,-1
 192 128 l 1,33,-1
 256 128 l 1,34,-1
 320 128 l 1,35,-1
 320 192 l 1,28,-1
320 704 m 1,36,-1
 320 768 l 1,37,-1
 384 768 l 1,38,-1
 448 768 l 1,39,-1
 448 704 l 1,40,-1
 448 640 l 1,41,-1
 384 640 l 1,42,-1
 320 640 l 1,43,-1
 320 704 l 1,36,-1
64 704 m 1,44,-1
 64 768 l 1,45,-1
 128 768 l 1,46,-1
 192 768 l 1,47,-1
 192 704 l 1,48,-1
 192 640 l 1,49,-1
 128 640 l 1,50,-1
 64 640 l 1,51,-1
 64 704 l 1,44,-1
EndSplineSet
EndChar

StartChar: uni0085
Encoding: 133 133 135
Width: 512
Flags: W
LayerCount: 2
Fore
SplineSet
128 512 m 1,0,-1
 128 576 l 1,1,-1
 256 576 l 1,2,-1
 384 576 l 1,3,-1
 384 544 l 1,4,-1
 384 512 l 1,5,-1
 416 512 l 1,6,-1
 448 512 l 1,7,-1
 448 256 l 1,8,-1
 448 0 l 1,9,-1
 288 0 l 1,10,-1
 128 0 l 1,11,-1
 128 32 l 1,12,-1
 128 64 l 1,13,-1
 96 64 l 1,14,-1
 64 64 l 1,15,-1
 64 192 l 1,16,-1
 64 320 l 1,17,-1
 96 320 l 1,18,-1
 128 320 l 1,19,-1
 128 352 l 1,20,-1
 128 384 l 1,21,-1
 224 384 l 1,22,-1
 320 384 l 1,23,-1
 320 416 l 1,24,-1
 320 448 l 1,25,-1
 224 448 l 1,26,-1
 128 448 l 1,27,-1
 128 512 l 1,0,-1
320 192 m 1,28,-1
 320 256 l 1,29,-1
 256 256 l 1,30,-1
 192 256 l 1,31,-1
 192 192 l 1,32,-1
 192 128 l 1,33,-1
 256 128 l 1,34,-1
 320 128 l 1,35,-1
 320 192 l 1,28,-1
64 800 m 1,36,-1
 64 832 l 1,37,-1
 128 832 l 1,38,-1
 192 832 l 1,39,-1
 192 800 l 1,40,-1
 192 768 l 1,41,-1
 224 768 l 1,42,-1
 256 768 l 1,43,-1
 256 736 l 1,44,-1
 256 704 l 1,45,-1
 288 704 l 1,46,-1
 320 704 l 1,47,-1
 320 672 l 1,48,-1
 320 640 l 1,49,-1
 256 640 l 1,50,-1
 192 640 l 1,51,-1
 192 672 l 1,52,-1
 192 704 l 1,53,-1
 160 704 l 1,54,-1
 128 704 l 1,55,-1
 128 736 l 1,56,-1
 128 768 l 1,57,-1
 96 768 l 1,58,-1
 64 768 l 1,59,-1
 64 800 l 1,36,-1
EndSplineSet
EndChar

StartChar: uni0086
Encoding: 134 134 136
Width: 512
Flags: W
LayerCount: 2
Fore
SplineSet
128 512 m 1,0,-1
 128 576 l 1,1,-1
 256 576 l 1,2,-1
 384 576 l 1,3,-1
 384 544 l 1,4,-1
 384 512 l 1,5,-1
 416 512 l 1,6,-1
 448 512 l 1,7,-1
 448 256 l 1,8,-1
 448 0 l 1,9,-1
 288 0 l 1,10,-1
 128 0 l 1,11,-1
 128 32 l 1,12,-1
 128 64 l 1,13,-1
 96 64 l 1,14,-1
 64 64 l 1,15,-1
 64 192 l 1,16,-1
 64 320 l 1,17,-1
 96 320 l 1,18,-1
 128 320 l 1,19,-1
 128 352 l 1,20,-1
 128 384 l 1,21,-1
 224 384 l 1,22,-1
 320 384 l 1,23,-1
 320 416 l 1,24,-1
 320 448 l 1,25,-1
 224 448 l 1,26,-1
 128 448 l 1,27,-1
 128 512 l 1,0,-1
320 192 m 1,28,-1
 320 256 l 1,29,-1
 256 256 l 1,30,-1
 192 256 l 1,31,-1
 192 192 l 1,32,-1
 192 128 l 1,33,-1
 256 128 l 1,34,-1
 320 128 l 1,35,-1
 320 192 l 1,28,-1
192 800 m 1,36,-1
 192 832 l 1,37,-1
 288 832 l 1,38,-1
 384 832 l 1,39,-1
 384 800 l 1,40,-1
 384 768 l 1,41,-1
 416 768 l 1,42,-1
 448 768 l 1,43,-1
 448 736 l 1,44,-1
 448 704 l 1,45,-1
 416 704 l 1,46,-1
 384 704 l 1,47,-1
 384 672 l 1,48,-1
 384 640 l 1,49,-1
 288 640 l 1,50,-1
 192 640 l 1,51,-1
 192 672 l 1,52,-1
 192 704 l 1,53,-1
 160 704 l 1,54,-1
 128 704 l 1,55,-1
 128 736 l 1,56,-1
 128 768 l 1,57,-1
 160 768 l 1,58,-1
 192 768 l 1,59,-1
 192 800 l 1,36,-1
320 736 m 1,60,-1
 320 768 l 1,61,-1
 288 768 l 1,62,-1
 256 768 l 1,63,-1
 256 736 l 1,64,-1
 256 704 l 1,65,-1
 288 704 l 1,66,-1
 320 704 l 1,67,-1
 320 736 l 1,60,-1
EndSplineSet
EndChar

StartChar: uni0087
Encoding: 135 135 137
Width: 512
Flags: W
LayerCount: 2
Fore
SplineSet
128 544 m 1,0,-1
 128 576 l 1,1,-1
 256 576 l 1,2,-1
 384 576 l 1,3,-1
 384 512 l 1,4,-1
 384 448 l 1,5,-1
 288 448 l 1,6,-1
 192 448 l 1,7,-1
 192 288 l 1,8,-1
 192 128 l 1,9,-1
 320 128 l 1,10,-1
 448 128 l 1,11,-1
 448 64 l 1,12,-1
 448 0 l 1,13,-1
 416 0 l 1,14,-1
 384 0 l 1,15,-1
 384 -32 l 1,16,-1
 384 -64 l 1,17,-1
 352 -64 l 1,18,-1
 320 -64 l 1,19,-1
 320 -96 l 1,20,-1
 320 -128 l 1,21,-1
 224 -128 l 1,22,-1
 128 -128 l 1,23,-1
 128 -96 l 1,24,-1
 128 -64 l 1,25,-1
 192 -64 l 1,26,-1
 256 -64 l 1,27,-1
 256 -32 l 1,28,-1
 256 0 l 1,29,-1
 192 0 l 1,30,-1
 128 0 l 1,31,-1
 128 32 l 1,32,-1
 128 64 l 1,33,-1
 96 64 l 1,34,-1
 64 64 l 1,35,-1
 64 288 l 1,36,-1
 64 512 l 1,37,-1
 96 512 l 1,38,-1
 128 512 l 1,39,-1
 128 544 l 1,0,-1
EndSplineSet
EndChar

StartChar: uni0088
Encoding: 136 136 138
Width: 512
Flags: W
LayerCount: 2
Fore
SplineSet
128 544 m 1,0,-1
 128 576 l 1,1,-1
 256 576 l 1,2,-1
 384 576 l 1,3,-1
 384 544 l 1,4,-1
 384 512 l 1,5,-1
 416 512 l 1,6,-1
 448 512 l 1,7,-1
 448 384 l 1,8,-1
 448 256 l 1,9,-1
 320 256 l 1,10,-1
 192 256 l 1,11,-1
 192 192 l 1,12,-1
 192 128 l 1,13,-1
 320 128 l 1,14,-1
 448 128 l 1,15,-1
 448 64 l 1,16,-1
 448 0 l 1,17,-1
 288 0 l 1,18,-1
 128 0 l 1,19,-1
 128 32 l 1,20,-1
 128 64 l 1,21,-1
 96 64 l 1,22,-1
 64 64 l 1,23,-1
 64 288 l 1,24,-1
 64 512 l 1,25,-1
 96 512 l 1,26,-1
 128 512 l 1,27,-1
 128 544 l 1,0,-1
320 384 m 1,28,-1
 320 448 l 1,29,-1
 256 448 l 1,30,-1
 192 448 l 1,31,-1
 192 384 l 1,32,-1
 192 320 l 1,33,-1
 256 320 l 1,34,-1
 320 320 l 1,35,-1
 320 384 l 1,28,-1
192 800 m 1,36,-1
 192 832 l 1,37,-1
 256 832 l 1,38,-1
 320 832 l 1,39,-1
 320 800 l 1,40,-1
 320 768 l 1,41,-1
 352 768 l 1,42,-1
 384 768 l 1,43,-1
 384 736 l 1,44,-1
 384 704 l 1,45,-1
 416 704 l 1,46,-1
 448 704 l 1,47,-1
 448 672 l 1,48,-1
 448 640 l 1,49,-1
 384 640 l 1,50,-1
 320 640 l 1,51,-1
 320 672 l 1,52,-1
 320 704 l 1,53,-1
 256 704 l 1,54,-1
 192 704 l 1,55,-1
 192 672 l 1,56,-1
 192 640 l 1,57,-1
 128 640 l 1,58,-1
 64 640 l 1,59,-1
 64 672 l 1,60,-1
 64 704 l 1,61,-1
 96 704 l 1,62,-1
 128 704 l 1,63,-1
 128 736 l 1,64,-1
 128 768 l 1,65,-1
 160 768 l 1,66,-1
 192 768 l 1,67,-1
 192 800 l 1,36,-1
EndSplineSet
EndChar

StartChar: uni0089
Encoding: 137 137 139
Width: 512
Flags: W
LayerCount: 2
Fore
SplineSet
128 544 m 1,0,-1
 128 576 l 1,1,-1
 256 576 l 1,2,-1
 384 576 l 1,3,-1
 384 544 l 1,4,-1
 384 512 l 1,5,-1
 416 512 l 1,6,-1
 448 512 l 1,7,-1
 448 384 l 1,8,-1
 448 256 l 1,9,-1
 320 256 l 1,10,-1
 192 256 l 1,11,-1
 192 192 l 1,12,-1
 192 128 l 1,13,-1
 320 128 l 1,14,-1
 448 128 l 1,15,-1
 448 64 l 1,16,-1
 448 0 l 1,17,-1
 288 0 l 1,18,-1
 128 0 l 1,19,-1
 128 32 l 1,20,-1
 128 64 l 1,21,-1
 96 64 l 1,22,-1
 64 64 l 1,23,-1
 64 288 l 1,24,-1
 64 512 l 1,25,-1
 96 512 l 1,26,-1
 128 512 l 1,27,-1
 128 544 l 1,0,-1
320 384 m 1,28,-1
 320 448 l 1,29,-1
 256 448 l 1,30,-1
 192 448 l 1,31,-1
 192 384 l 1,32,-1
 192 320 l 1,33,-1
 256 320 l 1,34,-1
 320 320 l 1,35,-1
 320 384 l 1,28,-1
320 704 m 1,36,-1
 320 768 l 1,37,-1
 384 768 l 1,38,-1
 448 768 l 1,39,-1
 448 704 l 1,40,-1
 448 640 l 1,41,-1
 384 640 l 1,42,-1
 320 640 l 1,43,-1
 320 704 l 1,36,-1
64 704 m 1,44,-1
 64 768 l 1,45,-1
 128 768 l 1,46,-1
 192 768 l 1,47,-1
 192 704 l 1,48,-1
 192 640 l 1,49,-1
 128 640 l 1,50,-1
 64 640 l 1,51,-1
 64 704 l 1,44,-1
EndSplineSet
EndChar

StartChar: uni008A
Encoding: 138 138 140
Width: 512
Flags: W
LayerCount: 2
Fore
SplineSet
128 544 m 1,0,-1
 128 576 l 1,1,-1
 256 576 l 1,2,-1
 384 576 l 1,3,-1
 384 544 l 1,4,-1
 384 512 l 1,5,-1
 416 512 l 1,6,-1
 448 512 l 1,7,-1
 448 384 l 1,8,-1
 448 256 l 1,9,-1
 320 256 l 1,10,-1
 192 256 l 1,11,-1
 192 192 l 1,12,-1
 192 128 l 1,13,-1
 320 128 l 1,14,-1
 448 128 l 1,15,-1
 448 64 l 1,16,-1
 448 0 l 1,17,-1
 288 0 l 1,18,-1
 128 0 l 1,19,-1
 128 32 l 1,20,-1
 128 64 l 1,21,-1
 96 64 l 1,22,-1
 64 64 l 1,23,-1
 64 288 l 1,24,-1
 64 512 l 1,25,-1
 96 512 l 1,26,-1
 128 512 l 1,27,-1
 128 544 l 1,0,-1
320 384 m 1,28,-1
 320 448 l 1,29,-1
 256 448 l 1,30,-1
 192 448 l 1,31,-1
 192 384 l 1,32,-1
 192 320 l 1,33,-1
 256 320 l 1,34,-1
 320 320 l 1,35,-1
 320 384 l 1,28,-1
64 800 m 1,36,-1
 64 832 l 1,37,-1
 128 832 l 1,38,-1
 192 832 l 1,39,-1
 192 800 l 1,40,-1
 192 768 l 1,41,-1
 224 768 l 1,42,-1
 256 768 l 1,43,-1
 256 736 l 1,44,-1
 256 704 l 1,45,-1
 288 704 l 1,46,-1
 320 704 l 1,47,-1
 320 672 l 1,48,-1
 320 640 l 1,49,-1
 256 640 l 1,50,-1
 192 640 l 1,51,-1
 192 672 l 1,52,-1
 192 704 l 1,53,-1
 160 704 l 1,54,-1
 128 704 l 1,55,-1
 128 736 l 1,56,-1
 128 768 l 1,57,-1
 96 768 l 1,58,-1
 64 768 l 1,59,-1
 64 800 l 1,36,-1
EndSplineSet
EndChar

StartChar: uni008B
Encoding: 139 139 141
Width: 512
Flags: W
LayerCount: 2
Fore
SplineSet
128 512 m 1,0,-1
 128 576 l 1,1,-1
 224 576 l 1,2,-1
 320 576 l 1,3,-1
 320 352 l 1,4,-1
 320 128 l 1,5,-1
 352 128 l 1,6,-1
 384 128 l 1,7,-1
 384 64 l 1,8,-1
 384 0 l 1,9,-1
 256 0 l 1,10,-1
 128 0 l 1,11,-1
 128 64 l 1,12,-1
 128 128 l 1,13,-1
 160 128 l 1,14,-1
 192 128 l 1,15,-1
 192 288 l 1,16,-1
 192 448 l 1,17,-1
 160 448 l 1,18,-1
 128 448 l 1,19,-1
 128 512 l 1,0,-1
320 704 m 1,20,-1
 320 768 l 1,21,-1
 384 768 l 1,22,-1
 448 768 l 1,23,-1
 448 704 l 1,24,-1
 448 640 l 1,25,-1
 384 640 l 1,26,-1
 320 640 l 1,27,-1
 320 704 l 1,20,-1
64 704 m 1,28,-1
 64 768 l 1,29,-1
 128 768 l 1,30,-1
 192 768 l 1,31,-1
 192 704 l 1,32,-1
 192 640 l 1,33,-1
 128 640 l 1,34,-1
 64 640 l 1,35,-1
 64 704 l 1,28,-1
EndSplineSet
EndChar

StartChar: uni008C
Encoding: 140 140 142
Width: 512
Flags: W
LayerCount: 2
Fore
SplineSet
128 512 m 1,0,-1
 128 576 l 1,1,-1
 224 576 l 1,2,-1
 320 576 l 1,3,-1
 320 352 l 1,4,-1
 320 128 l 1,5,-1
 352 128 l 1,6,-1
 384 128 l 1,7,-1
 384 64 l 1,8,-1
 384 0 l 1,9,-1
 256 0 l 1,10,-1
 128 0 l 1,11,-1
 128 64 l 1,12,-1
 128 128 l 1,13,-1
 160 128 l 1,14,-1
 192 128 l 1,15,-1
 192 288 l 1,16,-1
 192 448 l 1,17,-1
 160 448 l 1,18,-1
 128 448 l 1,19,-1
 128 512 l 1,0,-1
192 800 m 1,20,-1
 192 832 l 1,21,-1
 256 832 l 1,22,-1
 320 832 l 1,23,-1
 320 800 l 1,24,-1
 320 768 l 1,25,-1
 352 768 l 1,26,-1
 384 768 l 1,27,-1
 384 736 l 1,28,-1
 384 704 l 1,29,-1
 416 704 l 1,30,-1
 448 704 l 1,31,-1
 448 672 l 1,32,-1
 448 640 l 1,33,-1
 384 640 l 1,34,-1
 320 640 l 1,35,-1
 320 672 l 1,36,-1
 320 704 l 1,37,-1
 256 704 l 1,38,-1
 192 704 l 1,39,-1
 192 672 l 1,40,-1
 192 640 l 1,41,-1
 128 640 l 1,42,-1
 64 640 l 1,43,-1
 64 672 l 1,44,-1
 64 704 l 1,45,-1
 96 704 l 1,46,-1
 128 704 l 1,47,-1
 128 736 l 1,48,-1
 128 768 l 1,49,-1
 160 768 l 1,50,-1
 192 768 l 1,51,-1
 192 800 l 1,20,-1
EndSplineSet
EndChar

StartChar: uni008D
Encoding: 141 141 143
Width: 512
Flags: W
LayerCount: 2
Fore
SplineSet
128 512 m 1,0,-1
 128 576 l 1,1,-1
 224 576 l 1,2,-1
 320 576 l 1,3,-1
 320 352 l 1,4,-1
 320 128 l 1,5,-1
 352 128 l 1,6,-1
 384 128 l 1,7,-1
 384 64 l 1,8,-1
 384 0 l 1,9,-1
 256 0 l 1,10,-1
 128 0 l 1,11,-1
 128 64 l 1,12,-1
 128 128 l 1,13,-1
 160 128 l 1,14,-1
 192 128 l 1,15,-1
 192 288 l 1,16,-1
 192 448 l 1,17,-1
 160 448 l 1,18,-1
 128 448 l 1,19,-1
 128 512 l 1,0,-1
64 800 m 1,20,-1
 64 832 l 1,21,-1
 128 832 l 1,22,-1
 192 832 l 1,23,-1
 192 800 l 1,24,-1
 192 768 l 1,25,-1
 224 768 l 1,26,-1
 256 768 l 1,27,-1
 256 736 l 1,28,-1
 256 704 l 1,29,-1
 288 704 l 1,30,-1
 320 704 l 1,31,-1
 320 672 l 1,32,-1
 320 640 l 1,33,-1
 256 640 l 1,34,-1
 192 640 l 1,35,-1
 192 672 l 1,36,-1
 192 704 l 1,37,-1
 160 704 l 1,38,-1
 128 704 l 1,39,-1
 128 736 l 1,40,-1
 128 768 l 1,41,-1
 96 768 l 1,42,-1
 64 768 l 1,43,-1
 64 800 l 1,20,-1
EndSplineSet
EndChar

StartChar: atarilefthalf
Encoding: 142 142 144
Width: 512
Flags: W
LayerCount: 2
Fore
SplineSet
64 768 m 1,0,-1
 64 832 l 1,1,-1
 128 832 l 1,2,-1
 192 832 l 1,3,-1
 192 768 l 1,4,-1
 192 704 l 1,5,-1
 256 704 l 1,6,-1
 320 704 l 1,7,-1
 320 768 l 1,8,-1
 320 832 l 1,9,-1
 384 832 l 1,10,-1
 448 832 l 1,11,-1
 448 768 l 1,12,-1
 448 704 l 1,13,-1
 384 704 l 1,14,-1
 320 704 l 1,15,-1
 320 672 l 1,16,-1
 320 640 l 1,17,-1
 352 640 l 1,18,-1
 384 640 l 1,19,-1
 384 608 l 1,20,-1
 384 576 l 1,21,-1
 416 576 l 1,22,-1
 448 576 l 1,23,-1
 448 288 l 1,24,-1
 448 0 l 1,25,-1
 384 0 l 1,26,-1
 320 0 l 1,27,-1
 320 128 l 1,28,-1
 320 256 l 1,29,-1
 256 256 l 1,30,-1
 192 256 l 1,31,-1
 192 128 l 1,32,-1
 192 0 l 1,33,-1
 128 0 l 1,34,-1
 64 0 l 1,35,-1
 64 288 l 1,36,-1
 64 576 l 1,37,-1
 96 576 l 1,38,-1
 128 576 l 1,39,-1
 128 608 l 1,40,-1
 128 640 l 1,41,-1
 160 640 l 1,42,-1
 192 640 l 1,43,-1
 192 672 l 1,44,-1
 192 704 l 1,45,-1
 128 704 l 1,46,-1
 64 704 l 1,47,-1
 64 768 l 1,0,-1
320 448 m 1,48,-1
 320 512 l 1,49,-1
 256 512 l 1,50,-1
 192 512 l 1,51,-1
 192 448 l 1,52,-1
 192 384 l 1,53,-1
 256 384 l 1,54,-1
 320 384 l 1,55,-1
 320 448 l 1,48,-1
EndSplineSet
EndChar

StartChar: ataririghthalf
Encoding: 143 143 145
Width: 512
Flags: W
LayerCount: 2
Fore
SplineSet
128 864 m 1,0,-1
 128 896 l 1,1,-1
 256 896 l 1,2,-1
 384 896 l 1,3,-1
 384 864 l 1,4,-1
 384 832 l 1,5,-1
 416 832 l 1,6,-1
 448 832 l 1,7,-1
 448 800 l 1,8,-1
 448 768 l 1,9,-1
 416 768 l 1,10,-1
 384 768 l 1,11,-1
 384 736 l 1,12,-1
 384 704 l 1,13,-1
 352 704 l 1,14,-1
 320 704 l 1,15,-1
 320 672 l 1,16,-1
 320 640 l 1,17,-1
 352 640 l 1,18,-1
 384 640 l 1,19,-1
 384 608 l 1,20,-1
 384 576 l 1,21,-1
 416 576 l 1,22,-1
 448 576 l 1,23,-1
 448 288 l 1,24,-1
 448 0 l 1,25,-1
 384 0 l 1,26,-1
 320 0 l 1,27,-1
 320 128 l 1,28,-1
 320 256 l 1,29,-1
 256 256 l 1,30,-1
 192 256 l 1,31,-1
 192 128 l 1,32,-1
 192 0 l 1,33,-1
 128 0 l 1,34,-1
 64 0 l 1,35,-1
 64 288 l 1,36,-1
 64 576 l 1,37,-1
 96 576 l 1,38,-1
 128 576 l 1,39,-1
 128 608 l 1,40,-1
 128 640 l 1,41,-1
 160 640 l 1,42,-1
 192 640 l 1,43,-1
 192 672 l 1,44,-1
 192 704 l 1,45,-1
 160 704 l 1,46,-1
 128 704 l 1,47,-1
 128 736 l 1,48,-1
 128 768 l 1,49,-1
 96 768 l 1,50,-1
 64 768 l 1,51,-1
 64 800 l 1,52,-1
 64 832 l 1,53,-1
 96 832 l 1,54,-1
 128 832 l 1,55,-1
 128 864 l 1,0,-1
320 800 m 1,56,-1
 320 832 l 1,57,-1
 256 832 l 1,58,-1
 192 832 l 1,59,-1
 192 800 l 1,60,-1
 192 768 l 1,61,-1
 256 768 l 1,62,-1
 320 768 l 1,63,-1
 320 800 l 1,56,-1
320 448 m 1,64,-1
 320 512 l 1,65,-1
 256 512 l 1,66,-1
 192 512 l 1,67,-1
 192 448 l 1,68,-1
 192 384 l 1,69,-1
 256 384 l 1,70,-1
 320 384 l 1,71,-1
 320 448 l 1,64,-1
EndSplineSet
EndChar

StartChar: uni0090
Encoding: 144 144 146
Width: 512
Flags: W
LayerCount: 2
Fore
SplineSet
64 320 m 1,0,-1
 64 704 l 1,1,-1
 256 704 l 1,2,-1
 448 704 l 1,3,-1
 448 576 l 1,4,-1
 322 576 l 5,5,-1
 192 576 l 1,6,-1
 192 480 l 1,7,-1
 192 448 l 1,8,-1
 288 448 l 1,9,-1
 384 448 l 1,10,-1
 384 384 l 1,11,-1
 384 320 l 1,12,-1
 288 320 l 1,13,-1
 192 320 l 1,14,-1
 192 224 l 1,15,-1
 192 128 l 1,16,-1
 320 128 l 1,17,-1
 448 128 l 1,18,-1
 448 64 l 1,19,-1
 448 0 l 1,20,-1
 256 0 l 1,21,-1
 64 0 l 1,22,-1
 64 320 l 1,0,-1
320 864 m 1,23,-1
 320 896 l 1,24,-1
 384 896 l 1,25,-1
 448 896 l 1,26,-1
 448 864 l 1,27,-1
 448 832 l 1,28,-1
 416 832 l 1,29,-1
 384 832 l 1,30,-1
 384 800 l 1,31,-1
 384 768 l 1,32,-1
 352 768 l 1,33,-1
 320 768 l 1,34,-1
 320 736 l 1,35,-1
 320 704 l 1,36,-1
 256 704 l 1,37,-1
 192 704 l 1,38,-1
 192 736 l 1,39,-1
 192 768 l 1,40,-1
 224 768 l 1,41,-1
 256 768 l 1,42,-1
 256 800 l 1,43,-1
 256 832 l 1,44,-1
 288 832 l 1,45,-1
 320 832 l 1,46,-1
 320 864 l 1,23,-1
EndSplineSet
EndChar

StartChar: uni0091
Encoding: 145 145 147
Width: 512
Flags: W
LayerCount: 2
Fore
SplineSet
64 512 m 1,0,-1
 64 576 l 1,1,-1
 160 576 l 1,2,-1
 256 576 l 1,3,-1
 256 544 l 1,4,-1
 256 512 l 1,5,-1
 288 512 l 1,6,-1
 320 512 l 1,7,-1
 320 544 l 1,8,-1
 320 576 l 1,9,-1
 384 576 l 1,10,-1
 448 576 l 1,11,-1
 448 544 l 1,12,-1
 448 512 l 1,13,-1
 480 512 l 1,14,-1
 512 512 l 1,15,-1
 512 384 l 1,16,-1
 512 256 l 1,17,-1
 416 256 l 1,18,-1
 320 256 l 1,19,-1
 320 192 l 1,20,-1
 320 128 l 1,21,-1
 416 128 l 1,22,-1
 512 128 l 1,23,-1
 512 64 l 1,24,-1
 512 0 l 1,25,-1
 288 0 l 1,26,-1
 64 0 l 1,27,-1
 64 32 l 1,28,-1
 64 64 l 1,29,-1
 32 64 l 1,30,-1
 0 64 l 1,31,-1
 0 192 l 1,32,-1
 0 320 l 1,33,-1
 32 320 l 1,34,-1
 64 320 l 1,35,-1
 64 352 l 1,36,-1
 64 384 l 1,37,-1
 128 384 l 1,38,-1
 192 384 l 1,39,-1
 192 416 l 1,40,-1
 192 448 l 1,41,-1
 128 448 l 1,42,-1
 64 448 l 1,43,-1
 64 512 l 1,0,-1
384 384 m 1,44,-1
 384 448 l 1,45,-1
 352 448 l 1,46,-1
 320 448 l 1,47,-1
 320 384 l 1,48,-1
 320 320 l 1,49,-1
 352 320 l 1,50,-1
 384 320 l 1,51,-1
 384 384 l 1,44,-1
192 192 m 1,52,-1
 192 256 l 1,53,-1
 160 256 l 1,54,-1
 128 256 l 1,55,-1
 128 192 l 1,56,-1
 128 128 l 1,57,-1
 160 128 l 1,58,-1
 192 128 l 1,59,-1
 192 192 l 1,52,-1
EndSplineSet
EndChar

StartChar: uni0092
Encoding: 146 146 148
Width: 512
Flags: W
LayerCount: 2
Fore
SplineSet
128 800 m 1,0,-1
 128 832 l 1,1,-1
 288 832 l 1,2,-1
 448 832 l 1,3,-1
 448 768 l 1,4,-1
 448 704 l 1,5,-1
 384 704 l 1,6,-1
 320 704 l 1,7,-1
 320 608 l 1,8,-1
 320 512 l 1,9,-1
 384 512 l 1,10,-1
 448 512 l 1,11,-1
 448 448 l 1,12,-1
 448 384 l 1,13,-1
 384 384 l 1,14,-1
 320 384 l 1,15,-1
 320 256 l 1,16,-1
 320 128 l 1,17,-1
 384 128 l 1,18,-1
 448 128 l 1,19,-1
 448 64 l 1,20,-1
 448 0 l 1,21,-1
 320 0 l 1,22,-1
 192 0 l 1,23,-1
 192 128 l 1,24,-1
 192 256 l 1,25,-1
 160 256 l 1,26,-1
 128 256 l 1,27,-1
 128 128 l 1,28,-1
 128 0 l 1,29,-1
 64 0 l 1,30,-1
 0 0 l 1,31,-1
 0 352 l 1,32,-1
 0 704 l 1,33,-1
 32 704 l 1,34,-1
 64 704 l 1,35,-1
 64 736 l 1,36,-1
 64 768 l 1,37,-1
 96 768 l 1,38,-1
 128 768 l 1,39,-1
 128 800 l 1,0,-1
192 512 m 1,40,-1
 192 640 l 1,41,-1
 160 640 l 1,42,-1
 128 640 l 1,43,-1
 128 512 l 1,44,-1
 128 384 l 1,45,-1
 160 384 l 1,46,-1
 192 384 l 1,47,-1
 192 512 l 1,40,-1
EndSplineSet
EndChar

StartChar: uni0093
Encoding: 147 147 149
Width: 512
Flags: W
LayerCount: 2
Fore
SplineSet
128 544 m 1,0,-1
 128 576 l 1,1,-1
 256 576 l 1,2,-1
 384 576 l 1,3,-1
 384 544 l 1,4,-1
 384 512 l 1,5,-1
 416 512 l 1,6,-1
 448 512 l 1,7,-1
 448 288 l 1,8,-1
 448 64 l 1,9,-1
 416 64 l 1,10,-1
 384 64 l 1,11,-1
 384 32 l 1,12,-1
 384 0 l 1,13,-1
 256 0 l 1,14,-1
 128 0 l 1,15,-1
 128 32 l 1,16,-1
 128 64 l 1,17,-1
 96 64 l 1,18,-1
 64 64 l 1,19,-1
 64 288 l 1,20,-1
 64 512 l 1,21,-1
 96 512 l 1,22,-1
 128 512 l 1,23,-1
 128 544 l 1,0,-1
320 288 m 1,24,-1
 320 448 l 1,25,-1
 256 448 l 1,26,-1
 192 448 l 1,27,-1
 192 288 l 1,28,-1
 192 128 l 1,29,-1
 256 128 l 1,30,-1
 320 128 l 1,31,-1
 320 288 l 1,24,-1
192 800 m 1,32,-1
 192 832 l 1,33,-1
 256 832 l 1,34,-1
 320 832 l 1,35,-1
 320 800 l 1,36,-1
 320 768 l 1,37,-1
 352 768 l 1,38,-1
 384 768 l 1,39,-1
 384 736 l 1,40,-1
 384 704 l 1,41,-1
 416 704 l 1,42,-1
 448 704 l 1,43,-1
 448 672 l 1,44,-1
 448 640 l 1,45,-1
 384 640 l 1,46,-1
 320 640 l 1,47,-1
 320 672 l 1,48,-1
 320 704 l 1,49,-1
 256 704 l 1,50,-1
 192 704 l 1,51,-1
 192 672 l 1,52,-1
 192 640 l 1,53,-1
 128 640 l 1,54,-1
 64 640 l 1,55,-1
 64 672 l 1,56,-1
 64 704 l 1,57,-1
 96 704 l 1,58,-1
 128 704 l 1,59,-1
 128 736 l 1,60,-1
 128 768 l 1,61,-1
 160 768 l 1,62,-1
 192 768 l 1,63,-1
 192 800 l 1,32,-1
EndSplineSet
EndChar

StartChar: uni0094
Encoding: 148 148 150
Width: 512
Flags: W
LayerCount: 2
Fore
SplineSet
128 544 m 1,0,-1
 128 576 l 1,1,-1
 256 576 l 1,2,-1
 384 576 l 1,3,-1
 384 544 l 1,4,-1
 384 512 l 1,5,-1
 416 512 l 1,6,-1
 448 512 l 1,7,-1
 448 288 l 1,8,-1
 448 64 l 1,9,-1
 416 64 l 1,10,-1
 384 64 l 1,11,-1
 384 32 l 1,12,-1
 384 0 l 1,13,-1
 256 0 l 1,14,-1
 128 0 l 1,15,-1
 128 32 l 1,16,-1
 128 64 l 1,17,-1
 96 64 l 1,18,-1
 64 64 l 1,19,-1
 64 288 l 1,20,-1
 64 512 l 1,21,-1
 96 512 l 1,22,-1
 128 512 l 1,23,-1
 128 544 l 1,0,-1
320 288 m 1,24,-1
 320 448 l 1,25,-1
 256 448 l 1,26,-1
 192 448 l 1,27,-1
 192 288 l 1,28,-1
 192 128 l 1,29,-1
 256 128 l 1,30,-1
 320 128 l 1,31,-1
 320 288 l 1,24,-1
320 704 m 1,32,-1
 320 768 l 1,33,-1
 384 768 l 1,34,-1
 448 768 l 1,35,-1
 448 704 l 1,36,-1
 448 640 l 1,37,-1
 384 640 l 1,38,-1
 320 640 l 1,39,-1
 320 704 l 1,32,-1
64 704 m 1,40,-1
 64 768 l 1,41,-1
 128 768 l 1,42,-1
 192 768 l 1,43,-1
 192 704 l 1,44,-1
 192 640 l 1,45,-1
 128 640 l 1,46,-1
 64 640 l 1,47,-1
 64 704 l 1,40,-1
EndSplineSet
EndChar

StartChar: uni0095
Encoding: 149 149 151
Width: 512
Flags: W
LayerCount: 2
Fore
SplineSet
128 544 m 1,0,-1
 128 576 l 1,1,-1
 256 576 l 1,2,-1
 384 576 l 1,3,-1
 384 544 l 1,4,-1
 384 512 l 1,5,-1
 416 512 l 1,6,-1
 448 512 l 1,7,-1
 448 288 l 1,8,-1
 448 64 l 1,9,-1
 416 64 l 1,10,-1
 384 64 l 1,11,-1
 384 32 l 1,12,-1
 384 0 l 1,13,-1
 256 0 l 1,14,-1
 128 0 l 1,15,-1
 128 32 l 1,16,-1
 128 64 l 1,17,-1
 96 64 l 1,18,-1
 64 64 l 1,19,-1
 64 288 l 1,20,-1
 64 512 l 1,21,-1
 96 512 l 1,22,-1
 128 512 l 1,23,-1
 128 544 l 1,0,-1
320 288 m 1,24,-1
 320 448 l 1,25,-1
 256 448 l 1,26,-1
 192 448 l 1,27,-1
 192 288 l 1,28,-1
 192 128 l 1,29,-1
 256 128 l 1,30,-1
 320 128 l 1,31,-1
 320 288 l 1,24,-1
64 800 m 1,32,-1
 64 832 l 1,33,-1
 128 832 l 1,34,-1
 192 832 l 1,35,-1
 192 800 l 1,36,-1
 192 768 l 1,37,-1
 224 768 l 1,38,-1
 256 768 l 1,39,-1
 256 736 l 1,40,-1
 256 704 l 1,41,-1
 288 704 l 1,42,-1
 320 704 l 1,43,-1
 320 672 l 1,44,-1
 320 640 l 1,45,-1
 256 640 l 1,46,-1
 192 640 l 1,47,-1
 192 672 l 1,48,-1
 192 704 l 1,49,-1
 160 704 l 1,50,-1
 128 704 l 1,51,-1
 128 736 l 1,52,-1
 128 768 l 1,53,-1
 96 768 l 1,54,-1
 64 768 l 1,55,-1
 64 800 l 1,32,-1
EndSplineSet
EndChar

StartChar: uni0096
Encoding: 150 150 152
Width: 512
Flags: W
LayerCount: 2
Fore
SplineSet
64 320 m 1,0,-1
 64 576 l 1,1,-1
 128 576 l 1,2,-1
 192 576 l 1,3,-1
 192 352 l 1,4,-1
 192 128 l 1,5,-1
 256 128 l 1,6,-1
 320 128 l 1,7,-1
 320 352 l 1,8,-1
 320 576 l 1,9,-1
 384 576 l 1,10,-1
 448 576 l 1,11,-1
 448 288 l 1,12,-1
 448 0 l 1,13,-1
 288 0 l 1,14,-1
 128 0 l 1,15,-1
 128 32 l 1,16,-1
 128 64 l 1,17,-1
 96 64 l 1,18,-1
 64 64 l 1,19,-1
 64 320 l 1,0,-1
192 800 m 1,20,-1
 192 832 l 1,21,-1
 256 832 l 1,22,-1
 320 832 l 1,23,-1
 320 800 l 1,24,-1
 320 768 l 1,25,-1
 352 768 l 1,26,-1
 384 768 l 1,27,-1
 384 736 l 1,28,-1
 384 704 l 1,29,-1
 416 704 l 1,30,-1
 448 704 l 1,31,-1
 448 672 l 1,32,-1
 448 640 l 1,33,-1
 384 640 l 1,34,-1
 320 640 l 1,35,-1
 320 672 l 1,36,-1
 320 704 l 1,37,-1
 256 704 l 1,38,-1
 192 704 l 1,39,-1
 192 672 l 1,40,-1
 192 640 l 1,41,-1
 128 640 l 1,42,-1
 64 640 l 1,43,-1
 64 672 l 1,44,-1
 64 704 l 1,45,-1
 96 704 l 1,46,-1
 128 704 l 1,47,-1
 128 736 l 1,48,-1
 128 768 l 1,49,-1
 160 768 l 1,50,-1
 192 768 l 1,51,-1
 192 800 l 1,20,-1
EndSplineSet
EndChar

StartChar: uni0097
Encoding: 151 151 153
Width: 512
Flags: W
LayerCount: 2
Fore
SplineSet
64 320 m 1,0,-1
 64 576 l 1,1,-1
 128 576 l 1,2,-1
 192 576 l 1,3,-1
 192 352 l 1,4,-1
 192 128 l 1,5,-1
 256 128 l 1,6,-1
 320 128 l 1,7,-1
 320 352 l 1,8,-1
 320 576 l 1,9,-1
 384 576 l 1,10,-1
 448 576 l 1,11,-1
 448 288 l 1,12,-1
 448 0 l 1,13,-1
 288 0 l 1,14,-1
 128 0 l 1,15,-1
 128 32 l 1,16,-1
 128 64 l 1,17,-1
 96 64 l 1,18,-1
 64 64 l 1,19,-1
 64 320 l 1,0,-1
64 800 m 1,20,-1
 64 832 l 1,21,-1
 128 832 l 1,22,-1
 192 832 l 1,23,-1
 192 800 l 1,24,-1
 192 768 l 1,25,-1
 224 768 l 1,26,-1
 256 768 l 1,27,-1
 256 736 l 1,28,-1
 256 704 l 1,29,-1
 288 704 l 1,30,-1
 320 704 l 1,31,-1
 320 672 l 1,32,-1
 320 640 l 1,33,-1
 256 640 l 1,34,-1
 192 640 l 1,35,-1
 192 672 l 1,36,-1
 192 704 l 1,37,-1
 160 704 l 1,38,-1
 128 704 l 1,39,-1
 128 736 l 1,40,-1
 128 768 l 1,41,-1
 96 768 l 1,42,-1
 64 768 l 1,43,-1
 64 800 l 1,20,-1
EndSplineSet
EndChar

StartChar: uni0098
Encoding: 152 152 154
Width: 512
Flags: W
LayerCount: 2
Fore
SplineSet
64 352 m 1,0,-1
 64 576 l 1,1,-1
 128 576 l 1,2,-1
 192 576 l 1,3,-1
 192 384 l 1,4,-1
 192 192 l 1,5,-1
 256 192 l 1,6,-1
 320 192 l 1,7,-1
 320 384 l 1,8,-1
 320 576 l 1,9,-1
 384 576 l 1,10,-1
 448 576 l 1,11,-1
 448 256 l 1,12,-1
 448 -64 l 1,13,-1
 416 -64 l 1,14,-1
 384 -64 l 1,15,-1
 384 -96 l 1,16,-1
 384 -128 l 1,17,-1
 224 -128 l 1,18,-1
 64 -128 l 1,19,-1
 64 -64 l 1,20,-1
 64 0 l 1,21,-1
 192 0 l 1,22,-1
 320 0 l 1,23,-1
 320 32 l 1,24,-1
 320 64 l 1,25,-1
 224 64 l 1,26,-1
 128 64 l 1,27,-1
 128 96 l 1,28,-1
 128 128 l 1,29,-1
 96 128 l 1,30,-1
 64 128 l 1,31,-1
 64 352 l 1,0,-1
320 704 m 1,32,-1
 320 768 l 1,33,-1
 384 768 l 1,34,-1
 448 768 l 1,35,-1
 448 704 l 1,36,-1
 448 640 l 1,37,-1
 384 640 l 1,38,-1
 320 640 l 1,39,-1
 320 704 l 1,32,-1
64 704 m 1,40,-1
 64 768 l 1,41,-1
 128 768 l 1,42,-1
 192 768 l 1,43,-1
 192 704 l 1,44,-1
 192 640 l 1,45,-1
 128 640 l 1,46,-1
 64 640 l 1,47,-1
 64 704 l 1,40,-1
EndSplineSet
EndChar

StartChar: uni0099
Encoding: 153 153 155
Width: 512
Flags: W
LayerCount: 2
Fore
SplineSet
128 608 m 1,0,-1
 128 640 l 1,1,-1
 256 640 l 1,2,-1
 384 640 l 1,3,-1
 384 608 l 1,4,-1
 384 576 l 1,5,-1
 416 576 l 1,6,-1
 448 576 l 1,7,-1
 448 320 l 1,8,-1
 448 64 l 1,9,-1
 416 64 l 1,10,-1
 384 64 l 1,11,-1
 384 32 l 1,12,-1
 384 0 l 1,13,-1
 256 0 l 1,14,-1
 128 0 l 1,15,-1
 128 32 l 1,16,-1
 128 64 l 1,17,-1
 96 64 l 1,18,-1
 64 64 l 1,19,-1
 64 320 l 1,20,-1
 64 576 l 1,21,-1
 96 576 l 1,22,-1
 128 576 l 1,23,-1
 128 608 l 1,0,-1
320 320 m 1,24,-1
 320 512 l 1,25,-1
 256 512 l 1,26,-1
 192 512 l 1,27,-1
 192 320 l 1,28,-1
 192 128 l 1,29,-1
 256 128 l 1,30,-1
 320 128 l 1,31,-1
 320 320 l 1,24,-1
320 768 m 1,32,-1
 320 832 l 1,33,-1
 384 832 l 1,34,-1
 448 832 l 1,35,-1
 448 768 l 1,36,-1
 448 704 l 1,37,-1
 384 704 l 1,38,-1
 320 704 l 1,39,-1
 320 768 l 1,32,-1
64 768 m 1,40,-1
 64 832 l 1,41,-1
 128 832 l 1,42,-1
 192 832 l 1,43,-1
 192 768 l 1,44,-1
 192 704 l 1,45,-1
 128 704 l 1,46,-1
 64 704 l 1,47,-1
 64 768 l 1,40,-1
EndSplineSet
EndChar

StartChar: uni009A
Encoding: 154 154 156
Width: 512
Flags: W
LayerCount: 2
Fore
SplineSet
64 352 m 1,0,-1
 64 640 l 1,1,-1
 128 640 l 1,2,-1
 192 640 l 1,3,-1
 192 384 l 1,4,-1
 192 128 l 1,5,-1
 256 128 l 1,6,-1
 320 128 l 1,7,-1
 320 384 l 1,8,-1
 320 640 l 1,9,-1
 384 640 l 1,10,-1
 448 640 l 1,11,-1
 448 352 l 1,12,-1
 448 64 l 1,13,-1
 416 64 l 1,14,-1
 384 64 l 1,15,-1
 384 32 l 1,16,-1
 384 0 l 1,17,-1
 256 0 l 1,18,-1
 128 0 l 1,19,-1
 128 32 l 1,20,-1
 128 64 l 1,21,-1
 96 64 l 1,22,-1
 64 64 l 1,23,-1
 64 352 l 1,0,-1
320 768 m 1,24,-1
 320 832 l 1,25,-1
 384 832 l 1,26,-1
 448 832 l 1,27,-1
 448 768 l 1,28,-1
 448 704 l 1,29,-1
 384 704 l 1,30,-1
 320 704 l 1,31,-1
 320 768 l 1,24,-1
64 768 m 1,32,-1
 64 832 l 1,33,-1
 128 832 l 1,34,-1
 192 832 l 1,35,-1
 192 768 l 1,36,-1
 192 704 l 1,37,-1
 128 704 l 1,38,-1
 64 704 l 1,39,-1
 64 768 l 1,32,-1
EndSplineSet
EndChar

StartChar: uni009B
Encoding: 155 155 157
Width: 512
Flags: W
LayerCount: 2
Fore
SplineSet
192 704 m 1,0,-1
 192 768 l 1,1,-1
 256 768 l 1,2,-1
 320 768 l 1,3,-1
 320 704 l 1,4,-1
 320 640 l 1,5,-1
 352 640 l 1,6,-1
 384 640 l 1,7,-1
 384 608 l 1,8,-1
 384 576 l 1,9,-1
 416 576 l 1,10,-1
 448 576 l 1,11,-1
 448 512 l 1,12,-1
 448 448 l 1,13,-1
 384 448 l 1,14,-1
 320 448 l 1,15,-1
 320 480 l 1,16,-1
 320 512 l 1,17,-1
 256 512 l 1,18,-1
 192 512 l 1,19,-1
 192 384 l 1,20,-1
 192 256 l 1,21,-1
 256 256 l 1,22,-1
 320 256 l 1,23,-1
 320 288 l 1,24,-1
 320 320 l 1,25,-1
 384 320 l 1,26,-1
 448 320 l 1,27,-1
 448 256 l 1,28,-1
 448 192 l 1,29,-1
 416 192 l 1,30,-1
 384 192 l 1,31,-1
 384 160 l 1,32,-1
 384 128 l 1,33,-1
 352 128 l 1,34,-1
 320 128 l 1,35,-1
 320 64 l 1,36,-1
 320 0 l 1,37,-1
 256 0 l 1,38,-1
 192 0 l 1,39,-1
 192 64 l 1,40,-1
 192 128 l 1,41,-1
 160 128 l 1,42,-1
 128 128 l 1,43,-1
 128 160 l 1,44,-1
 128 192 l 1,45,-1
 96 192 l 1,46,-1
 64 192 l 1,47,-1
 64 384 l 1,48,-1
 64 576 l 1,49,-1
 96 576 l 1,50,-1
 128 576 l 1,51,-1
 128 608 l 1,52,-1
 128 640 l 1,53,-1
 160 640 l 1,54,-1
 192 640 l 1,55,-1
 192 704 l 1,0,-1
EndSplineSet
EndChar

StartChar: U009C
Encoding: 156 156 158
Width: 512
Flags: W
LayerCount: 2
Fore
SplineSet
256 800 m 1,0,-1
 256 832 l 1,1,-1
 352 832 l 1,2,-1
 448 832 l 1,3,-1
 448 768 l 1,4,-1
 448 704 l 1,5,-1
 384 704 l 1,6,-1
 320 704 l 1,7,-1
 320 672 l 1,8,-1
 320 640 l 1,9,-1
 288 640 l 1,10,-1
 256 640 l 1,11,-1
 256 512 l 1,12,-1
 256 384 l 1,13,-1
 352 384 l 1,14,-1
 448 384 l 1,15,-1
 448 352 l 1,16,-1
 448 320 l 1,17,-1
 352 320 l 1,18,-1
 256 320 l 1,19,-1
 256 224 l 1,20,-1
 256 128 l 1,21,-1
 384 128 l 1,22,-1
 512 128 l 1,23,-1
 512 64 l 1,24,-1
 512 0 l 1,25,-1
 256 0 l 1,26,-1
 0 0 l 1,27,-1
 0 32 l 1,28,-1
 0 64 l 1,29,-1
 32 64 l 1,30,-1
 64 64 l 1,31,-1
 64 96 l 1,32,-1
 64 128 l 1,33,-1
 96 128 l 1,34,-1
 128 128 l 1,35,-1
 128 224 l 1,36,-1
 128 320 l 1,37,-1
 64 320 l 1,38,-1
 0 320 l 1,39,-1
 0 352 l 1,40,-1
 0 384 l 1,41,-1
 64 384 l 1,42,-1
 128 384 l 1,43,-1
 128 544 l 1,44,-1
 128 704 l 1,45,-1
 160 704 l 1,46,-1
 192 704 l 1,47,-1
 192 736 l 1,48,-1
 192 768 l 1,49,-1
 224 768 l 1,50,-1
 256 768 l 1,51,-1
 256 800 l 1,0,-1
EndSplineSet
EndChar

StartChar: uni009F
Encoding: 159 159 159
Width: 512
Flags: W
LayerCount: 2
Fore
SplineSet
256 736 m 1,0,-1
 256 768 l 1,1,-1
 352 768 l 1,2,-1
 448 768 l 1,3,-1
 448 704 l 1,4,-1
 448 640 l 1,5,-1
 384 640 l 1,6,-1
 320 640 l 1,7,-1
 320 544 l 1,8,-1
 320 448 l 1,9,-1
 384 448 l 1,10,-1
 448 448 l 1,11,-1
 448 416 l 1,12,-1
 448 384 l 1,13,-1
 384 384 l 1,14,-1
 320 384 l 1,15,-1
 320 224 l 1,16,-1
 320 64 l 1,17,-1
 288 64 l 1,18,-1
 256 64 l 1,19,-1
 256 32 l 1,20,-1
 256 0 l 1,21,-1
 224 0 l 1,22,-1
 192 0 l 1,23,-1
 192 -32 l 1,24,-1
 192 -64 l 1,25,-1
 128 -64 l 1,26,-1
 64 -64 l 1,27,-1
 64 0 l 1,28,-1
 64 64 l 1,29,-1
 128 64 l 1,30,-1
 192 64 l 1,31,-1
 192 224 l 1,32,-1
 192 384 l 1,33,-1
 128 384 l 1,34,-1
 64 384 l 1,35,-1
 64 416 l 1,36,-1
 64 448 l 1,37,-1
 128 448 l 1,38,-1
 192 448 l 1,39,-1
 192 576 l 1,40,-1
 192 704 l 1,41,-1
 224 704 l 1,42,-1
 256 704 l 1,43,-1
 256 736 l 1,0,-1
EndSplineSet
EndChar

StartChar: exclamdown
Encoding: 161 161 160
Width: 512
Flags: W
LayerCount: 2
Fore
SplineSet
128 512 m 1,0,-1
 128 576 l 1,1,-1
 224 576 l 1,2,-1
 320 576 l 1,3,-1
 320 352 l 1,4,-1
 320 128 l 1,5,-1
 352 128 l 1,6,-1
 384 128 l 1,7,-1
 384 64 l 1,8,-1
 384 0 l 1,9,-1
 256 0 l 1,10,-1
 128 0 l 1,11,-1
 128 64 l 1,12,-1
 128 128 l 1,13,-1
 160 128 l 1,14,-1
 192 128 l 1,15,-1
 192 288 l 1,16,-1
 192 448 l 1,17,-1
 160 448 l 1,18,-1
 128 448 l 1,19,-1
 128 512 l 1,0,-1
320 800 m 1,20,-1
 320 832 l 1,21,-1
 384 832 l 1,22,-1
 448 832 l 1,23,-1
 448 800 l 1,24,-1
 448 768 l 1,25,-1
 416 768 l 1,26,-1
 384 768 l 1,27,-1
 384 736 l 1,28,-1
 384 704 l 1,29,-1
 352 704 l 1,30,-1
 320 704 l 1,31,-1
 320 672 l 1,32,-1
 320 640 l 1,33,-1
 256 640 l 1,34,-1
 192 640 l 1,35,-1
 192 672 l 1,36,-1
 192 704 l 1,37,-1
 224 704 l 1,38,-1
 256 704 l 1,39,-1
 256 736 l 1,40,-1
 256 768 l 1,41,-1
 288 768 l 1,42,-1
 320 768 l 1,43,-1
 320 800 l 1,20,-1
EndSplineSet
EndChar

StartChar: cent
Encoding: 162 162 161
Width: 512
Flags: W
LayerCount: 2
Fore
SplineSet
128 544 m 1,0,-1
 128 576 l 1,1,-1
 256 576 l 1,2,-1
 384 576 l 1,3,-1
 384 544 l 1,4,-1
 384 512 l 1,5,-1
 416 512 l 1,6,-1
 448 512 l 1,7,-1
 448 288 l 1,8,-1
 448 64 l 1,9,-1
 416 64 l 1,10,-1
 384 64 l 1,11,-1
 384 32 l 1,12,-1
 384 0 l 1,13,-1
 256 0 l 1,14,-1
 128 0 l 1,15,-1
 128 32 l 1,16,-1
 128 64 l 1,17,-1
 96 64 l 1,18,-1
 64 64 l 1,19,-1
 64 288 l 1,20,-1
 64 512 l 1,21,-1
 96 512 l 1,22,-1
 128 512 l 1,23,-1
 128 544 l 1,0,-1
320 288 m 1,24,-1
 320 448 l 1,25,-1
 256 448 l 1,26,-1
 192 448 l 1,27,-1
 192 288 l 1,28,-1
 192 128 l 1,29,-1
 256 128 l 1,30,-1
 320 128 l 1,31,-1
 320 288 l 1,24,-1
320 800 m 1,32,-1
 320 832 l 1,33,-1
 384 832 l 1,34,-1
 448 832 l 1,35,-1
 448 800 l 1,36,-1
 448 768 l 1,37,-1
 416 768 l 1,38,-1
 384 768 l 1,39,-1
 384 736 l 1,40,-1
 384 704 l 1,41,-1
 352 704 l 1,42,-1
 320 704 l 1,43,-1
 320 672 l 1,44,-1
 320 640 l 1,45,-1
 256 640 l 1,46,-1
 192 640 l 1,47,-1
 192 672 l 1,48,-1
 192 704 l 1,49,-1
 224 704 l 1,50,-1
 256 704 l 1,51,-1
 256 736 l 1,52,-1
 256 768 l 1,53,-1
 288 768 l 1,54,-1
 320 768 l 1,55,-1
 320 800 l 1,32,-1
EndSplineSet
EndChar

StartChar: sterling
Encoding: 163 163 162
Width: 512
Flags: W
LayerCount: 2
Fore
SplineSet
64 320 m 1,0,-1
 64 576 l 1,1,-1
 128 576 l 1,2,-1
 192 576 l 1,3,-1
 192 352 l 1,4,-1
 192 128 l 1,5,-1
 256 128 l 1,6,-1
 320 128 l 1,7,-1
 320 352 l 1,8,-1
 320 576 l 1,9,-1
 384 576 l 1,10,-1
 448 576 l 1,11,-1
 448 288 l 1,12,-1
 448 0 l 1,13,-1
 288 0 l 1,14,-1
 128 0 l 1,15,-1
 128 32 l 1,16,-1
 128 64 l 1,17,-1
 96 64 l 1,18,-1
 64 64 l 1,19,-1
 64 320 l 1,0,-1
320 800 m 1,20,-1
 320 832 l 1,21,-1
 384 832 l 1,22,-1
 448 832 l 1,23,-1
 448 800 l 1,24,-1
 448 768 l 1,25,-1
 416 768 l 1,26,-1
 384 768 l 1,27,-1
 384 736 l 1,28,-1
 384 704 l 1,29,-1
 352 704 l 1,30,-1
 320 704 l 1,31,-1
 320 672 l 1,32,-1
 320 640 l 1,33,-1
 256 640 l 1,34,-1
 192 640 l 1,35,-1
 192 672 l 1,36,-1
 192 704 l 1,37,-1
 224 704 l 1,38,-1
 256 704 l 1,39,-1
 256 736 l 1,40,-1
 256 768 l 1,41,-1
 288 768 l 1,42,-1
 320 768 l 1,43,-1
 320 800 l 1,20,-1
EndSplineSet
EndChar

StartChar: Euro
Encoding: 8364 8364 163
Width: 512
Flags: W
LayerCount: 2
Fore
SplineSet
128 672 m 1,0,-1
 128 704 l 1,1,-1
 256 704 l 1,2,-1
 384 704 l 1,3,-1
 384 672 l 1,4,-1
 384 640 l 1,5,-1
 416 640 l 1,6,-1
 448 640 l 1,7,-1
 448 576 l 1,8,-1
 448 512 l 1,9,-1
 384 512 l 1,10,-1
 320 512 l 1,11,-1
 320 544 l 1,12,-1
 320 576 l 1,13,-1
 256 576 l 1,14,-1
 192 576 l 1,15,-1
 192 512 l 1,16,-1
 192 448 l 1,17,-1
 288 448 l 1,18,-1
 384 448 l 1,19,-1
 384 416 l 1,20,-1
 384 384 l 1,21,-1
 288 384 l 1,22,-1
 192 384 l 1,23,-1
 192 352 l 1,24,-1
 192 320 l 1,25,-1
 288 320 l 1,26,-1
 384 320 l 1,27,-1
 384 288 l 1,28,-1
 384 256 l 1,29,-1
 288 256 l 1,30,-1
 192 256 l 1,31,-1
 192 192 l 1,32,-1
 192 128 l 1,33,-1
 256 128 l 1,34,-1
 320 128 l 1,35,-1
 320 160 l 1,36,-1
 320 192 l 1,37,-1
 384 192 l 1,38,-1
 448 192 l 1,39,-1
 448 128 l 1,40,-1
 448 64 l 1,41,-1
 416 64 l 1,42,-1
 384 64 l 1,43,-1
 384 32 l 1,44,-1
 384 0 l 1,45,-1
 256 0 l 1,46,-1
 128 0 l 1,47,-1
 128 32 l 1,48,-1
 128 64 l 1,49,-1
 96 64 l 1,50,-1
 64 64 l 1,51,-1
 64 160 l 1,52,-1
 64 256 l 1,53,-1
 32 256 l 1,54,-1
 0 256 l 1,55,-1
 0 288 l 1,56,-1
 0 320 l 1,57,-1
 32 320 l 1,58,-1
 64 320 l 1,59,-1
 64 352 l 1,60,-1
 64 384 l 1,61,-1
 32 384 l 1,62,-1
 0 384 l 1,63,-1
 0 416 l 1,64,-1
 0 448 l 1,65,-1
 32 448 l 1,66,-1
 64 448 l 1,67,-1
 64 544 l 1,68,-1
 64 640 l 1,69,-1
 96 640 l 1,70,-1
 128 640 l 1,71,-1
 128 672 l 1,0,-1
EndSplineSet
EndChar

StartChar: yen
Encoding: 165 165 164
Width: 512
Flags: W
LayerCount: 2
Fore
SplineSet
64 288 m 1,0,-1
 64 576 l 1,1,-1
 128 576 l 1,2,-1
 192 576 l 1,3,-1
 192 512 l 1,4,-1
 192 448 l 1,5,-1
 224 448 l 1,6,-1
 256 448 l 1,7,-1
 256 416 l 1,8,-1
 256 384 l 1,9,-1
 288 384 l 1,10,-1
 320 384 l 1,11,-1
 320 480 l 1,12,-1
 320 576 l 1,13,-1
 384 576 l 1,14,-1
 448 576 l 1,15,-1
 448 288 l 1,16,-1
 448 0 l 1,17,-1
 384 0 l 1,18,-1
 320 0 l 1,19,-1
 320 96 l 1,20,-1
 320 192 l 1,21,-1
 288 192 l 1,22,-1
 256 192 l 1,23,-1
 256 224 l 1,24,-1
 256 256 l 1,25,-1
 224 256 l 1,26,-1
 192 256 l 1,27,-1
 192 128 l 1,28,-1
 192 0 l 1,29,-1
 128 0 l 1,30,-1
 64 0 l 1,31,-1
 64 288 l 1,0,-1
128 800 m 1,32,-1
 128 832 l 1,33,-1
 192 832 l 1,34,-1
 256 832 l 1,35,-1
 256 800 l 1,36,-1
 256 768 l 1,37,-1
 288 768 l 1,38,-1
 320 768 l 1,39,-1
 320 736 l 1,40,-1
 320 704 l 1,41,-1
 352 704 l 1,42,-1
 384 704 l 1,43,-1
 384 768 l 1,44,-1
 384 832 l 1,45,-1
 416 832 l 1,46,-1
 448 832 l 1,47,-1
 448 768 l 1,48,-1
 448 704 l 1,49,-1
 416 704 l 1,50,-1
 384 704 l 1,51,-1
 384 672 l 1,52,-1
 384 640 l 1,53,-1
 320 640 l 1,54,-1
 256 640 l 1,55,-1
 256 672 l 1,56,-1
 256 704 l 1,57,-1
 192 704 l 1,58,-1
 128 704 l 1,59,-1
 128 672 l 1,60,-1
 128 640 l 1,61,-1
 96 640 l 1,62,-1
 64 640 l 1,63,-1
 64 704 l 1,64,-1
 64 768 l 1,65,-1
 96 768 l 1,66,-1
 128 768 l 1,67,-1
 128 800 l 1,32,-1
EndSplineSet
EndChar

StartChar: Scaron
Encoding: 352 352 165
Width: 512
Flags: W
LayerCount: 2
Fore
SplineSet
64 864 m 1,0,-1
 64 896 l 1,1,-1
 128 896 l 1,2,-1
 192 896 l 1,3,-1
 192 864 l 1,4,-1
 192 832 l 1,5,-1
 256 832 l 1,6,-1
 320 832 l 1,7,-1
 320 864 l 1,8,-1
 320 896 l 1,9,-1
 384 896 l 1,10,-1
 448 896 l 1,11,-1
 448 864 l 1,12,-1
 448 832 l 1,13,-1
 416 832 l 1,14,-1
 384 832 l 1,15,-1
 384 800 l 1,16,-1
 384 768 l 1,17,-1
 352 768 l 1,18,-1
 320 768 l 1,19,-1
 320 736 l 1,20,-1
 320 704 l 1,21,-1
 384 704 l 1,22,-1
 448 704 l 1,23,-1
 448 640 l 1,24,-1
 448 576 l 1,25,-1
 320 576 l 1,26,-1
 192 576 l 1,27,-1
 192 544 l 1,28,-1
 192 512 l 1,29,-1
 224 512 l 1,30,-1
 256 512 l 1,31,-1
 256 480 l 1,32,-1
 256 448 l 1,33,-1
 288 448 l 1,34,-1
 320 448 l 1,35,-1
 320 416 l 1,36,-1
 320 384 l 1,37,-1
 352 384 l 1,38,-1
 384 384 l 1,39,-1
 384 352 l 1,40,-1
 384 320 l 1,41,-1
 416 320 l 1,42,-1
 448 320 l 1,43,-1
 448 192 l 1,44,-1
 448 64 l 1,45,-1
 416 64 l 1,46,-1
 384 64 l 1,47,-1
 384 32 l 1,48,-1
 384 0 l 1,49,-1
 224 0 l 1,50,-1
 64 0 l 1,51,-1
 64 64 l 1,52,-1
 64 128 l 1,53,-1
 192 128 l 1,54,-1
 320 128 l 1,55,-1
 320 192 l 1,56,-1
 320 256 l 1,57,-1
 288 256 l 1,58,-1
 256 256 l 1,59,-1
 256 288 l 1,60,-1
 256 320 l 1,61,-1
 224 320 l 1,62,-1
 192 320 l 1,63,-1
 192 352 l 1,64,-1
 192 384 l 1,65,-1
 160 384 l 1,66,-1
 128 384 l 1,67,-1
 128 416 l 1,68,-1
 128 448 l 1,69,-1
 96 448 l 1,70,-1
 64 448 l 1,71,-1
 64 544 l 1,72,-1
 64 640 l 1,73,-1
 96 640 l 1,74,-1
 128 640 l 1,75,-1
 128 672 l 1,76,-1
 128 704 l 1,77,-1
 160 704 l 1,78,-1
 192 704 l 1,79,-1
 192 736 l 1,80,-1
 192 768 l 1,81,-1
 160 768 l 1,82,-1
 128 768 l 1,83,-1
 128 800 l 1,84,-1
 128 832 l 1,85,-1
 96 832 l 1,86,-1
 64 832 l 1,87,-1
 64 864 l 1,0,-1
EndSplineSet
EndChar

StartChar: section
Encoding: 167 167 166
Width: 512
Flags: W
LayerCount: 2
Fore
SplineSet
64 0 m 1,0,-1
 448 0 l 1,1,-1
 448 -64 l 1,2,-1
 64 -64 l 1,3,-1
 64 0 l 1,0,-1
128 608 m 1,4,-1
 128 640 l 1,5,-1
 256 640 l 1,6,-1
 384 640 l 1,7,-1
 384 608 l 1,8,-1
 384 576 l 1,9,-1
 416 576 l 1,10,-1
 448 576 l 1,11,-1
 448 352 l 1,12,-1
 448 128 l 1,13,-1
 416 128 l 1,14,-1
 384 128 l 1,15,-1
 384 96 l 1,16,-1
 384 64 l 1,17,-1
 256 64 l 1,18,-1
 128 64 l 1,19,-1
 128 96 l 1,20,-1
 128 128 l 1,21,-1
 96 128 l 1,22,-1
 64 128 l 1,23,-1
 64 352 l 1,24,-1
 64 576 l 1,25,-1
 96 576 l 1,26,-1
 128 576 l 1,27,-1
 128 608 l 1,4,-1
320 352 m 1,28,-1
 320 512 l 1,29,-1
 256 512 l 1,30,-1
 192 512 l 1,31,-1
 192 352 l 1,32,-1
 192 192 l 1,33,-1
 256 192 l 1,34,-1
 320 192 l 1,35,-1
 320 352 l 1,28,-1
EndSplineSet
EndChar

StartChar: scaron
Encoding: 353 353 167
Width: 512
Flags: W
LayerCount: 2
Fore
SplineSet
128 544 m 1,0,-1
 128 576 l 1,1,-1
 288 576 l 1,2,-1
 448 576 l 1,3,-1
 448 512 l 1,4,-1
 448 448 l 1,5,-1
 320 448 l 1,6,-1
 192 448 l 1,7,-1
 192 416 l 1,8,-1
 192 384 l 1,9,-1
 224 384 l 1,10,-1
 256 384 l 1,11,-1
 256 352 l 1,12,-1
 256 320 l 1,13,-1
 320 320 l 1,14,-1
 384 320 l 1,15,-1
 384 288 l 1,16,-1
 384 256 l 1,17,-1
 416 256 l 1,18,-1
 448 256 l 1,19,-1
 448 160 l 1,20,-1
 448 64 l 1,21,-1
 416 64 l 1,22,-1
 384 64 l 1,23,-1
 384 32 l 1,24,-1
 384 0 l 1,25,-1
 224 0 l 1,26,-1
 64 0 l 1,27,-1
 64 64 l 1,28,-1
 64 128 l 1,29,-1
 192 128 l 1,30,-1
 320 128 l 1,31,-1
 320 160 l 1,32,-1
 320 192 l 1,33,-1
 288 192 l 1,34,-1
 256 192 l 1,35,-1
 256 224 l 1,36,-1
 256 256 l 1,37,-1
 192 256 l 1,38,-1
 128 256 l 1,39,-1
 128 288 l 1,40,-1
 128 320 l 1,41,-1
 96 320 l 1,42,-1
 64 320 l 1,43,-1
 64 416 l 1,44,-1
 64 512 l 1,45,-1
 96 512 l 1,46,-1
 128 512 l 1,47,-1
 128 544 l 1,0,-1
64 800 m 1,48,-1
 64 832 l 1,49,-1
 128 832 l 1,50,-1
 192 832 l 1,51,-1
 192 800 l 1,52,-1
 192 768 l 1,53,-1
 256 768 l 1,54,-1
 320 768 l 1,55,-1
 320 800 l 1,56,-1
 320 832 l 1,57,-1
 384 832 l 1,58,-1
 448 832 l 1,59,-1
 448 800 l 1,60,-1
 448 768 l 1,61,-1
 416 768 l 1,62,-1
 384 768 l 1,63,-1
 384 736 l 1,64,-1
 384 704 l 1,65,-1
 352 704 l 1,66,-1
 320 704 l 1,67,-1
 320 672 l 1,68,-1
 320 640 l 1,69,-1
 256 640 l 1,70,-1
 192 640 l 1,71,-1
 192 672 l 1,72,-1
 192 704 l 1,73,-1
 160 704 l 1,74,-1
 128 704 l 1,75,-1
 128 736 l 1,76,-1
 128 768 l 1,77,-1
 96 768 l 1,78,-1
 64 768 l 1,79,-1
 64 800 l 1,48,-1
EndSplineSet
EndChar

StartChar: copyright
Encoding: 169 169 168
Width: 512
Flags: W
LayerCount: 2
Fore
SplineSet
448 256 m 5,0,-1
 448 320 l 5,1,-1
 256 320 l 5,2,-1
 64 320 l 5,3,-1
 64 160 l 5,4,-1
 64 0 l 5,5,-1
 128 0 l 5,6,-1
 192 0 l 5,7,-1
 192 96 l 5,8,-1
 192 192 l 5,9,-1
 320 192 l 5,10,-1
 448 192 l 5,11,-1
 448 256 l 5,0,-1
EndSplineSet
EndChar

StartChar: ordfeminine
Encoding: 170 170 169
Width: 512
Flags: W
LayerCount: 2
Fore
SplineSet
64 256 m 1,0,-1
 64 320 l 1,1,-1
 256 320 l 1,2,-1
 448 320 l 1,3,-1
 448 160 l 1,4,-1
 448 0 l 1,5,-1
 384 0 l 1,6,-1
 320 0 l 1,7,-1
 320 96 l 1,8,-1
 320 192 l 1,9,-1
 192 192 l 1,10,-1
 64 192 l 1,11,-1
 64 256 l 1,0,-1
EndSplineSet
EndChar

StartChar: guillemotleft
Encoding: 171 171 170
Width: 512
Flags: W
LayerCount: 2
Fore
SplineSet
256 320 m 1,0,-1
 448 320 l 1,1,-1
 448 256 l 1,2,-1
 512 256 l 1,3,-1
 512 192 l 1,4,-1
 448 192 l 1,5,-1
 448 128 l 1,6,-1
 384 128 l 5,7,-1
 384 64 l 1,8,-1
 320 64 l 1,9,-1
 320 0 l 1,10,-1
 512 0 l 1,11,-1
 512 -64 l 1,12,-1
 192 -64 l 1,13,-1
 192 64 l 1,14,-1
 256 64 l 1,15,-1
 256 128 l 1,16,-1
 320 128 l 1,17,-1
 320 192 l 1,18,-1
 384 192 l 1,19,-1
 384 256 l 1,20,-1
 256 256 l 1,21,-1
 256 192 l 1,22,-1
 192 192 l 1,23,-1
 192 256 l 1,24,-1
 256 256 l 1,25,-1
 256 320 l 1,0,-1
192 448 m 1,26,-1
 256 448 l 1,27,-1
 256 512 l 1,28,-1
 320 512 l 1,29,-1
 320 576 l 1,30,-1
 384 576 l 1,31,-1
 384 640 l 1,32,-1
 512 640 l 1,33,-1
 512 576 l 1,34,-1
 448 576 l 1,35,-1
 448 512 l 1,36,-1
 384 512 l 1,37,-1
 384 448 l 1,38,-1
 320 448 l 1,39,-1
 320 384 l 1,40,-1
 256 384 l 1,41,-1
 256 320 l 1,42,-1
 192 320 l 1,43,-1
 192 256 l 1,44,-1
 128 256 l 1,45,-1
 128 192 l 1,46,-1
 0 192 l 1,47,-1
 0 256 l 1,48,-1
 64 256 l 1,49,-1
 64 320 l 1,50,-1
 128 320 l 1,51,-1
 128 384 l 1,52,-1
 192 384 l 1,53,-1
 192 448 l 1,26,-1
64 768 m 1,54,-1
 65 832 l 1,55,-1
 192 832 l 1,56,-1
 192 448 l 1,57,-1
 128 448 l 1,58,-1
 128 768 l 1,59,-1
 64 768 l 1,54,-1
EndSplineSet
EndChar

StartChar: logicalnot
Encoding: 172 172 171
Width: 512
Flags: W
LayerCount: 2
Fore
SplineSet
384 320 m 1,0,-1
 384 384 l 1,1,-1
 448 384 l 1,2,-1
 448 64 l 1,3,-1
 384 64 l 5,4,-1
 384 192 l 1,5,-1
 320 192 l 1,6,-1
 320 128 l 1,7,-1
 256 128 l 1,8,-1
 256 64 l 1,9,-1
 512 64 l 1,10,-1
 512 0 l 1,11,-1
 448 0 l 1,12,-1
 448 -64 l 1,13,-1
 384 -64 l 1,14,-1
 384 0 l 1,15,-1
 128 0 l 1,16,-1
 128 128 l 1,17,-1
 192 128 l 1,18,-1
 192 192 l 1,19,-1
 256 192 l 1,20,-1
 256 256 l 1,21,-1
 320 256 l 1,22,-1
 320 320 l 1,23,-1
 384 320 l 1,0,-1
192 448 m 1,24,-1
 256 448 l 1,25,-1
 256 512 l 1,26,-1
 320 512 l 1,27,-1
 320 576 l 1,28,-1
 384 576 l 1,29,-1
 384 640 l 1,30,-1
 512 640 l 1,31,-1
 512 576 l 1,32,-1
 448 576 l 1,33,-1
 448 512 l 1,34,-1
 384 512 l 1,35,-1
 384 448 l 1,36,-1
 320 448 l 1,37,-1
 320 384 l 1,38,-1
 256 384 l 1,39,-1
 256 320 l 1,40,-1
 192 320 l 1,41,-1
 192 256 l 1,42,-1
 128 256 l 1,43,-1
 128 192 l 1,44,-1
 0 192 l 1,45,-1
 0 256 l 1,46,-1
 64 256 l 1,47,-1
 64 320 l 1,48,-1
 128 320 l 1,49,-1
 128 384 l 1,50,-1
 192 384 l 1,51,-1
 192 448 l 1,24,-1
64 768 m 1,52,-1
 65 832 l 1,53,-1
 192 832 l 1,54,-1
 192 448 l 1,55,-1
 128 448 l 1,56,-1
 128 768 l 1,57,-1
 64 768 l 1,52,-1
EndSplineSet
EndChar

StartChar: uni00AD
Encoding: 173 173 172
Width: 512
Flags: W
LayerCount: 2
Fore
SplineSet
192 224 m 1,0,-1
 192 512 l 1,1,-1
 256 512 l 1,2,-1
 320 512 l 1,3,-1
 320 224 l 1,4,-1
 320 -64 l 1,5,-1
 256 -64 l 1,6,-1
 192 -64 l 1,7,-1
 192 224 l 1,0,-1
192 640 m 1,8,-1
 192 704 l 1,9,-1
 256 704 l 1,10,-1
 320 704 l 1,11,-1
 320 640 l 1,12,-1
 320 576 l 1,13,-1
 256 576 l 1,14,-1
 192 576 l 1,15,-1
 192 640 l 1,8,-1
EndSplineSet
EndChar

StartChar: registered
Encoding: 174 174 173
Width: 512
Flags: W
LayerCount: 2
Fore
SplineSet
192 480 m 1,0,-1
 192 512 l 1,1,-1
 256 512 l 1,2,-1
 320 512 l 1,3,-1
 320 480 l 1,4,-1
 320 448 l 1,5,-1
 352 448 l 1,6,-1
 384 448 l 1,7,-1
 384 480 l 1,8,-1
 384 512 l 1,9,-1
 416 512 l 1,10,-1
 448 512 l 1,11,-1
 448 448 l 1,12,-1
 448 384 l 1,13,-1
 416 384 l 1,14,-1
 384 384 l 1,15,-1
 384 352 l 1,16,-1
 384 320 l 1,17,-1
 352 320 l 1,18,-1
 320 320 l 1,19,-1
 320 288 l 1,20,-1
 320 256 l 1,21,-1
 352 256 l 1,22,-1
 384 256 l 1,23,-1
 384 224 l 1,24,-1
 384 192 l 1,25,-1
 416 192 l 1,26,-1
 448 192 l 1,27,-1
 448 128 l 1,28,-1
 448 64 l 1,29,-1
 416 64 l 1,30,-1
 384 64 l 1,31,-1
 384 96 l 1,32,-1
 384 128 l 1,33,-1
 352 128 l 1,34,-1
 320 128 l 1,35,-1
 320 96 l 1,36,-1
 320 64 l 1,37,-1
 256 64 l 1,38,-1
 192 64 l 1,39,-1
 192 96 l 1,40,-1
 192 128 l 1,41,-1
 160 128 l 1,42,-1
 128 128 l 1,43,-1
 128 160 l 1,44,-1
 128 192 l 1,45,-1
 96 192 l 1,46,-1
 64 192 l 1,47,-1
 64 224 l 1,48,-1
 64 256 l 1,49,-1
 32 256 l 1,50,-1
 0 256 l 1,51,-1
 0 288 l 1,52,-1
 0 320 l 1,53,-1
 32 320 l 1,54,-1
 64 320 l 1,55,-1
 64 352 l 1,56,-1
 64 384 l 1,57,-1
 96 384 l 1,58,-1
 128 384 l 1,59,-1
 128 416 l 1,60,-1
 128 448 l 1,61,-1
 160 448 l 1,62,-1
 192 448 l 1,63,-1
 192 480 l 1,0,-1
320 416 m 1,64,-1
 320 448 l 1,65,-1
 288 448 l 1,66,-1
 256 448 l 1,67,-1
 256 416 l 1,68,-1
 256 384 l 1,69,-1
 224 384 l 1,70,-1
 192 384 l 1,71,-1
 192 352 l 1,72,-1
 192 320 l 1,73,-1
 160 320 l 1,74,-1
 128 320 l 1,75,-1
 128 288 l 1,76,-1
 128 256 l 1,77,-1
 160 256 l 1,78,-1
 192 256 l 1,79,-1
 192 224 l 1,80,-1
 192 192 l 1,81,-1
 224 192 l 1,82,-1
 256 192 l 1,83,-1
 256 160 l 1,84,-1
 256 128 l 1,85,-1
 288 128 l 1,86,-1
 320 128 l 1,87,-1
 320 160 l 1,88,-1
 320 192 l 1,89,-1
 288 192 l 1,90,-1
 256 192 l 1,91,-1
 256 224 l 1,92,-1
 256 256 l 1,93,-1
 224 256 l 1,94,-1
 192 256 l 1,95,-1
 192 288 l 1,96,-1
 192 320 l 1,97,-1
 224 320 l 1,98,-1
 256 320 l 1,99,-1
 256 352 l 1,100,-1
 256 384 l 1,101,-1
 288 384 l 1,102,-1
 320 384 l 1,103,-1
 320 416 l 1,64,-1
EndSplineSet
EndChar

StartChar: macron
Encoding: 175 175 174
Width: 512
Flags: W
LayerCount: 2
Fore
SplineSet
0 448 m 1,0,-1
 0 512 l 1,1,-1
 32 512 l 1,2,-1
 64 512 l 1,3,-1
 64 480 l 1,4,-1
 64 448 l 1,5,-1
 96 448 l 1,6,-1
 128 448 l 1,7,-1
 128 480 l 1,8,-1
 128 512 l 1,9,-1
 192 512 l 1,10,-1
 256 512 l 1,11,-1
 256 480 l 1,12,-1
 256 448 l 1,13,-1
 288 448 l 1,14,-1
 320 448 l 1,15,-1
 320 416 l 1,16,-1
 320 384 l 1,17,-1
 352 384 l 1,18,-1
 384 384 l 1,19,-1
 384 352 l 1,20,-1
 384 320 l 1,21,-1
 416 320 l 1,22,-1
 448 320 l 1,23,-1
 448 288 l 1,24,-1
 448 256 l 1,25,-1
 416 256 l 1,26,-1
 384 256 l 1,27,-1
 384 224 l 1,28,-1
 384 192 l 1,29,-1
 352 192 l 1,30,-1
 320 192 l 1,31,-1
 320 160 l 1,32,-1
 320 128 l 1,33,-1
 288 128 l 1,34,-1
 256 128 l 1,35,-1
 256 96 l 1,36,-1
 256 64 l 1,37,-1
 192 64 l 1,38,-1
 128 64 l 1,39,-1
 128 96 l 1,40,-1
 128 128 l 1,41,-1
 96 128 l 1,42,-1
 64 128 l 1,43,-1
 64 96 l 1,44,-1
 64 64 l 1,45,-1
 32 64 l 1,46,-1
 0 64 l 1,47,-1
 0 128 l 1,48,-1
 0 192 l 1,49,-1
 32 192 l 1,50,-1
 64 192 l 1,51,-1
 64 224 l 1,52,-1
 64 256 l 1,53,-1
 96 256 l 1,54,-1
 128 256 l 1,55,-1
 128 288 l 1,56,-1
 128 320 l 1,57,-1
 96 320 l 1,58,-1
 64 320 l 1,59,-1
 64 352 l 1,60,-1
 64 384 l 1,61,-1
 32 384 l 1,62,-1
 0 384 l 1,63,-1
 0 448 l 1,0,-1
192 416 m 1,64,-1
 192 448 l 1,65,-1
 160 448 l 1,66,-1
 128 448 l 1,67,-1
 128 416 l 1,68,-1
 128 384 l 1,69,-1
 160 384 l 1,70,-1
 192 384 l 1,71,-1
 192 352 l 1,72,-1
 192 320 l 1,73,-1
 224 320 l 1,74,-1
 256 320 l 1,75,-1
 256 288 l 1,76,-1
 256 256 l 1,77,-1
 224 256 l 1,78,-1
 192 256 l 1,79,-1
 192 224 l 1,80,-1
 192 192 l 1,81,-1
 160 192 l 1,82,-1
 128 192 l 1,83,-1
 128 160 l 1,84,-1
 128 128 l 1,85,-1
 160 128 l 1,86,-1
 192 128 l 1,87,-1
 192 160 l 1,88,-1
 192 192 l 1,89,-1
 224 192 l 1,90,-1
 256 192 l 1,91,-1
 256 224 l 1,92,-1
 256 256 l 1,93,-1
 288 256 l 1,94,-1
 320 256 l 1,95,-1
 320 288 l 1,96,-1
 320 320 l 1,97,-1
 288 320 l 1,98,-1
 256 320 l 1,99,-1
 256 352 l 1,100,-1
 256 384 l 1,101,-1
 224 384 l 1,102,-1
 192 384 l 1,103,-1
 192 416 l 1,64,-1
EndSplineSet
EndChar

StartChar: degree
Encoding: 176 176 175
Width: 512
Flags: W
LayerCount: 2
Fore
SplineSet
128 512 m 1,0,-1
 128 576 l 1,1,-1
 256 576 l 1,2,-1
 384 576 l 1,3,-1
 384 544 l 1,4,-1
 384 512 l 1,5,-1
 416 512 l 1,6,-1
 448 512 l 1,7,-1
 448 256 l 1,8,-1
 448 0 l 1,9,-1
 288 0 l 1,10,-1
 128 0 l 1,11,-1
 128 32 l 1,12,-1
 128 64 l 1,13,-1
 96 64 l 1,14,-1
 64 64 l 1,15,-1
 64 192 l 1,16,-1
 64 320 l 1,17,-1
 96 320 l 1,18,-1
 128 320 l 1,19,-1
 128 352 l 1,20,-1
 128 384 l 1,21,-1
 224 384 l 1,22,-1
 320 384 l 1,23,-1
 320 416 l 1,24,-1
 320 448 l 1,25,-1
 224 448 l 1,26,-1
 128 448 l 1,27,-1
 128 512 l 1,0,-1
320 192 m 1,28,-1
 320 256 l 1,29,-1
 256 256 l 1,30,-1
 192 256 l 1,31,-1
 192 192 l 1,32,-1
 192 128 l 1,33,-1
 256 128 l 1,34,-1
 320 128 l 1,35,-1
 320 192 l 1,28,-1
128 800 m 1,36,-1
 128 832 l 1,37,-1
 192 832 l 1,38,-1
 256 832 l 1,39,-1
 256 800 l 1,40,-1
 256 768 l 1,41,-1
 288 768 l 1,42,-1
 320 768 l 1,43,-1
 320 736 l 1,44,-1
 320 704 l 1,45,-1
 352 704 l 1,46,-1
 384 704 l 1,47,-1
 384 768 l 1,48,-1
 384 832 l 1,49,-1
 416 832 l 1,50,-1
 448 832 l 1,51,-1
 448 768 l 1,52,-1
 448 704 l 1,53,-1
 416 704 l 1,54,-1
 384 704 l 1,55,-1
 384 672 l 1,56,-1
 384 640 l 1,57,-1
 320 640 l 1,58,-1
 256 640 l 1,59,-1
 256 672 l 1,60,-1
 256 704 l 1,61,-1
 192 704 l 1,62,-1
 128 704 l 1,63,-1
 128 672 l 1,64,-1
 128 640 l 1,65,-1
 96 640 l 1,66,-1
 64 640 l 1,67,-1
 64 704 l 1,68,-1
 64 768 l 1,69,-1
 96 768 l 1,70,-1
 128 768 l 1,71,-1
 128 800 l 1,36,-1
EndSplineSet
EndChar

StartChar: plusminus
Encoding: 177 177 176
Width: 512
Flags: W
LayerCount: 2
Fore
SplineSet
128 544 m 1,0,-1
 128 576 l 1,1,-1
 256 576 l 1,2,-1
 384 576 l 1,3,-1
 384 544 l 1,4,-1
 384 512 l 1,5,-1
 416 512 l 1,6,-1
 448 512 l 1,7,-1
 448 288 l 1,8,-1
 448 64 l 1,9,-1
 416 64 l 1,10,-1
 384 64 l 1,11,-1
 384 32 l 1,12,-1
 384 0 l 1,13,-1
 256 0 l 1,14,-1
 128 0 l 1,15,-1
 128 32 l 1,16,-1
 128 64 l 1,17,-1
 96 64 l 1,18,-1
 64 64 l 1,19,-1
 64 288 l 1,20,-1
 64 512 l 1,21,-1
 96 512 l 1,22,-1
 128 512 l 1,23,-1
 128 544 l 1,0,-1
320 288 m 1,24,-1
 320 448 l 1,25,-1
 256 448 l 1,26,-1
 192 448 l 1,27,-1
 192 288 l 1,28,-1
 192 128 l 1,29,-1
 256 128 l 1,30,-1
 320 128 l 1,31,-1
 320 288 l 1,24,-1
128 800 m 1,32,-1
 128 832 l 1,33,-1
 192 832 l 1,34,-1
 256 832 l 1,35,-1
 256 800 l 1,36,-1
 256 768 l 1,37,-1
 288 768 l 1,38,-1
 320 768 l 1,39,-1
 320 736 l 1,40,-1
 320 704 l 1,41,-1
 352 704 l 1,42,-1
 384 704 l 1,43,-1
 384 768 l 1,44,-1
 384 832 l 1,45,-1
 416 832 l 1,46,-1
 448 832 l 1,47,-1
 448 768 l 1,48,-1
 448 704 l 1,49,-1
 416 704 l 1,50,-1
 384 704 l 1,51,-1
 384 672 l 1,52,-1
 384 640 l 1,53,-1
 320 640 l 1,54,-1
 256 640 l 1,55,-1
 256 672 l 1,56,-1
 256 704 l 1,57,-1
 192 704 l 1,58,-1
 128 704 l 1,59,-1
 128 672 l 1,60,-1
 128 640 l 1,61,-1
 96 640 l 1,62,-1
 64 640 l 1,63,-1
 64 704 l 1,64,-1
 64 768 l 1,65,-1
 96 768 l 1,66,-1
 128 768 l 1,67,-1
 128 800 l 1,32,-1
EndSplineSet
EndChar

StartChar: uni00B2
Encoding: 178 178 177
Width: 512
Flags: W
LayerCount: 2
Fore
SplineSet
448 768 m 1,0,-1
 448 832 l 1,1,-1
 480 832 l 1,2,-1
 512 832 l 1,3,-1
 512 768 l 1,4,-1
 512 704 l 1,5,-1
 480 704 l 1,6,-1
 448 704 l 1,7,-1
 448 384 l 1,8,-1
 448 64 l 1,9,-1
 416 64 l 1,10,-1
 384 64 l 1,11,-1
 384 32 l 1,12,-1
 384 0 l 1,13,-1
 256 0 l 1,14,-1
 128 0 l 1,15,-1
 128 32 l 1,16,-1
 128 64 l 1,17,-1
 96 64 l 1,18,-1
 64 64 l 1,19,-1
 64 0 l 1,20,-1
 64 -64 l 1,21,-1
 32 -64 l 1,22,-1
 0 -64 l 1,23,-1
 0 0 l 1,24,-1
 0 64 l 1,25,-1
 32 64 l 1,26,-1
 64 64 l 1,27,-1
 64 384 l 1,28,-1
 64 704 l 1,29,-1
 96 704 l 1,30,-1
 128 704 l 1,31,-1
 128 736 l 1,32,-1
 128 768 l 1,33,-1
 256 768 l 1,34,-1
 384 768 l 1,35,-1
 384 736 l 1,36,-1
 384 704 l 1,37,-1
 416 704 l 1,38,-1
 448 704 l 1,39,-1
 448 768 l 1,0,-1
320 576 m 1,40,-1
 320 640 l 1,41,-1
 256 640 l 1,42,-1
 192 640 l 1,43,-1
 192 512 l 1,44,-1
 192 384 l 1,45,-1
 224 384 l 1,46,-1
 256 384 l 1,47,-1
 256 320 l 1,48,-1
 256 256 l 1,49,-1
 224 256 l 1,50,-1
 192 256 l 1,51,-1
 192 192 l 1,52,-1
 192 128 l 1,53,-1
 256 128 l 1,54,-1
 320 128 l 1,55,-1
 320 256 l 1,56,-1
 320 384 l 1,57,-1
 288 384 l 1,58,-1
 256 384 l 1,59,-1
 256 448 l 1,60,-1
 256 512 l 1,61,-1
 288 512 l 1,62,-1
 320 512 l 1,63,-1
 320 576 l 1,40,-1
EndSplineSet
EndChar

StartChar: uni00B3
Encoding: 179 179 178
Width: 512
Flags: W
LayerCount: 2
Fore
SplineSet
448 576 m 1,0,-1
 448 640 l 1,1,-1
 480 640 l 1,2,-1
 512 640 l 1,3,-1
 512 576 l 1,4,-1
 512 512 l 1,5,-1
 480 512 l 1,6,-1
 448 512 l 1,7,-1
 448 288 l 1,8,-1
 448 64 l 1,9,-1
 416 64 l 1,10,-1
 384 64 l 1,11,-1
 384 32 l 1,12,-1
 384 0 l 1,13,-1
 256 0 l 1,14,-1
 128 0 l 1,15,-1
 128 32 l 1,16,-1
 128 64 l 1,17,-1
 96 64 l 1,18,-1
 64 64 l 1,19,-1
 64 0 l 1,20,-1
 64 -64 l 1,21,-1
 32 -64 l 1,22,-1
 0 -64 l 1,23,-1
 0 0 l 1,24,-1
 0 64 l 1,25,-1
 32 64 l 1,26,-1
 64 64 l 1,27,-1
 64 288 l 1,28,-1
 64 512 l 1,29,-1
 96 512 l 1,30,-1
 128 512 l 1,31,-1
 128 544 l 1,32,-1
 128 576 l 1,33,-1
 256 576 l 1,34,-1
 384 576 l 1,35,-1
 384 544 l 1,36,-1
 384 512 l 1,37,-1
 416 512 l 1,38,-1
 448 512 l 1,39,-1
 448 576 l 1,0,-1
320 416 m 1,40,-1
 320 448 l 1,41,-1
 256 448 l 1,42,-1
 192 448 l 1,43,-1
 192 384 l 1,44,-1
 192 320 l 1,45,-1
 224 320 l 1,46,-1
 256 320 l 1,47,-1
 256 352 l 1,48,-1
 256 384 l 1,49,-1
 288 384 l 1,50,-1
 320 384 l 1,51,-1
 320 416 l 1,40,-1
320 192 m 1,52,-1
 320 256 l 1,53,-1
 288 256 l 1,54,-1
 256 256 l 1,55,-1
 256 224 l 1,56,-1
 256 192 l 1,57,-1
 224 192 l 1,58,-1
 192 192 l 1,59,-1
 192 160 l 1,60,-1
 192 128 l 1,61,-1
 256 128 l 1,62,-1
 320 128 l 1,63,-1
 320 192 l 1,52,-1
EndSplineSet
EndChar

StartChar: Zcaron
Encoding: 381 381 179
Width: 512
Flags: W
LayerCount: 2
Fore
SplineSet
64 864 m 1,0,-1
 64 896 l 1,1,-1
 128 896 l 1,2,-1
 192 896 l 1,3,-1
 192 864 l 1,4,-1
 192 832 l 1,5,-1
 256 832 l 1,6,-1
 320 832 l 1,7,-1
 320 864 l 1,8,-1
 320 896 l 1,9,-1
 384 896 l 1,10,-1
 448 896 l 1,11,-1
 448 864 l 1,12,-1
 448 832 l 1,13,-1
 416 832 l 1,14,-1
 384 832 l 1,15,-1
 384 800 l 1,16,-1
 384 768 l 1,17,-1
 352 768 l 1,18,-1
 320 768 l 1,19,-1
 320 736 l 1,20,-1
 320 704 l 1,21,-1
 384 704 l 1,22,-1
 448 704 l 1,23,-1
 448 640 l 1,24,-1
 448 576 l 1,25,-1
 416 576 l 1,26,-1
 384 576 l 1,27,-1
 384 544 l 1,28,-1
 384 512 l 1,29,-1
 352 512 l 1,30,-1
 320 512 l 1,31,-1
 320 448 l 1,32,-1
 320 384 l 1,33,-1
 288 384 l 1,34,-1
 256 384 l 1,35,-1
 256 320 l 1,36,-1
 256 256 l 1,37,-1
 224 256 l 1,38,-1
 192 256 l 1,39,-1
 192 192 l 1,40,-1
 192 128 l 1,41,-1
 320 128 l 1,42,-1
 448 128 l 1,43,-1
 448 64 l 1,44,-1
 448 0 l 1,45,-1
 256 0 l 1,46,-1
 64 0 l 1,47,-1
 64 128 l 1,48,-1
 64 256 l 1,49,-1
 96 256 l 1,50,-1
 128 256 l 1,51,-1
 128 320 l 1,52,-1
 128 384 l 1,53,-1
 160 384 l 1,54,-1
 192 384 l 1,55,-1
 192 448 l 1,56,-1
 192 512 l 1,57,-1
 224 512 l 1,58,-1
 256 512 l 1,59,-1
 256 544 l 1,60,-1
 256 576 l 1,61,-1
 160 576 l 1,62,-1
 64 576 l 1,63,-1
 64 640 l 1,64,-1
 64 704 l 1,65,-1
 128 704 l 1,66,-1
 192 704 l 1,67,-1
 192 736 l 1,68,-1
 192 768 l 1,69,-1
 160 768 l 1,70,-1
 128 768 l 1,71,-1
 128 800 l 1,72,-1
 128 832 l 1,73,-1
 96 832 l 1,74,-1
 64 832 l 1,75,-1
 64 864 l 1,0,-1
EndSplineSet
EndChar

StartChar: uni00B5
Encoding: 181 181 180
Width: 512
Flags: W
LayerCount: 2
Fore
SplineSet
64 800 m 1,0,-1
 64 832 l 1,1,-1
 256 832 l 1,2,-1
 448 832 l 1,3,-1
 448 768 l 1,4,-1
 448 704 l 1,5,-1
 384 704 l 1,6,-1
 320 704 l 1,7,-1
 320 608 l 1,8,-1
 320 512 l 1,9,-1
 384 512 l 1,10,-1
 448 512 l 1,11,-1
 448 448 l 1,12,-1
 448 384 l 1,13,-1
 384 384 l 1,14,-1
 320 384 l 1,15,-1
 320 256 l 1,16,-1
 320 128 l 1,17,-1
 384 128 l 1,18,-1
 448 128 l 1,19,-1
 448 64 l 1,20,-1
 448 0 l 1,21,-1
 256 0 l 1,22,-1
 64 0 l 1,23,-1
 64 32 l 1,24,-1
 64 64 l 1,25,-1
 32 64 l 1,26,-1
 0 64 l 1,27,-1
 0 416 l 1,28,-1
 0 768 l 1,29,-1
 32 768 l 1,30,-1
 64 768 l 1,31,-1
 64 800 l 1,0,-1
192 416 m 1,32,-1
 192 704 l 1,33,-1
 160 704 l 1,34,-1
 128 704 l 1,35,-1
 128 416 l 1,36,-1
 128 128 l 1,37,-1
 160 128 l 1,38,-1
 192 128 l 1,39,-1
 192 416 l 1,32,-1
EndSplineSet
EndChar

StartChar: paragraph
Encoding: 182 182 181
Width: 512
Flags: W
LayerCount: 2
Fore
SplineSet
128 608 m 1,0,-1
 128 640 l 1,1,-1
 256 640 l 1,2,-1
 384 640 l 1,3,-1
 384 608 l 1,4,-1
 384 576 l 1,5,-1
 416 576 l 1,6,-1
 448 576 l 1,7,-1
 448 288 l 1,8,-1
 448 0 l 1,9,-1
 384 0 l 1,10,-1
 320 0 l 1,11,-1
 320 128 l 1,12,-1
 320 256 l 1,13,-1
 256 256 l 1,14,-1
 192 256 l 1,15,-1
 192 128 l 1,16,-1
 192 0 l 1,17,-1
 128 0 l 1,18,-1
 64 0 l 1,19,-1
 64 288 l 1,20,-1
 64 576 l 1,21,-1
 96 576 l 1,22,-1
 128 576 l 1,23,-1
 128 608 l 1,0,-1
320 448 m 1,24,-1
 320 512 l 1,25,-1
 256 512 l 1,26,-1
 192 512 l 1,27,-1
 192 448 l 1,28,-1
 192 384 l 1,29,-1
 256 384 l 1,30,-1
 320 384 l 1,31,-1
 320 448 l 1,24,-1
64 864 m 1,32,-1
 64 896 l 1,33,-1
 128 896 l 1,34,-1
 192 896 l 1,35,-1
 192 864 l 1,36,-1
 192 832 l 1,37,-1
 224 832 l 1,38,-1
 256 832 l 1,39,-1
 256 800 l 1,40,-1
 256 768 l 1,41,-1
 288 768 l 1,42,-1
 320 768 l 1,43,-1
 320 736 l 1,44,-1
 320 704 l 1,45,-1
 256 704 l 1,46,-1
 192 704 l 1,47,-1
 192 736 l 1,48,-1
 192 768 l 1,49,-1
 160 768 l 1,50,-1
 128 768 l 1,51,-1
 128 800 l 1,52,-1
 128 832 l 1,53,-1
 96 832 l 1,54,-1
 64 832 l 1,55,-1
 64 864 l 1,32,-1
EndSplineSet
EndChar

StartChar: periodcentered
Encoding: 183 183 182
Width: 512
Flags: W
LayerCount: 2
Fore
SplineSet
128 608 m 1,0,-1
 128 640 l 1,1,-1
 256 640 l 1,2,-1
 384 640 l 1,3,-1
 384 608 l 1,4,-1
 384 576 l 1,5,-1
 416 576 l 1,6,-1
 448 576 l 1,7,-1
 448 288 l 1,8,-1
 448 0 l 1,9,-1
 384 0 l 1,10,-1
 320 0 l 1,11,-1
 320 128 l 1,12,-1
 320 256 l 1,13,-1
 256 256 l 1,14,-1
 192 256 l 1,15,-1
 192 128 l 1,16,-1
 192 0 l 1,17,-1
 128 0 l 1,18,-1
 64 0 l 1,19,-1
 64 288 l 1,20,-1
 64 576 l 1,21,-1
 96 576 l 1,22,-1
 128 576 l 1,23,-1
 128 608 l 1,0,-1
320 448 m 1,24,-1
 320 512 l 1,25,-1
 256 512 l 1,26,-1
 192 512 l 1,27,-1
 192 448 l 1,28,-1
 192 384 l 1,29,-1
 256 384 l 1,30,-1
 320 384 l 1,31,-1
 320 448 l 1,24,-1
128 864 m 1,32,-1
 128 896 l 1,33,-1
 192 896 l 1,34,-1
 256 896 l 1,35,-1
 256 864 l 1,36,-1
 256 832 l 1,37,-1
 288 832 l 1,38,-1
 320 832 l 1,39,-1
 320 800 l 1,40,-1
 320 768 l 1,41,-1
 352 768 l 1,42,-1
 384 768 l 1,43,-1
 384 832 l 1,44,-1
 384 896 l 1,45,-1
 416 896 l 1,46,-1
 448 896 l 1,47,-1
 448 832 l 1,48,-1
 448 768 l 1,49,-1
 416 768 l 1,50,-1
 384 768 l 1,51,-1
 384 736 l 1,52,-1
 384 704 l 1,53,-1
 320 704 l 1,54,-1
 256 704 l 1,55,-1
 256 736 l 1,56,-1
 256 768 l 1,57,-1
 192 768 l 1,58,-1
 128 768 l 1,59,-1
 128 736 l 1,60,-1
 128 704 l 1,61,-1
 96 704 l 1,62,-1
 64 704 l 1,63,-1
 64 768 l 1,64,-1
 64 832 l 1,65,-1
 96 832 l 1,66,-1
 128 832 l 1,67,-1
 128 864 l 1,32,-1
EndSplineSet
EndChar

StartChar: zcaron
Encoding: 382 382 183
Width: 512
Flags: W
LayerCount: 2
Fore
SplineSet
64 512 m 1,0,-1
 64 576 l 1,1,-1
 256 576 l 1,2,-1
 448 576 l 1,3,-1
 448 512 l 1,4,-1
 448 448 l 1,5,-1
 416 448 l 1,6,-1
 384 448 l 1,7,-1
 384 416 l 1,8,-1
 384 384 l 1,9,-1
 352 384 l 1,10,-1
 320 384 l 1,11,-1
 320 320 l 1,12,-1
 320 256 l 1,13,-1
 288 256 l 1,14,-1
 256 256 l 1,15,-1
 256 192 l 1,16,-1
 256 128 l 1,17,-1
 352 128 l 1,18,-1
 448 128 l 1,19,-1
 448 64 l 1,20,-1
 448 0 l 1,21,-1
 256 0 l 1,22,-1
 64 0 l 1,23,-1
 64 64 l 1,24,-1
 64 128 l 1,25,-1
 96 128 l 1,26,-1
 128 128 l 1,27,-1
 128 192 l 1,28,-1
 128 256 l 1,29,-1
 160 256 l 1,30,-1
 192 256 l 1,31,-1
 192 320 l 1,32,-1
 192 384 l 1,33,-1
 224 384 l 1,34,-1
 256 384 l 1,35,-1
 256 416 l 1,36,-1
 256 448 l 1,37,-1
 160 448 l 1,38,-1
 64 448 l 1,39,-1
 64 512 l 1,0,-1
64 800 m 1,40,-1
 64 832 l 1,41,-1
 128 832 l 1,42,-1
 192 832 l 1,43,-1
 192 800 l 1,44,-1
 192 768 l 1,45,-1
 256 768 l 1,46,-1
 320 768 l 1,47,-1
 320 800 l 1,48,-1
 320 832 l 1,49,-1
 384 832 l 1,50,-1
 448 832 l 1,51,-1
 448 800 l 1,52,-1
 448 768 l 1,53,-1
 416 768 l 1,54,-1
 384 768 l 1,55,-1
 384 736 l 1,56,-1
 384 704 l 1,57,-1
 352 704 l 1,58,-1
 320 704 l 1,59,-1
 320 672 l 1,60,-1
 320 640 l 1,61,-1
 256 640 l 1,62,-1
 192 640 l 1,63,-1
 192 672 l 1,64,-1
 192 704 l 1,65,-1
 160 704 l 1,66,-1
 128 704 l 1,67,-1
 128 736 l 1,68,-1
 128 768 l 1,69,-1
 96 768 l 1,70,-1
 64 768 l 1,71,-1
 64 800 l 1,40,-1
EndSplineSet
EndChar

StartChar: uni00B9
Encoding: 185 185 184
Width: 512
Flags: W
LayerCount: 2
Fore
SplineSet
64 768 m 1,0,-1
 64 832 l 1,1,-1
 128 832 l 1,2,-1
 192 832 l 1,3,-1
 192 768 l 1,4,-1
 192 704 l 1,5,-1
 320 704 l 1,6,-1
 320 768 l 1,7,-1
 320 832 l 1,8,-1
 384 832 l 1,9,-1
 448 832 l 1,10,-1
 448 768 l 1,11,-1
 448 704 l 1,12,-1
 384 704 l 1,13,-1
 320 704 l 1,14,-1
 192 704 l 1,15,-1
 64 704 l 1,16,-1
 64 768 l 1,0,-1
EndSplineSet
EndChar

StartChar: ordmasculine
Encoding: 186 186 185
Width: 512
Flags: W
LayerCount: 2
Fore
SplineSet
320 800 m 5,0,-1
 320 832 l 5,1,-1
 384 832 l 5,2,-1
 448 832 l 5,3,-1
 448 800 l 5,4,-1
 448 768 l 5,5,-1
 416 768 l 5,6,-1
 384 768 l 5,7,-1
 384 736 l 5,8,-1
 384 704 l 5,9,-1
 352 704 l 5,10,-1
 320 704 l 5,11,-1
 320 672 l 5,12,-1
 320 640 l 5,13,-1
 256 640 l 5,14,-1
 192 640 l 5,15,-1
 192 672 l 5,16,-1
 192 704 l 5,17,-1
 224 704 l 5,18,-1
 256 704 l 5,19,-1
 256 736 l 5,20,-1
 256 768 l 5,21,-1
 288 768 l 5,22,-1
 320 768 l 5,23,-1
 320 800 l 5,0,-1
EndSplineSet
EndChar

StartChar: guillemotright
Encoding: 187 187 186
Width: 512
Flags: W
LayerCount: 2
Fore
SplineSet
192 832 m 1,0,-1
 256 832 l 1,1,-1
 256 768 l 1,2,-1
 384 768 l 1,3,-1
 384 704 l 5,4,-1
 256 704 l 1,5,-1
 257 448 l 1,6,-1
 192 449 l 1,7,-1
 192 704 l 1,8,-1
 64 704 l 1,9,-1
 64 768 l 1,10,-1
 192 768 l 1,11,-1
 192 832 l 1,0,-1
EndSplineSet
EndChar

StartChar: Ydieresis
Encoding: 376 376 187
Width: 512
Flags: W
LayerCount: 2
Fore
SplineSet
64 512 m 1,0,-1
 64 640 l 1,1,-1
 128 640 l 1,2,-1
 192 640 l 1,3,-1
 192 512 l 1,4,-1
 192 384 l 1,5,-1
 256 384 l 1,6,-1
 320 384 l 1,7,-1
 320 512 l 1,8,-1
 320 640 l 1,9,-1
 384 640 l 1,10,-1
 448 640 l 1,11,-1
 448 512 l 1,12,-1
 448 384 l 1,13,-1
 416 384 l 1,14,-1
 384 384 l 1,15,-1
 384 320 l 1,16,-1
 384 256 l 1,17,-1
 352 256 l 1,18,-1
 320 256 l 1,19,-1
 320 128 l 1,20,-1
 320 0 l 1,21,-1
 256 0 l 1,22,-1
 192 0 l 1,23,-1
 192 128 l 1,24,-1
 192 256 l 1,25,-1
 160 256 l 1,26,-1
 128 256 l 1,27,-1
 128 320 l 1,28,-1
 128 384 l 1,29,-1
 96 384 l 1,30,-1
 64 384 l 1,31,-1
 64 512 l 1,0,-1
320 768 m 1,32,-1
 320 832 l 1,33,-1
 384 832 l 1,34,-1
 448 832 l 1,35,-1
 448 768 l 1,36,-1
 448 704 l 1,37,-1
 384 704 l 1,38,-1
 320 704 l 1,39,-1
 320 768 l 1,32,-1
64 768 m 1,40,-1
 64 832 l 1,41,-1
 128 832 l 1,42,-1
 192 832 l 1,43,-1
 192 768 l 1,44,-1
 192 704 l 1,45,-1
 128 704 l 1,46,-1
 64 704 l 1,47,-1
 64 768 l 1,40,-1
EndSplineSet
EndChar

StartChar: questiondown
Encoding: 191 191 188
Width: 512
Flags: W
LayerCount: 2
Fore
SplineSet
192 832 m 1,0,-1
 256 832 l 1,1,-1
 256 768 l 1,2,-1
 320 768 l 1,3,-1
 320 704 l 1,4,-1
 384 704 l 1,5,-1
 384 768 l 1,6,-1
 448 768 l 1,7,-1
 448 832 l 1,8,-1
 512 832 l 1,9,-1
 512 512 l 1,10,-1
 448 512 l 1,11,-1
 448 640 l 1,12,-1
 384 640 l 1,13,-1
 384 576 l 1,14,-1
 320 576 l 1,15,-1
 320 640 l 1,16,-1
 257 640 l 1,17,-1
 256 512 l 1,18,-1
 192 512 l 1,19,-1
 192 768 l 1,20,-1
 128 768 l 1,21,-1
 128 512 l 1,22,-1
 64 512 l 5,23,-1
 64 768 l 1,24,-1
 0 768 l 1,25,-1
 0 832 l 1,26,-1
 192 832 l 1,0,-1
EndSplineSet
EndChar

StartChar: ae
Encoding: 230 230 189
Width: 512
Flags: W
LayerCount: 2
Fore
SplineSet
64 320 m 1,0,-1
 64 576 l 1,1,-1
 128 576 l 1,2,-1
 192 576 l 1,3,-1
 192 384 l 1,4,-1
 192 192 l 1,5,-1
 256 192 l 1,6,-1
 320 192 l 1,7,-1
 320 384 l 1,8,-1
 320 576 l 1,9,-1
 384 576 l 1,10,-1
 448 576 l 1,11,-1
 448 384 l 1,12,-1
 448 192 l 1,13,-1
 480 192 l 1,14,-1
 512 192 l 1,15,-1
 512 128 l 1,16,-1
 512 64 l 1,17,-1
 480 64 l 1,18,-1
 448 64 l 1,19,-1
 448 96 l 1,20,-1
 448 128 l 1,21,-1
 416 128 l 1,22,-1
 384 128 l 1,23,-1
 384 96 l 1,24,-1
 384 64 l 1,25,-1
 288 64 l 1,26,-1
 192 64 l 1,27,-1
 192 96 l 1,28,-1
 192 128 l 1,29,-1
 160 128 l 1,30,-1
 128 128 l 1,31,-1
 128 64 l 1,32,-1
 128 0 l 1,33,-1
 96 0 l 1,34,-1
 64 0 l 1,35,-1
 64 -32 l 1,36,-1
 64 -64 l 1,37,-1
 32 -64 l 1,38,-1
 0 -64 l 1,39,-1
 0 0 l 1,40,-1
 0 64 l 1,41,-1
 32 64 l 1,42,-1
 64 64 l 1,43,-1
 64 320 l 1,0,-1
EndSplineSet
EndChar

StartChar: ntilde
Encoding: 241 241 190
Width: 512
Flags: W
LayerCount: 2
Fore
SplineSet
64 64 m 1,0,-1
 64 128 l 1,1,-1
 256 128 l 1,2,-1
 448 128 l 1,3,-1
 448 64 l 1,4,-1
 448 0 l 1,5,-1
 256 0 l 1,6,-1
 64 0 l 1,7,-1
 64 64 l 1,0,-1
192 608 m 1,8,-1
 192 704 l 1,9,-1
 256 704 l 1,10,-1
 320 704 l 1,11,-1
 320 608 l 1,12,-1
 320 512 l 1,13,-1
 384 512 l 1,14,-1
 448 512 l 1,15,-1
 448 448 l 1,16,-1
 448 384 l 1,17,-1
 384 384 l 1,18,-1
 320 384 l 1,19,-1
 320 288 l 1,20,-1
 320 192 l 1,21,-1
 256 192 l 1,22,-1
 192 192 l 1,23,-1
 192 288 l 1,24,-1
 192 384 l 1,25,-1
 128 384 l 1,26,-1
 64 384 l 1,27,-1
 64 448 l 1,28,-1
 64 512 l 1,29,-1
 128 512 l 1,30,-1
 192 512 l 1,31,-1
 192 608 l 1,8,-1
EndSplineSet
EndChar

StartChar: ograve
Encoding: 242 242 191
Width: 512
Flags: W
LayerCount: 2
Fore
SplineSet
0 64 m 1,0,-1
 0 128 l 1,1,-1
 256 128 l 1,2,-1
 512 128 l 1,3,-1
 512 64 l 1,4,-1
 512 0 l 1,5,-1
 256 0 l 1,6,-1
 0 0 l 1,7,-1
 0 64 l 1,0,-1
0 736 m 1,8,-1
 0 768 l 1,9,-1
 96 768 l 1,10,-1
 192 768 l 1,11,-1
 192 736 l 1,12,-1
 192 704 l 1,13,-1
 224 704 l 1,14,-1
 256 704 l 1,15,-1
 256 672 l 1,16,-1
 256 640 l 1,17,-1
 288 640 l 1,18,-1
 320 640 l 1,19,-1
 320 608 l 1,20,-1
 320 576 l 1,21,-1
 352 576 l 1,22,-1
 384 576 l 1,23,-1
 384 544 l 1,24,-1
 384 512 l 1,25,-1
 416 512 l 1,26,-1
 448 512 l 1,27,-1
 448 480 l 1,28,-1
 448 448 l 1,29,-1
 416 448 l 1,30,-1
 384 448 l 1,31,-1
 384 416 l 1,32,-1
 384 384 l 1,33,-1
 352 384 l 1,34,-1
 320 384 l 1,35,-1
 320 352 l 1,36,-1
 320 320 l 1,37,-1
 288 320 l 1,38,-1
 256 320 l 1,39,-1
 256 288 l 1,40,-1
 256 256 l 1,41,-1
 224 256 l 1,42,-1
 192 256 l 1,43,-1
 192 224 l 1,44,-1
 192 192 l 1,45,-1
 96 192 l 1,46,-1
 0 192 l 1,47,-1
 0 224 l 1,48,-1
 0 256 l 1,49,-1
 32 256 l 1,50,-1
 64 256 l 1,51,-1
 64 288 l 1,52,-1
 64 320 l 1,53,-1
 96 320 l 1,54,-1
 128 320 l 1,55,-1
 128 352 l 1,56,-1
 128 384 l 1,57,-1
 160 384 l 1,58,-1
 192 384 l 1,59,-1
 192 416 l 1,60,-1
 192 448 l 1,61,-1
 224 448 l 1,62,-1
 256 448 l 1,63,-1
 256 480 l 1,64,-1
 256 512 l 1,65,-1
 224 512 l 1,66,-1
 192 512 l 1,67,-1
 192 544 l 1,68,-1
 192 576 l 1,69,-1
 160 576 l 1,70,-1
 128 576 l 1,71,-1
 128 608 l 1,72,-1
 128 640 l 1,73,-1
 96 640 l 1,74,-1
 64 640 l 1,75,-1
 64 672 l 1,76,-1
 64 704 l 1,77,-1
 32 704 l 1,78,-1
 0 704 l 1,79,-1
 0 736 l 1,8,-1
EndSplineSet
EndChar

StartChar: oacute
Encoding: 243 243 192
Width: 512
Flags: W
LayerCount: 2
Fore
SplineSet
0 64 m 1,0,-1
 0 128 l 1,1,-1
 224 128 l 1,2,-1
 448 128 l 1,3,-1
 448 64 l 1,4,-1
 448 0 l 1,5,-1
 224 0 l 1,6,-1
 0 0 l 1,7,-1
 0 64 l 1,0,-1
256 736 m 1,8,-1
 256 768 l 1,9,-1
 352 768 l 1,10,-1
 448 768 l 1,11,-1
 448 736 l 1,12,-1
 448 704 l 1,13,-1
 416 704 l 1,14,-1
 384 704 l 1,15,-1
 384 672 l 1,16,-1
 384 640 l 1,17,-1
 352 640 l 1,18,-1
 320 640 l 1,19,-1
 320 608 l 1,20,-1
 320 576 l 1,21,-1
 288 576 l 1,22,-1
 256 576 l 1,23,-1
 256 544 l 1,24,-1
 256 512 l 1,25,-1
 224 512 l 1,26,-1
 192 512 l 1,27,-1
 192 480 l 1,28,-1
 192 448 l 1,29,-1
 224 448 l 1,30,-1
 256 448 l 1,31,-1
 256 416 l 1,32,-1
 256 384 l 1,33,-1
 288 384 l 1,34,-1
 320 384 l 1,35,-1
 320 352 l 1,36,-1
 320 320 l 1,37,-1
 352 320 l 1,38,-1
 384 320 l 1,39,-1
 384 288 l 1,40,-1
 384 256 l 1,41,-1
 416 256 l 1,42,-1
 448 256 l 1,43,-1
 448 224 l 1,44,-1
 448 192 l 1,45,-1
 352 192 l 1,46,-1
 256 192 l 1,47,-1
 256 224 l 1,48,-1
 256 256 l 1,49,-1
 224 256 l 1,50,-1
 192 256 l 1,51,-1
 192 288 l 1,52,-1
 192 320 l 1,53,-1
 160 320 l 1,54,-1
 128 320 l 1,55,-1
 128 352 l 1,56,-1
 128 384 l 1,57,-1
 96 384 l 1,58,-1
 64 384 l 1,59,-1
 64 416 l 1,60,-1
 64 448 l 1,61,-1
 32 448 l 1,62,-1
 0 448 l 1,63,-1
 0 480 l 1,64,-1
 0 512 l 1,65,-1
 32 512 l 1,66,-1
 64 512 l 1,67,-1
 64 544 l 1,68,-1
 64 576 l 1,69,-1
 96 576 l 1,70,-1
 128 576 l 1,71,-1
 128 608 l 1,72,-1
 128 640 l 1,73,-1
 160 640 l 1,74,-1
 192 640 l 1,75,-1
 192 672 l 1,76,-1
 192 704 l 1,77,-1
 224 704 l 1,78,-1
 256 704 l 1,79,-1
 256 736 l 1,8,-1
EndSplineSet
EndChar

StartChar: odieresis
Encoding: 246 246 193
Width: 512
Flags: W
LayerCount: 2
Fore
SplineSet
192 256 m 1,0,-1
 192 320 l 1,1,-1
 256 320 l 1,2,-1
 320 320 l 1,3,-1
 320 256 l 1,4,-1
 320 192 l 1,5,-1
 256 192 l 1,6,-1
 192 192 l 1,7,-1
 192 256 l 1,0,-1
64 448 m 1,8,-1
 64 512 l 1,9,-1
 256 512 l 1,10,-1
 448 512 l 1,11,-1
 448 448 l 1,12,-1
 448 384 l 1,13,-1
 256 384 l 1,14,-1
 64 384 l 1,15,-1
 64 448 l 1,8,-1
192 640 m 1,16,-1
 192 704 l 1,17,-1
 256 704 l 1,18,-1
 320 704 l 1,19,-1
 320 640 l 1,20,-1
 320 576 l 1,21,-1
 256 576 l 1,22,-1
 192 576 l 1,23,-1
 192 640 l 1,16,-1
EndSplineSet
EndChar

StartChar: oslash
Encoding: 248 248 194
Width: 512
Flags: W
LayerCount: 2
Fore
SplineSet
128 800 m 1,0,-1
 128 832 l 1,1,-1
 224 832 l 1,2,-1
 320 832 l 1,3,-1
 320 800 l 1,4,-1
 320 768 l 1,5,-1
 352 768 l 1,6,-1
 384 768 l 1,7,-1
 384 672 l 1,8,-1
 384 576 l 1,9,-1
 352 576 l 1,10,-1
 320 576 l 1,11,-1
 320 544 l 1,12,-1
 320 512 l 1,13,-1
 224 512 l 1,14,-1
 128 512 l 1,15,-1
 128 544 l 1,16,-1
 128 576 l 1,17,-1
 96 576 l 1,18,-1
 64 576 l 1,19,-1
 64 672 l 1,20,-1
 64 768 l 1,21,-1
 96 768 l 1,22,-1
 128 768 l 1,23,-1
 128 800 l 1,0,-1
256 736 m 1,24,-1
 256 768 l 1,25,-1
 224 768 l 1,26,-1
 192 768 l 1,27,-1
 192 736 l 1,28,-1
 192 704 l 1,29,-1
 160 704 l 1,30,-1
 128 704 l 1,31,-1
 128 672 l 1,32,-1
 128 640 l 1,33,-1
 160 640 l 1,34,-1
 192 640 l 1,35,-1
 192 608 l 1,36,-1
 192 576 l 1,37,-1
 224 576 l 1,38,-1
 256 576 l 1,39,-1
 256 608 l 1,40,-1
 256 640 l 1,41,-1
 288 640 l 1,42,-1
 320 640 l 1,43,-1
 320 672 l 1,44,-1
 320 704 l 1,45,-1
 288 704 l 1,46,-1
 256 704 l 1,47,-1
 256 736 l 1,24,-1
EndSplineSet
EndChar

StartChar: ugrave
Encoding: 249 249 195
Width: 512
Flags: W
LayerCount: 2
Fore
SplineSet
128 800 m 1,0,-1
 128 832 l 1,1,-1
 224 832 l 1,2,-1
 320 832 l 1,3,-1
 320 800 l 1,4,-1
 320 768 l 1,5,-1
 352 768 l 1,6,-1
 384 768 l 1,7,-1
 384 672 l 1,8,-1
 384 576 l 1,9,-1
 352 576 l 1,10,-1
 320 576 l 1,11,-1
 320 544 l 1,12,-1
 320 512 l 1,13,-1
 224 512 l 1,14,-1
 128 512 l 1,15,-1
 128 544 l 1,16,-1
 128 576 l 1,17,-1
 96 576 l 1,18,-1
 64 576 l 1,19,-1
 64 672 l 1,20,-1
 64 768 l 1,21,-1
 96 768 l 1,22,-1
 128 768 l 1,23,-1
 128 800 l 1,0,-1
EndSplineSet
EndChar

StartChar: uacute
Encoding: 250 250 196
Width: 512
Flags: W
LayerCount: 2
Fore
SplineSet
192 320 m 5,0,-1
 224 320 l 5,1,-1
 320 320 l 5,2,-1
 320 288 l 5,3,-1
 320 256 l 5,4,-1
 352 256 l 5,5,-1
 384 256 l 5,6,-1
 384 160 l 5,7,-1
 384 128 l 5,8,-1
 320 128 l 5,9,-1
 320 64 l 5,10,-1
 192 64 l 5,11,-1
 192 128 l 5,12,-1
 128 128 l 5,13,-1
 128 256 l 5,14,-1
 192 256 l 5,15,-1
 192 320 l 5,0,-1
EndSplineSet
EndChar

StartChar: yacute
Encoding: 253 253 197
Width: 512
Flags: W
LayerCount: 2
Fore
SplineSet
128 736 m 1,0,-1
 128 768 l 1,1,-1
 192 768 l 1,2,-1
 256 768 l 1,3,-1
 256 736 l 1,4,-1
 256 704 l 1,5,-1
 288 704 l 1,6,-1
 320 704 l 1,7,-1
 320 640 l 1,8,-1
 320 576 l 1,9,-1
 288 576 l 1,10,-1
 256 576 l 1,11,-1
 256 544 l 1,12,-1
 256 512 l 1,13,-1
 224 512 l 1,14,-1
 192 512 l 1,15,-1
 192 480 l 1,16,-1
 192 448 l 1,17,-1
 256 448 l 1,18,-1
 320 448 l 1,19,-1
 320 416 l 1,20,-1
 320 384 l 1,21,-1
 192 384 l 1,22,-1
 64 384 l 1,23,-1
 64 448 l 1,24,-1
 64 512 l 1,25,-1
 96 512 l 1,26,-1
 128 512 l 1,27,-1
 128 544 l 1,28,-1
 128 576 l 1,29,-1
 160 576 l 1,30,-1
 192 576 l 1,31,-1
 192 608 l 1,32,-1
 192 640 l 1,33,-1
 224 640 l 1,34,-1
 256 640 l 1,35,-1
 256 672 l 1,36,-1
 256 704 l 1,37,-1
 192 704 l 1,38,-1
 128 704 l 1,39,-1
 128 672 l 1,40,-1
 128 640 l 1,41,-1
 96 640 l 1,42,-1
 64 640 l 1,43,-1
 64 672 l 1,44,-1
 64 704 l 1,45,-1
 96 704 l 1,46,-1
 128 704 l 1,47,-1
 128 736 l 1,0,-1
EndSplineSet
EndChar

StartChar: thorn
Encoding: 254 254 198
Width: 512
Flags: W
LayerCount: 2
Fore
SplineSet
64 736 m 1,0,-1
 64 768 l 1,1,-1
 192 768 l 1,2,-1
 320 768 l 1,3,-1
 320 704 l 1,4,-1
 320 640 l 1,5,-1
 288 640 l 1,6,-1
 256 640 l 1,7,-1
 256 608 l 1,8,-1
 256 576 l 1,9,-1
 288 576 l 1,10,-1
 320 576 l 1,11,-1
 320 512 l 1,12,-1
 320 448 l 1,13,-1
 288 448 l 1,14,-1
 256 448 l 1,15,-1
 256 416 l 1,16,-1
 256 384 l 1,17,-1
 192 384 l 1,18,-1
 128 384 l 1,19,-1
 128 416 l 1,20,-1
 128 448 l 1,21,-1
 96 448 l 1,22,-1
 64 448 l 1,23,-1
 64 480 l 1,24,-1
 64 512 l 1,25,-1
 96 512 l 1,26,-1
 128 512 l 1,27,-1
 128 480 l 1,28,-1
 128 448 l 1,29,-1
 192 448 l 1,30,-1
 256 448 l 1,31,-1
 256 480 l 1,32,-1
 256 512 l 1,33,-1
 224 512 l 1,34,-1
 192 512 l 1,35,-1
 192 544 l 1,36,-1
 192 576 l 1,37,-1
 160 576 l 1,38,-1
 128 576 l 1,39,-1
 128 608 l 1,40,-1
 128 640 l 1,41,-1
 160 640 l 1,42,-1
 192 640 l 1,43,-1
 192 672 l 1,44,-1
 192 704 l 1,45,-1
 128 704 l 1,46,-1
 64 704 l 1,47,-1
 64 736 l 1,0,-1
EndSplineSet
EndChar

StartChar: ydieresis
Encoding: 255 255 199
Width: 512
Flags: W
LayerCount: 2
Fore
SplineSet
0 768 m 1,0,-1
 0 832 l 1,1,-1
 224 832 l 1,2,-1
 448 832 l 1,3,-1
 448 768 l 1,4,-1
 448 704 l 1,5,-1
 224 704 l 1,6,-1
 0 704 l 1,7,-1
 0 768 l 1,0,-1
EndSplineSet
EndChar

StartChar: NameMe.157
Encoding: 157 -1 200
Width: 512
Flags: W
LayerCount: 2
Fore
SplineSet
64 608 m 1,0,-1
 64 768 l 1,1,-1
 128 768 l 1,2,-1
 192 768 l 1,3,-1
 192 640 l 1,4,-1
 192 512 l 1,5,-1
 256 512 l 1,6,-1
 320 512 l 1,7,-1
 320 640 l 1,8,-1
 320 768 l 1,9,-1
 384 768 l 1,10,-1
 448 768 l 1,11,-1
 448 608 l 1,12,-1
 448 448 l 1,13,-1
 416 448 l 1,14,-1
 384 448 l 1,15,-1
 384 416 l 1,16,-1
 384 384 l 1,17,-1
 352 384 l 1,18,-1
 320 384 l 1,19,-1
 320 352 l 1,20,-1
 320 320 l 1,21,-1
 384 320 l 1,22,-1
 448 320 l 1,23,-1
 448 288 l 1,24,-1
 448 256 l 1,25,-1
 384 256 l 1,26,-1
 320 256 l 1,27,-1
 320 128 l 1,28,-1
 320 0 l 1,29,-1
 256 0 l 1,30,-1
 192 0 l 1,31,-1
 192 128 l 1,32,-1
 192 256 l 1,33,-1
 128 256 l 1,34,-1
 64 256 l 1,35,-1
 64 288 l 1,36,-1
 64 320 l 1,37,-1
 128 320 l 1,38,-1
 192 320 l 1,39,-1
 192 352 l 1,40,-1
 192 384 l 1,41,-1
 160 384 l 1,42,-1
 128 384 l 1,43,-1
 128 416 l 1,44,-1
 128 448 l 1,45,-1
 96 448 l 1,46,-1
 64 448 l 1,47,-1
 64 608 l 1,0,-1
EndSplineSet
EndChar

StartChar: NameMe.158
Encoding: 158 -1 201
Width: 512
Flags: W
LayerCount: 2
Fore
SplineSet
192 736 m 1,0,-1
 192 768 l 1,1,-1
 256 768 l 1,2,-1
 320 768 l 1,3,-1
 320 736 l 1,4,-1
 320 704 l 1,5,-1
 352 704 l 1,6,-1
 384 704 l 1,7,-1
 384 672 l 1,8,-1
 384 640 l 1,9,-1
 416 640 l 1,10,-1
 448 640 l 1,11,-1
 448 544 l 1,12,-1
 448 448 l 1,13,-1
 416 448 l 1,14,-1
 384 448 l 1,15,-1
 384 416 l 1,16,-1
 384 384 l 1,17,-1
 416 384 l 1,18,-1
 448 384 l 1,19,-1
 448 288 l 1,20,-1
 448 192 l 1,21,-1
 416 192 l 1,22,-1
 384 192 l 1,23,-1
 384 128 l 1,24,-1
 384 64 l 1,25,-1
 320 64 l 1,26,-1
 256 64 l 1,27,-1
 256 96 l 1,28,-1
 256 128 l 1,29,-1
 224 128 l 1,30,-1
 192 128 l 1,31,-1
 192 64 l 1,32,-1
 192 0 l 1,33,-1
 160 0 l 1,34,-1
 128 0 l 1,35,-1
 128 -32 l 1,36,-1
 128 -64 l 1,37,-1
 96 -64 l 1,38,-1
 64 -64 l 1,39,-1
 64 288 l 1,40,-1
 64 640 l 1,41,-1
 96 640 l 1,42,-1
 128 640 l 1,43,-1
 128 672 l 1,44,-1
 128 704 l 1,45,-1
 160 704 l 1,46,-1
 192 704 l 1,47,-1
 192 736 l 1,0,-1
320 544 m 1,48,-1
 320 640 l 1,49,-1
 256 640 l 1,50,-1
 192 640 l 1,51,-1
 192 544 l 1,52,-1
 192 448 l 1,53,-1
 256 448 l 1,54,-1
 320 448 l 1,55,-1
 320 544 l 1,48,-1
320 288 m 1,56,-1
 320 384 l 1,57,-1
 256 384 l 1,58,-1
 192 384 l 1,59,-1
 192 288 l 1,60,-1
 192 192 l 1,61,-1
 256 192 l 1,62,-1
 320 192 l 1,63,-1
 320 288 l 1,56,-1
EndSplineSet
EndChar

StartChar: NameMe.188
Encoding: 188 -1 202
Width: 512
Flags: W
LayerCount: 2
Fore
SplineSet
384 384 m 1,0,-1
 384 768 l 1,1,-1
 416 768 l 1,2,-1
 448 768 l 1,3,-1
 448 384 l 1,4,-1
 448 0 l 1,5,-1
 416 0 l 1,6,-1
 384 0 l 1,7,-1
 384 384 l 1,0,-1
64 736 m 1,8,-1
 64 768 l 1,9,-1
 192 768 l 1,10,-1
 320 768 l 1,11,-1
 320 384 l 1,12,-1
 320 0 l 1,13,-1
 288 0 l 1,14,-1
 256 0 l 1,15,-1
 256 160 l 1,16,-1
 256 320 l 1,17,-1
 160 320 l 1,18,-1
 64 320 l 1,19,-1
 64 352 l 1,20,-1
 64 384 l 1,21,-1
 32 384 l 1,22,-1
 0 384 l 1,23,-1
 0 544 l 1,24,-1
 0 704 l 1,25,-1
 32 704 l 1,26,-1
 64 704 l 1,27,-1
 64 736 l 1,8,-1
256 544 m 1,28,-1
 256 704 l 1,29,-1
 192 704 l 1,30,-1
 128 704 l 1,31,-1
 128 544 l 1,32,-1
 128 384 l 1,33,-1
 192 384 l 1,34,-1
 256 384 l 1,35,-1
 256 544 l 1,28,-1
EndSplineSet
EndChar

